<mxfile modified="2021-05-10T23:43:12.210Z" host="app.diagrams.net" agent="5.0 (Macintosh; Intel Mac OS X 10_15_7) AppleWebKit/537.36 (KHTML, like Gecko) Chrome/90.0.4430.93 Safari/537.36" etag="G3-fPYCh1PLVRx_g7TZc" version="14.6.9" type="github">
  <diagram id="Ht1M8jgEwFfnCIfOTk4-" name="Page-1">
    <mxGraphModel dx="1892" dy="904" grid="1" gridSize="10" guides="1" tooltips="1" connect="1" arrows="1" fold="1" page="1" pageScale="1" pageWidth="2336" pageHeight="1654" math="0" shadow="0">
      <root>
        <mxCell id="0" />
        <mxCell id="1" parent="0" />
        <mxCell id="ZbF4BASj6-ml_1zqWkv2-18" value="upload/translate OBJ file" style="edgeStyle=orthogonalEdgeStyle;rounded=0;orthogonalLoop=1;jettySize=auto;html=1;exitX=0.75;exitY=1;exitDx=0;exitDy=0;" edge="1" parent="1" source="ZbF4BASj6-ml_1zqWkv2-46" target="ZbF4BASj6-ml_1zqWkv2-15">
          <mxGeometry relative="1" as="geometry">
            <mxPoint x="930.0000000000002" y="715.5" as="targetPoint" />
            <Array as="points">
              <mxPoint x="792" y="730" />
              <mxPoint x="792" y="758" />
            </Array>
          </mxGeometry>
        </mxCell>
        <mxCell id="ZbF4BASj6-ml_1zqWkv2-19" value="CRUD photoscene" style="edgeStyle=orthogonalEdgeStyle;rounded=0;orthogonalLoop=1;jettySize=auto;html=1;exitX=0.75;exitY=0;exitDx=0;exitDy=0;" edge="1" parent="1" source="ZbF4BASj6-ml_1zqWkv2-46" target="ZbF4BASj6-ml_1zqWkv2-14">
          <mxGeometry relative="1" as="geometry">
            <mxPoint x="830" y="480" as="sourcePoint" />
            <Array as="points">
              <mxPoint x="792" y="420" />
            </Array>
          </mxGeometry>
        </mxCell>
        <mxCell id="ZbF4BASj6-ml_1zqWkv2-23" value="upload images" style="edgeStyle=orthogonalEdgeStyle;rounded=0;orthogonalLoop=1;jettySize=auto;html=1;exitX=0.75;exitY=0;exitDx=0;exitDy=0;" edge="1" parent="1" source="ZbF4BASj6-ml_1zqWkv2-46" target="ZbF4BASj6-ml_1zqWkv2-21">
          <mxGeometry x="0.2565" relative="1" as="geometry">
            <Array as="points">
              <mxPoint x="680" y="520" />
              <mxPoint x="680" y="277" />
            </Array>
            <mxPoint x="-1" as="offset" />
          </mxGeometry>
        </mxCell>
        <mxCell id="hl-4h9MKn_eqg86qbTQG-22" style="edgeStyle=orthogonalEdgeStyle;rounded=0;orthogonalLoop=1;jettySize=auto;html=1;" parent="1" source="hl-4h9MKn_eqg86qbTQG-3" target="hl-4h9MKn_eqg86qbTQG-19" edge="1">
          <mxGeometry relative="1" as="geometry" />
        </mxCell>
        <mxCell id="hl-4h9MKn_eqg86qbTQG-23" style="edgeStyle=orthogonalEdgeStyle;rounded=0;orthogonalLoop=1;jettySize=auto;html=1;entryX=1;entryY=0.5;entryDx=0;entryDy=0;" parent="1" source="hl-4h9MKn_eqg86qbTQG-3" target="hl-4h9MKn_eqg86qbTQG-20" edge="1">
          <mxGeometry relative="1" as="geometry">
            <mxPoint x="1480" y="1130" as="targetPoint" />
            <Array as="points">
              <mxPoint x="1760" y="999" />
            </Array>
          </mxGeometry>
        </mxCell>
        <mxCell id="ZbF4BASj6-ml_1zqWkv2-92" style="edgeStyle=orthogonalEdgeStyle;rounded=0;orthogonalLoop=1;jettySize=auto;html=1;entryX=0.5;entryY=1;entryDx=0;entryDy=0;startArrow=none;startFill=0;endArrow=classic;endFill=1;" edge="1" parent="1" source="hl-4h9MKn_eqg86qbTQG-3" target="ZbF4BASj6-ml_1zqWkv2-88">
          <mxGeometry relative="1" as="geometry">
            <Array as="points">
              <mxPoint x="1870" y="634" />
              <mxPoint x="1870" y="1500" />
              <mxPoint x="800" y="1500" />
            </Array>
          </mxGeometry>
        </mxCell>
        <mxCell id="hl-4h9MKn_eqg86qbTQG-3" value="elastic load balancing" style="points=[[0,0,0],[0.25,0,0],[0.5,0,0],[0.75,0,0],[1,0,0],[0,1,0],[0.25,1,0],[0.5,1,0],[0.75,1,0],[1,1,0],[0,0.25,0],[0,0.5,0],[0,0.75,0],[1,0.25,0],[1,0.5,0],[1,0.75,0]];outlineConnect=0;fontColor=#232F3E;gradientColor=#F78E04;gradientDirection=north;fillColor=#D05C17;strokeColor=#ffffff;dashed=0;verticalLabelPosition=bottom;verticalAlign=top;align=center;html=1;fontSize=12;fontStyle=0;aspect=fixed;shape=mxgraph.aws4.resourceIcon;resIcon=mxgraph.aws4.elastic_load_balancing;labelBorderColor=none;" parent="1" vertex="1">
          <mxGeometry x="1700" y="594.5" width="78" height="78" as="geometry" />
        </mxCell>
        <mxCell id="hl-4h9MKn_eqg86qbTQG-8" style="edgeStyle=orthogonalEdgeStyle;rounded=0;orthogonalLoop=1;jettySize=auto;html=1;exitX=0.5;exitY=1;exitDx=0;exitDy=0;exitPerimeter=0;" parent="1" source="hl-4h9MKn_eqg86qbTQG-3" target="hl-4h9MKn_eqg86qbTQG-3" edge="1">
          <mxGeometry relative="1" as="geometry" />
        </mxCell>
        <mxCell id="hl-4h9MKn_eqg86qbTQG-24" value="Redis" style="aspect=fixed;html=1;points=[];align=center;image;fontSize=12;image=img/lib/mscae/Cache_Redis_Product.svg;" parent="1" vertex="1">
          <mxGeometry x="1273.1000000000001" y="110" width="73.8" height="62" as="geometry" />
        </mxCell>
        <mxCell id="ZbF4BASj6-ml_1zqWkv2-25" style="edgeStyle=orthogonalEdgeStyle;rounded=0;orthogonalLoop=1;jettySize=auto;html=1;entryX=0;entryY=0.5;entryDx=0;entryDy=0;entryPerimeter=0;" edge="1" parent="1" source="ZbF4BASj6-ml_1zqWkv2-14" target="ZbF4BASj6-ml_1zqWkv2-26">
          <mxGeometry relative="1" as="geometry">
            <mxPoint x="1240" y="320" as="targetPoint" />
            <Array as="points">
              <mxPoint x="1170" y="420" />
              <mxPoint x="1170" y="334" />
            </Array>
          </mxGeometry>
        </mxCell>
        <mxCell id="ZbF4BASj6-ml_1zqWkv2-14" value="Amazon API Gateway" style="outlineConnect=0;fontColor=#232F3E;gradientColor=none;strokeColor=#ffffff;dashed=0;verticalLabelPosition=middle;verticalAlign=bottom;align=center;html=1;whiteSpace=wrap;fontSize=10;fontStyle=1;spacing=3;shape=mxgraph.aws4.productIcon;prIcon=mxgraph.aws4.api_gateway;fillColor=#FFB570;" vertex="1" parent="1">
          <mxGeometry x="1031.75" y="380" width="80" height="110" as="geometry" />
        </mxCell>
        <mxCell id="ZbF4BASj6-ml_1zqWkv2-62" style="edgeStyle=orthogonalEdgeStyle;rounded=0;orthogonalLoop=1;jettySize=auto;html=1;entryX=0;entryY=0.5;entryDx=0;entryDy=0;entryPerimeter=0;endArrow=classic;endFill=1;" edge="1" parent="1" source="ZbF4BASj6-ml_1zqWkv2-15" target="ZbF4BASj6-ml_1zqWkv2-63">
          <mxGeometry relative="1" as="geometry">
            <Array as="points">
              <mxPoint x="1072" y="1166" />
            </Array>
          </mxGeometry>
        </mxCell>
        <mxCell id="ZbF4BASj6-ml_1zqWkv2-15" value="Amazon API Gateway" style="outlineConnect=0;fontColor=#232F3E;gradientColor=none;strokeColor=#ffffff;fillColor=#232F3E;dashed=0;verticalLabelPosition=middle;verticalAlign=bottom;align=center;html=1;whiteSpace=wrap;fontSize=10;fontStyle=1;spacing=3;shape=mxgraph.aws4.productIcon;prIcon=mxgraph.aws4.api_gateway;" vertex="1" parent="1">
          <mxGeometry x="1031.75" y="690" width="80" height="110" as="geometry" />
        </mxCell>
        <mxCell id="ZbF4BASj6-ml_1zqWkv2-24" style="edgeStyle=orthogonalEdgeStyle;rounded=0;orthogonalLoop=1;jettySize=auto;html=1;" edge="1" parent="1" source="ZbF4BASj6-ml_1zqWkv2-21" target="ZbF4BASj6-ml_1zqWkv2-14">
          <mxGeometry relative="1" as="geometry" />
        </mxCell>
        <mxCell id="ZbF4BASj6-ml_1zqWkv2-21" value="AWS S3" style="outlineConnect=0;dashed=0;verticalLabelPosition=bottom;verticalAlign=top;align=center;html=1;shape=mxgraph.aws3.s3;fillColor=#E05243;gradientColor=none;" vertex="1" parent="1">
          <mxGeometry x="1033.5" y="230" width="76.5" height="93" as="geometry" />
        </mxCell>
        <mxCell id="ZbF4BASj6-ml_1zqWkv2-27" style="edgeStyle=orthogonalEdgeStyle;rounded=0;orthogonalLoop=1;jettySize=auto;html=1;entryX=0.5;entryY=0;entryDx=0;entryDy=0;entryPerimeter=0;" edge="1" parent="1" source="ZbF4BASj6-ml_1zqWkv2-26" target="hl-4h9MKn_eqg86qbTQG-3">
          <mxGeometry relative="1" as="geometry">
            <Array as="points">
              <mxPoint x="1739" y="334" />
            </Array>
          </mxGeometry>
        </mxCell>
        <mxCell id="ZbF4BASj6-ml_1zqWkv2-34" value="cache photoscene metadata" style="edgeStyle=orthogonalEdgeStyle;rounded=0;orthogonalLoop=1;jettySize=auto;html=1;" edge="1" parent="1" source="ZbF4BASj6-ml_1zqWkv2-26" target="hl-4h9MKn_eqg86qbTQG-24">
          <mxGeometry relative="1" as="geometry">
            <mxPoint x="1370" y="230" as="targetPoint" />
          </mxGeometry>
        </mxCell>
        <mxCell id="ZbF4BASj6-ml_1zqWkv2-35" value="persist photosecne metadata" style="edgeStyle=orthogonalEdgeStyle;rounded=0;orthogonalLoop=1;jettySize=auto;html=1;exitX=0.855;exitY=0.145;exitDx=0;exitDy=0;exitPerimeter=0;" edge="1" parent="1" source="ZbF4BASj6-ml_1zqWkv2-26" target="ZbF4BASj6-ml_1zqWkv2-33">
          <mxGeometry relative="1" as="geometry">
            <Array as="points">
              <mxPoint x="1480" y="308" />
            </Array>
          </mxGeometry>
        </mxCell>
        <mxCell id="ZbF4BASj6-ml_1zqWkv2-85" value="logging" style="edgeStyle=orthogonalEdgeStyle;rounded=0;orthogonalLoop=1;jettySize=auto;html=1;startArrow=none;startFill=0;endArrow=classic;endFill=1;" edge="1" parent="1" source="ZbF4BASj6-ml_1zqWkv2-26" target="ZbF4BASj6-ml_1zqWkv2-83">
          <mxGeometry relative="1" as="geometry">
            <Array as="points">
              <mxPoint x="1630" y="344" />
              <mxPoint x="1630" y="344" />
            </Array>
          </mxGeometry>
        </mxCell>
        <mxCell id="ZbF4BASj6-ml_1zqWkv2-26" value="AWS Lambda" style="outlineConnect=0;dashed=0;verticalLabelPosition=bottom;verticalAlign=top;align=center;html=1;shape=mxgraph.aws3.lambda_function;fillColor=#F58534;gradientColor=none;" vertex="1" parent="1">
          <mxGeometry x="1275.5" y="297.5" width="69" height="72" as="geometry" />
        </mxCell>
        <mxCell id="ZbF4BASj6-ml_1zqWkv2-36" style="edgeStyle=orthogonalEdgeStyle;rounded=0;orthogonalLoop=1;jettySize=auto;html=1;startArrow=none;startFill=0;" edge="1" parent="1" source="ZbF4BASj6-ml_1zqWkv2-33" target="hl-4h9MKn_eqg86qbTQG-24">
          <mxGeometry relative="1" as="geometry">
            <Array as="points">
              <mxPoint x="1390" y="130" />
              <mxPoint x="1390" y="130" />
            </Array>
          </mxGeometry>
        </mxCell>
        <mxCell id="ZbF4BASj6-ml_1zqWkv2-33" value="Amazon RDS" style="outlineConnect=0;fontColor=#232F3E;gradientColor=none;strokeColor=#ffffff;fillColor=#232F3E;dashed=0;verticalLabelPosition=middle;verticalAlign=bottom;align=center;html=1;whiteSpace=wrap;fontSize=10;fontStyle=1;spacing=3;shape=mxgraph.aws4.productIcon;prIcon=mxgraph.aws4.rds;" vertex="1" parent="1">
          <mxGeometry x="1440" y="100" width="80" height="100" as="geometry" />
        </mxCell>
        <mxCell id="ZbF4BASj6-ml_1zqWkv2-47" value="" style="group" vertex="1" connectable="0" parent="1">
          <mxGeometry x="559.78" y="520" width="310" height="183" as="geometry" />
        </mxCell>
        <mxCell id="ZbF4BASj6-ml_1zqWkv2-46" value="" style="rounded=1;whiteSpace=wrap;html=1;gradientColor=#ffffff;fillColor=none;" vertex="1" parent="ZbF4BASj6-ml_1zqWkv2-47">
          <mxGeometry width="310" height="183" as="geometry" />
        </mxCell>
        <mxCell id="UEzPUAAOIrF-is8g5C7q-109" value="desktop/laptop client" style="outlineConnect=0;gradientColor=none;fontColor=#545B64;strokeColor=none;fillColor=#879196;dashed=0;verticalLabelPosition=bottom;verticalAlign=top;align=center;html=1;fontSize=12;fontStyle=0;aspect=fixed;shape=mxgraph.aws4.illustration_desktop;pointerEvents=1;labelBackgroundColor=#ffffff;" parent="ZbF4BASj6-ml_1zqWkv2-47" vertex="1">
          <mxGeometry x="40.22000000000003" y="32.75" width="100" height="91" as="geometry" />
        </mxCell>
        <mxCell id="UEzPUAAOIrF-is8g5C7q-110" value="mobile client" style="outlineConnect=0;gradientColor=none;fontColor=#545B64;strokeColor=none;fillColor=#879196;dashed=0;verticalLabelPosition=bottom;verticalAlign=top;align=center;html=1;fontSize=12;fontStyle=0;aspect=fixed;shape=mxgraph.aws4.illustration_notification;pointerEvents=1;labelBackgroundColor=#ffffff;" parent="ZbF4BASj6-ml_1zqWkv2-47" vertex="1">
          <mxGeometry x="170.22" y="42.75" width="100" height="81" as="geometry" />
        </mxCell>
        <mxCell id="ZbF4BASj6-ml_1zqWkv2-48" value="" style="group" vertex="1" connectable="0" parent="1">
          <mxGeometry x="1200" y="430" width="290" height="300" as="geometry" />
        </mxCell>
        <mxCell id="hl-4h9MKn_eqg86qbTQG-14" value="Availability Zone" style="fillColor=none;strokeColor=#147EBA;dashed=1;verticalAlign=top;fontStyle=0;fontColor=#147EBA;" parent="ZbF4BASj6-ml_1zqWkv2-48" vertex="1">
          <mxGeometry width="290" height="300" as="geometry" />
        </mxCell>
        <mxCell id="hl-4h9MKn_eqg86qbTQG-19" value="Autodesk Forge instance" style="shape=image;verticalLabelPosition=bottom;verticalAlign=top;imageAspect=0;aspect=fixed;image=data:image/png,iVBORw0KGgoAAAANSUhEUgAAAMgAAADICAYAAACtWK6eAABq1UlEQVR4nOz9CZBd133nh3/PXd7e3a83oNFYukGABECAICBSEimJEqh9s03PyCN5xraoqhn7/59JylIlldSkktCqZFyOKwkly9t4JqZsZyxLSoaiZVsjihRIkVq4iARJEMTSWBtA791v3+5yUvfc7Zxz733vdQOgSJmnqvved/flfM739/ud5Sp4K72V3kqJ6S1A3kpvpS5J+1lfwFtp48n43qePsBmiFBViHxLXkvf12P0CQC/6PyjFBefPmde0zDFy71+UbsQ1v9kS+VlfwFspOdGjn542TUwrChwQhgByiFJaJIQc6rafbZvotKvOEcQV0ttWFA2p1GDy+Sk9RggpAfRJBx5VVY+Re//62LXd1ZsrvQXIGyQ5akAIpgnB7Q4IAI7I27QbNViWiXazBtsy0G7VYNsGKDXQbldBnLdJKHurxJuyefjzLjDCdgiXa1qW/fngaFqO/db1QSiKzl/KEwA9ZlPlSU1NPfHzrDZvAfIzSPToZ4um1TmiEPt9cTC0ajU0a3UYrRYalRKMdgtGp+Vl7DCDEyWcEoVGlsXC4sHAtomDBn6u8Je7UweQVGoA6fQYg8eBRlNz7v0wpcETiqL+xc+bwrwFyOuUjMd+9T4HCEpxhDeROk0HgjpqayW0qu5UBEGeuhk7WKa48y4g3lTpAQ14aHqDwqsMv05Ts8ikRxk06fQoA8YxxQih3/p5geUtQG5QcvwHy3JgwC8B5D5/ebvRQnW5jOqK81dCp9nmSnXf5ImCEQcLm1c8YAJQOFVRaQiMv61CE0wxablvlkGCCpzCCACBqUouswXZzAR0fciH5S8UBV8l9379wuv7Bq5PeguQ65hcKBwY6Gd5lVi9soLKUhlrV1cYICTIeN6E+034ZUGmjQMjnA9/+8oRwhIAolLxtyICEgdKrJpw5hcEsKkAjgNLPrsD2cwW3xT7qm3Tv9A/9PUnXodXcd3SW4BcY3L8Cctq389DYXZMrF5ewcrlFTbln3KgEJAUAzEqgRg4gowdAwoHR2BmcaAQ1Z9SARR/+ygwkjmGODVJhsSfOqqSc2BJb3EWPmHb9ItvFlDeAmSDyfMpPuubT61aGyuXVjA/s4D6Wj3ckAiTBDhoVyiSFYRyZpWsHBIcCrfcAySYSqoSpyKimiSbXEmQOLOOzzJY2MdgebOA8hYg60iOCWXb+G1KcT8hpOgoxdKFVSxfXMHypRVh28iD5VUkDpJYOGhXXyRQC09Z4uHg/6g4r3J/3jrXX6EBgBHf5BohcfZzTK7B/F7kslPOkicUhX7ujeqjvAVIH0lWi+pyHbOvXMXS+RVmTiWm9ZhWiFEMbMy8IhHzKh4UxVcT7i8wu5QY30SRAJD9kr4gCc01R1GGBg4im5501n9RUTJfeqPVqbwFSJdkPvbp+wHyACGYNtsmFs+t4uxzl9CqtPs/SJxygDNbEK8e/jI+nCuqCAcBBwIEWDgQYiBRVMns0mzJR4EECm9yXR9InGOlU+MoFg5CU4cuUEo/90Yyu94CREqO023brc9Tit92zKhmpY2Zn1zC4tlVOJDQPo8jKAa3MElJQlOrS+QqUT2ouEyJKkoACQeFwjnvgppooY8SjXh1g0R23KngZ3WDyUmD+X3sD6BfUj/w9S9cy3u8XuktQLwkg7E6W8blVxdx5dXFcBtEmzclJRIDB+JMLcmUQiSaRWN9D9kPEWvVo6AoMc56qCCcmjhT1YaicYCoyX4Jb4IhNrqVpC5Rp99JKX0IwwN3OGpyTFXVz/2sKxv/0QMig7FyqYwzP5zFymzZ24Dblv0nkeX84qDiLG4dEaNZcQ56kh8SABBbiy6piiKCIphYquyDQPBHAlAYILboo2wEknWYWsHzI8BQ4XbkM7tKFMrn9A9+7VsbfsHXmP5RA2I+9pnPA/QBF4wKTj91Cc40USlo/E/hIcY9UQkMd0qTI1gRFYlCARKtQQ9AijOtpD9FpVElYaaWZ3KpnF/SFRLut3BfPfwRIjVh4WDxj5VJT2J44E4oRPui+oGv/8563u31Sv8oATEe+9X7COiDjvO9crGCU0/NYvliOaoW/TocSYnEwyM66zwUNMHMQqxy5FIWNIUirVGklBC4LLGhBoenwX2YRIGhEPdYAFophUFkpBVQLQSFweP7JVofkCjREHBoVvUytZJVxEmqmsPo4N3QteJX1Q/8zeeu8Y2sO/2jAsStxyAPATjSKLVx6gezuPTSYowZdR3ggOR3QHraPUO9YYYfKlhIp2zk0zbyKQsplSKt2u41UgLY3vXyfzaJLvO3j1lOKUE7o8BIE5gZAjMHWHmSDIlCORWL1pdEnPYEU0uogIxREXj9VoYH3o60vuWYqmbufT1Dwf8oAPH9DIA8YLRMnH1mDiefmBW26fdB8Nv1y1DsdjFml5NZNI1iaNDE0ICJQtbGYN70MjyXuW0pw18nQILf3kVTBegUFBgDBMYYYOeo6LwHlYrx/kisqUVofypCOF/OW+ZAkk3teF0h+bkHxO2IRB5yzKlLxxZx/LsX4EDip6QHsNEHkwSNvJz/XShYmNjcYWAUclaYYfmMvw5AtHEFJM2DQGGXAGuNrgsQ4Q8EdgrojAHtHQAt2GIT+yR/hDe1+lGRGDOLX/56Q/JzC4inGg8A5POOOfXiIzNYueBGphL86K4pbn0vBekGxei4gdHxDkZHDWhOiWyLmT8OEH1rCiRFoI2rwdTJ/NomBwj4O/K5XppHsMwuURcYpxA5D9hNwJwjMK8S0FY8IPxvawBoT1GYW2zQlF8pKZtaXFSrbxWJN7P4UHAuPY1i4Y7XBZKfS0B41Tj95CxOeeZUbNVEt/DsBhLlj07FZflBC5M7WhgZ96Dg1YADhKQUqCMpBoQ2qkEb06AMKmJG7wlDH+sTjkdblIFinFfQOafAOKtEAAl20YDONgpjlw07b4ctidejInJEK05FeFgoQS4z9bpA8nMHiPX4px90VKMyX8exR2bgTEMQqOwnx6aNPJQ4NXGWaTrF+NYOtky1kM7aoalkh8pAdAX6liz0LRloW9LQxvSYjIw+M/t6wOg2D2G5A0n7hAbjnArziiLetLeZuqcIemce1fZl1k8+WUWiEa342nXezKKSA0hYCDiXmbqh0a2fG0C8HnwPE0IOnX/mKs48OQvT8zW6QXEtkHTzNwZHTIxtbTM4hOQBog2nkdpRgD6Vhzaa6pJhsaEM3q62WEbUMxoUhfC2m6Qc9jrO4W5nrRF0jmto/VSHeVUVVIWkdOi3j6F9q4l6/bK3sEtEizO31mNmOc+Q2gQjg3cil91+w5qm/FwA4tZr2A+Zbav4yiNnsHBqlS1PAqNfSOLWdfM7nHXFzQYmploYGIm28tVGMkjvKjIwlIIW7tUHEGarA7PdQafRAjUt1lXXtiz2ZzQ7XA7tcoH+daRUaLqrAum8xnbN5DWoOoGmkXg1SbhO86qC5tNptI/roE3iqqNjZQ1moN+7GdXCHDpGmYtoxZleXcysmGiWeznECywQjA/fg5Q++jntg1//au+7X1960wNiPf7p3wHIA9X5Ol74xmtoltrgqhSCtFFA+k0jWzuY3N1EyjGjuKQUUkjtGER2/yiUvD90TndzplNtolNroVWqMyhalYZUv4CIDQ+hApJe001lchr0jIJMToWeJtB00vV62c8m0HwqjdZzaVhrarBZ5o7tMO8ASuXT/ZlZ6/BDfEAUomOs+O5SJjN67/Vuu/WmBsR6/DMPAbj/6kuLcJRDBmPdgESehqwXJLLaAWMiBozUVBHp3SNITQ1GlQFiBmuXWmiu1tFYqKBda8E2Lal3HwdCXAemGwgLmB9FkM6pyBUUpHMKqzyMVxh32vheFo0fZF1FcfYfL0D/+FasGsfZOF6imbWOaFYCIE7StSGMD7/nmKYNXFen/U0LiA/Hq4+cgQMIYsAQoPAf+nVSkPyIicm9TWQHrPA4KRXpW8aQ3b+JKYebopEiu2OhermK5mIDtbkqAyJSjxBUwIkVccEyedsEWPgAxfV629mCwmBxpgEsUiHgwFF7JI/W8xn31GkN+V/ZizXlJDqmF26Pvd7+/RDHB+FvKp+ZwvDg266rP/KmBMSH44QHRwSMHhGrjdSD+EnP2th2oMEACfZNacgemEDmwAQL0bpJBMPumCifq6N6sYbapZqXIcABwPW9kH8Tud94dCrCIjX7uEGggIWuFRSGFKSz4AAJp8aMhvJXhwI1yX30ZlS3XEarvdy3H9LVUafizYwM3oFMase916vT1ZsOEB+O1x45gzlfOYioDDfCB1E0itHpNsZ3tcL9Uhry79qJ1NQwUw83iSZUbbaBlVdLqJyvwe7Y3vWGcER6DEqDKITzNrfMFmGSofKmIKLC3EhQMlmC/KD7Jz8HB47q1wfQPp5miwsf34fatgXUG7ORSsOug0OgNyCOP7Jp5MiFlD52+HqYWm8qQBw4zJZ5/2t/ewbLp1YEEOIAiAOln99yKmwysHlvk6kHfMU4uBWZA5NsXq4QsJoWll5ew+JzK+iUDS+jgjMZECyTewdGB4KTOi4pXhMP1e8eG4WFAUTCERZDP4b3axBe83XMBZoOjG72FAUQVLT2SAHNH7jDlTqQVCYvo9WaiwlArDOSJaV0ahzjxfdcF1PrTQOID8exv3wF9QV3WB3Sp2r0NK8SnoKjGhMHGgwQP+XunEbmtm3MphZ8CwDttTZmH1/A8surzD5O7CWImAEYIr0DuQEWiNipiYeDAeKDo3LqwqCyJVMtRlFugJrAU5SRzYQ1vuSfUeu5DKp/444oX/jMbVjLnoDh+CSeksgml/uwugASObO7ZbFwEIP5Ww5fa1TrTQGID8fLf/kKagv1rmBEoPAjI/JyLsUtyzuqcaDJIHFSaucY8u+6GcpAJrJtaaaK2cfmUJqphcfkLqSresidoBLHthJ7Cipe11i3+bntQqOGkATKwkMTmF784NY3zuxygB4aIRgoQogI+pA4hczAZ27DMnkept2IRrL6AIRPPCyOqbV5+CNPpD788L3Xcg9veED8piMv/tmLTDm6AsHB0Ld6SL+Zr7G3hYFJtwbcAaJw7z7ok8XIvmtnarjwD8lgyL/5noBJJpbYM5BC8dZHegaqXG9BLVQT9qdJoPCmmeyzvC5qAoxtgRfxcpMPibapgMyv7MJi9WnvOdEoIF3qQrqlXGYKQ/k7rslhf0N/YcobdufzZ/72DBoLdShSxpejVet1zuVlqQELYweabApmTu1E5uA2z88IkwPEzLfmsXamGj1mEhjBPEnoRhszSqJCYHvA2H73Wb97rEVYfw3223IURQVRFRcOy4eEgDimnu1AQpjKMLOQ2iyfUb97LitUnP+UXR/b5jpC0moC87PA2ASQSrvLMm9vgTYV1B4BzGdWUbzrAEqV4+KO9NqK8EbrIgZyex4CsHOjx3jDKgg9+s8PWZZ1dP7ZueKFR89xIdxkIPoFJW5ZfrKD4b0tpiDaWAH5e/dBGy0I2zeXOwyMKz9cjb3mZPXoYygfeZTEhIHfIkP1BH3JuUEXnKnmQaJZoa+ihariOvrRcPKNVBLnGse3IHTgAaYijpoM/JPbUBo5hbaxnNxnBOtTECel9XGMDt2z4WYob0gFOf77k4dazcbR1ny7ePHRc1AkKJLm0Y96EH7iPuzh/U3kJ11H3FEMx9fgk9GwcP47Szj7yDxsK+EEsrMvKAeJHYwhrBiUnXPCwUEFOKinLI5qUH/gBdtbbhNHHBzfHNRWoViegjig2I5qWGCd1amnJrA9BfEKa8+cu1FK4gjZwhVgdDOQH3CXDXymAvOKhvrjZzD86wcxb3y//wOShJYO3OK2sYS2cfW3AWwIkDecghx/cPLQ2ObpoyNDk8Vjf/gcbK5Fbj9g8EoDaZn827Hdx+5sQB+wXIfxI7dFfI3FF8p4+c+voLFkxFwt5+/IcCAhgiVEsmQViTOz4se1EobsUSl0UOjUM8OINGKipyDWiG962WIETLUjdSk3UkmctHlrqCTWqoq1/3ME2TtugnF7G5Xaa/0pSJ/JUZGRgfduyBd5QynIiw9OFdOp1MPjm3cUZ755ArRlBt+pJl3AkCsK5fWIWa4NWBja32JwOFAMfPQ2wdcw6hZe+Mos5p4rd7liEv6POXnExEqAJXTUJeXgMrqjEJoCZDQbBWpBtyhSHYq0RaHYNNr11vbrCfxljiKo7M8sUta/3B6yYA9bsDabrl8CX4lurJI4aWkO2LTV9UnUEQv5D9dR/y+zGNx/GDVlBjY1Is9zo8lREdMu/7b7bcX1pTeMgjhwaFbr6NTNhw8ZVyyc/eaJWCjigFivmeXAMXxngymI44hn75wWruXyk6s49mdX0albPa+7p5MOSTUCMGiMoy5GtTSNYjBtYiBlo6BZyCp2bA/EAICugPB/0X7p5lYT1jYD5o4OkLFfFyXRdGBiexjdKv3xMJTcDthHKKr117yWKyQ5zLuOlMtMY3Twjp3rHUX+DaEgLz44VEzZraODI5OHMloBF773IjOVk1TiWnwQfdjC4KEGlLzKwrep6bFgG0c1fvrlWVx9phx7DD/RhHl+AeUOQDh/MgSEcL9DpzydsjEyYGIwY2E4a4Yw2HEnc5O2yQJJueu1TSZImsqV+7BKKqw1xYVhTg/aRgXHuKyxv/SPs7C2G0gf2IL2tjW0rcUbpiSmAawsuI67kwr3VbH2f8yheO/dqCtnXBURnPKNn6vRuoBCds99AL60nv1+5grC4CCZo9RUDu3e/06s/GQRCz+4GEDRj3Pe1bTi6kbSWwzk97dY3YZjUvFRquXjNfzkdy8wSNDHg+nnXSVtE1dxuHmsg9Ehg8ERqAGvFjagjdrQxmyoYxa0cRvqoA1l0JLOxsHR4yqN8zrMqxrMOQ3GWT3sx8F1ekrdtRnNXfNoGZe9h30NuTQhOYBk8+589W8GoaT3wTzcRKVx4rqeZzC370LxF15ZV8j3ZwrI+QeHik0lc5Ra5NBgcQs2b96FU3/4LKy2KZhXfUWwYsK//Hxq0kDu1hYL4Q7+4mHB3zj5Nws49bX5Dd1DUnaJWy4vy2RsTO9oYbRoQFXAQeECoeYpUtM29Ekb+laLU4a4fiXYECR8cgDpvJpC6/ksA8ffVd8+DPW9Q6gNnoFhrd2Q8O+2m7xrWFVR+sOtGPzN2zG/+g997N3/xahqHpOjn1hX85OfGSAOHC01fZTa5JBlKrhp7x2oPL+CJV89uAuMBcMDohsUgc8xbiJ3exPpPRPIv/vmAA5HLZ793QtYOV6LXF/Sg+mW3eR1Sb+HiiamplooDpphV3FfJYaB9C0U6SkbykACCFJvPrkvhris11XHJweW9vMZNH6QC5uqv3sn2neUUGufuu45Z/NWgnTWvU5HRfTtb0d14gxanSv9HaCvW2TG7pd2fNrquxHjz8wHaWvpB0HJISdjpDMF6CSDtWevBLXlsWD0qiTkfvhOsVKwkN3fYnA4PoefKuebeOZ/nkG7arnNOfpM8qZ8MJlI/geR3tvQsImpnU0MDZmhX8GukSC9iyBzM4VSkM5ESeggU+ki+IMTGphGRhuwbRI0plQUAj1t93+TTmk7bCH3oTqy72mg+VQODefv6fPQLw2j+Mk7UMErsGlnXcfsllYXVWyZckP6uQ/XUf/bZWR3TPYPSF/vkD0Pxw/pG5CfiYKc/uOxh2xLud+2CBz1mNyxF+QKMP/tU8FFkQQognkZBkIjMqPmbWQPNpHZv1mA4/L3V3Hi/7rCFORaHkA3xQgLb4LBEQPbd7WYcgRmlE2Q2qYgs0+BPgFJAbqNf+U4tzaMNoXRoui0KauAM1puRVyv5Jgzepqy4Yj0FEUmS9nvnvfaJKg/mmfN1bVNBWQ/vRPL1lPXDRICHSObLeQH3JuoPTyCzLvuxdzq9f/ygQLl8LZ/ZvRlZr3uCnLmT0cfsi1yP/WGbXHe/UBxFJcffjlUjxgoCPdD+LIR31qWcyKJRpHdH4Xj0t8v4dX/4JZK6jXeiwwEkebTORu7DtYxGIBB2IiI6Z0asntUphwBAIH8+IoRQuKA0Cw7MNhot2zY9sYdZQeidpOwPz850KSzNrIFimzeFhoV+olkKQq/VIO+y0D1byiaXz+PsU/fg0Xz8Q1fi5wqq0oASPpgDeZMCZmJrf2rSJ/JgnUEwBsPkJk/G/u8bftwuO8/ny+C1kwYi7WgSUkiFNyXlaBwqiE1KXeWO2ZV5qAIx/E/uIQr318VGj3KqVdYN2k5P6/qFFv3NjEx3QIs916JTpC9JY3MHh1EB6cMJBwbygPFNoF22UZzzUKzbMGm3r0r/vT6ar8DTbOuoFl3QFEwNGIF/oCc0gfaUP/1Gqpfs9B65DJGPvVOrDafuS7XYRouuM659V0dGDMrrBb8egMC4H39hntfN0Bm/uPI/bDxIPwGpZ6C5AaKaF4sQeVb5cpQcP0loEiKwXU8cncGUlMdZA9vEuB49Q8uYS4BjqQOU3KiUp6JA2Rsuo0dB+ssKkUtMMXI7s4gc3PaAwOSaoSOS3PZRnPZQn3RDO6LOUiKd3K+gs8H5jonJ4MuXtGYCTY4YgclOp+0SRPFf72G0h8D5Nkisoe3oWlevi7nr5YUpLNu6FrdPAdVO9wtYL6hcxDva8X9pNcFkPMPjd5nW3jI9uCAZ1oxBRkoov6jy26TEq4fROw8ATfCh/8bQqcfx7nM3z0mwHHiK5cwf3SFtfj204YeLUnyOwhSOQs731nDwJjJwKCW43TnkN2XY+oRiUJ5cJgNG9XzJupXDdd0YpWG3omUbu29vXU3ABJ4pfnqgsoy7PBYVFEck8uBZOXfncPQ/rejrS5eF3/EUTLbtpiZp+1YBjGLrPOT0PQkSOu5d/E5Xv6GfqgfP+SGA3L+oaFDtk0folRxVUNqH5TJ5VFaqjGfQYBCkaCIA0QRfRKiU+TuyAtwnPzKRSx+f5X74lKY1gNJkkPuTDfta2LyQIM1GnRMKm0sjdyhIpScGvUxPAloL5mozHTQXPDVggRqmYyFvObGQgIWEXMVZaBoY3DEEvwTH5LaN8+i+KnD183UciBxlEsdsWDNLUHXhtE2Fq/xqOIz6tcPuaGAnH9oaJoQ9SgBKcrDvDqgKKoGVdVg1ZsgmgSGDIUSQsH7I3wUK3swjcFPHAjOf8qDQ+5oxadekHSLVCkpiqn3VDG01XDNqbSGzL4R6JuzMQ2g3L3rZ9soH2/DbNohGLJaUBp8r4PIphV9/SGBZ/q0mgRjWyyun7lrbqX2XYY6txPaSB6mXb/mczVrJGgOrwysQW8X0TG5rw1fj1ultC8/5IYBcv6hoaKiKg/bFoo0gALhaHgUyOQKaF8ueV1GQ7s6CgiCD9vLDrsPiDZGUPz07UEl4JmvXMRSjHLwA8hBWsen6Dsg4Sc2ABS2GJj+YCVQjdR0EendRTZSe2QMW0JRP9NC+aUWM6lcX4qEvgR/UmmZm/0ToJB/32BIHDVZuKRh01ZTCA3nPlxH7RsXUJjYg1LrhWs+j6MgThnPklKHrg4L6/v1GdENJpsc6cdEu2GAKDp5GDYOgTOnfCOe8hfumUYMBpUHRIJCmAc3miBYw8Ph3zgQwHHhzy9j2fM5kioWkfAbic1EaOCDjN7WxORddeZnkJSOzK1boA5nOXMKQW6vn2yi/NMGzLodRqAEODiFUOKCxUkmVwwkhNyQtlJ8cvxIx+SSIUnfcQ608UER+L5T9O78aBbR16Cp2zZ8vUkwEQ3FU3+mH9rzm939kBsCyOxfFx+iNo6wbgoI/Q7Kt4jwILFqTRbdcbuAciBwgARASH6JD8jQL9/Mxn91kgPGwt8tRloDo8c8n5LMKiVNMfn+KgamOqyA07ePIrVzHERTJK+EojXbRuWZGlpXjeDag4LCD9siRkX4k9Kwdpy1qI2tx+cjD/S6h4DjkgPJyqLKIPF9En1XB51jK8gW1x/RIjE1Uu2mF80iBlQld70uXTyvSnv6IdcdkMvfGLqfmrgfnCkVJMEcd9+i1Wh5CuIDwvsiok8Cha8DcU0tfWoI6T2j7FjVV2u48JWLwU0lqgeR85DYhoNKi52JPmhh6ycqSA87TrWG9K07oI4NehuEJpVZNrH2eAmNsy0u6EDC0oGHhHrrIPofbH0MNLGQEG5ff5VyY3oB8skxt1YXVOaT+Embvopsfes6ASGxRHfa/kHXoCr5mGLr2m+QqPT2XttcV0Dmvjl0xLbxkOyaij8gdrZ3TKoYQCI+iWRm+b8L90yxw3QWOzj/e2cD5UjqVCXPi4ly/8MCPj1uYts/LbMBHZSBAaT27QbR1IgDXn6ihMpzVdht2834hIYBLN+sCkCRTSkejHhTC3GQ8D4Vb0+oN9bUgucrtJt2EAIm6ctItw6t6xhx6uEko7Pe8En3s8QewXEBeqTrBsjcw0PT1LAfZn025YhVl4vVRwdcQFQejBg/RAlHI/SVRN82BH37EDvOhf/tLNAwoXXxO5L8j3ifw0253W1s+kiVwaFOTELfOSWNqEjRmWtj5T8vobPQDsPPHBTUewjEN6v4MwZqEq8a4XlkSBCVQllNbrDTDqmRIclSqE0DCkn1WSeSbA+ahrg8rW+6hlBv/HMgKnn9AIFlPwyQYtIrkc0WtotpQklr8YCoMYAQ0VHP3e2qx/xDszAuNATTKhYOwRKJSjZ/jSxSdVsLYx+tMo9O23kL1JHRiK+x9reLqPyw5MtWWOutcBEpD4KwfjDG5JLMvMRIFeF/UTY+llJXmE+kVKI+irXFZJ9spjE14tcjORm5Xg3bUBG1Dl0tom32zsxJ6uEnx4xjgQDtxnyj03kFL35FPXL4v7YS+6pfF0Dm/3P+IVAc8h3wfuPUrUYdSkoDSflRLGnaxQ/RJotssIXqsyWUOKecSKMrJqlHNHHmFQFyt7Uw+vEqoGWh774NJJcPtyNA50oTK1+7is5cKxQFPpbsR6UCJ9zdyHdXSES/+oNEMQG1SaDVFChlAqVBWDQNXu09i47aXv8SC9BecOcdSOwpA9bODuxRG0glvCQC6bp6p3olBMTxGXRlGG10B6QXHEDYOpko169ZfSRRZToIKcekawZk4ZGB+2HT+yNNrWW/w09BA0O3NLQzeqAggh+i0mitOtfsJLNnAnbdwuIfXoAqNXKEHN6ThuFJTF5+zt/WQvHjVZDMAPRb7gQ07zF55Jf/YR6l/7IA4aT+sW3uN+XqJnyl8HwMCklN/AulUUgUG9ANilSdQmkSUJMApgdEn4lUFaivpKG+nAZNU5BfzqI5tMCdirtOxD8sYQkXTm43CUwzHKhaCRudJV1NQuhOTKxPy7p8jfUlTaewKaa7bnMtJ1j4u9whWPaDG4stujder5SR2jQCs7IS74dwahIMbpDWkNo9gfnfnwHx/A6W5L4hJAGOJOeDAvkDLRQ/VoUyvA3qtn2Aqgcb2k0Ty//+LFpnaoFIBIV80h/4sC5/AZTTB1k93Pk0bOimBb1NQyikS9Z2WFDHbKbC6iYLJG0LwQDqZN6rGhucrTOTYr9Jm4A8bGLwU7egXDgtKVqPNyY0yw9Tu0GgDfrm0ChAU2EpKTWzYcMPyZG3mBfimFh+X/UbkbzH9L5u22wYkLWHh4oWNR+yeb+jSyROLgv8IW5qlTJGhwZgNZddMCJmlgcMF8VKTY2hdaKK5vMld/R1EvolkAAR4OhR8ZHd38LwR2ogQ9ug7jgo3Ej7dBVLfzIDu2kFN+O3CRPun0gFpM3LWTTUGw4U4h7U8bMyuomMarqjJ9rihatjgDZlQ5u0oW3zN+j2jXQgtb8d7G+cTbGhPp0/6+/KGPjMzajSmR7lNPc5tIThPltNBflBm5lDulIMK4YRny8o/zz4FdHXcuMSZWbcjVEQO2U8ANo7CgAeDhKW8v7verWEiakptFfPBSMBQu1ecahvG8f8751nbaGEJvAcICTRU+cSV7Dlbm2j+OEqyOB2KNsOCptVH1vA2jdmxZvh8nwACn98O8b8onJzkFBJFIUiN9RBJme4YBgkMKGUAoG+V4G2A24/9QAGEr0pwmU6QiIOob6rw/6y722g+rVBaK+MgRxIBa1lY7MoIVELLLh5dx+TC8s6Jlbch22C7buYceLmXjilswnAq+szUvqky4Zy/QFZ+07+iE3p57vW3cjzfgnkZSR/NHOz04KVLkDJOJdiJALC+yDNVyxY5ZY7FhQR22wJcPTy0r3r10dNDL6/BmXiVpARcVSYlYcuoP6j5fgHQWNUMk5F4AGjeEP4iFqK3KYWCuNttxuAk089MPSbdGjTKtRNhFMK23uI3jAobNhFWzq5dIMR/Q77dFT+Uwb51A5UW+e8PbjtSFQBCL+AhE2HWg2Vvb/w1JIdG5ibG1WGde7VB0zUCwQ8/fv6off8d/FNTtYNyNrRoaLd7jzUbWRtrsAR1MKBggaQkOA9ry3PoziyGUZ1NgREjQdEyQxi9ZtXXPVQuObvUtP3rj4IQnV34Bj5pQrU7beDDIZtfhxTavF/P4nOpWa3fCYcD0TKU7YEi81lFFCkhk0M3VKHqlBXMVjPQwXqZBr6nixIDh4YXgQkAof3cL2p0dGZs2x0NO6igHS6DV3vQFHESArJUuQ/voj63BbQYMR1IliE8k1SRMHhoaHGMDpmhRMu0v25gT+GdDZuH7eVcL+Q9Cs1XhMookQ//uKldQNCOu0HFJDpaFRdLr14OKgX1CGhgnj1Bc7v0vICNu/fD7N9yRtsOT7k68DQPGExZ5WpR1yDRiKact5ziCbqNlcvfqgGdcftIAMhHMaVBlb/6hyMuYbbDN92ez+upxCL5Ak7BEXNWhg6UEd6zAA6BNQzT/SbB6FO5dxzMjCs0HYLh14P4GjXVbQaBO2minZTCxw7IpQIjp+TZ886m21iYLCOdDYs6R0lyaQIsMDVsVD5vYZ3RSI3FkJjGgQq1d1voVOS8CDiU/wmxHP2AWtdzej7e1HOlTsKYlPlUNK4vesCZO176SOgJGpaIVKYcRnVHbaSkui4tFRxYyfOA61UW0gXRmGbSyEgqggINYHaSQVaWmqrxZlXQpdcdHfMix+oQZ+eFOG4WsfyH59gIWQWrWTD81BvLFwSjF8VlAdx74JTEyqZWoW9TQzsa7ifq/Fqi9Utg1CniyAZz1wKzClF8HVsy0KjTNGsuCYNu5YAirAlqJDBWSDA9VsaNQ316iAGh5oYHm8Em6S0QbduPkYR5GgTpRBumnBqwgDxNmY+SJ9wxCfvfszEwv2ak3O9NnX+7OujIArIQ7Jl5QJBOVtGNqdEOKjitSWivDlEsDh3ATfdvB2d+qIAiPsxSgRmlq55EKg9ehrCf6lUqBPxnceCNxwQRsP2ap3zZaz+5WugpsX6kvsjkQRjWPmg2J4D3cfLJ54YaEMWRu6tIDVmMMVw/pTBPNSpCZBcyu3ATv2aMRreBAUaJQONsoHaquVmSH5cXy8jRaNCYb8CCqFDDsorOiwzi7EtTe7BhLmZhg9PDEbEQMMDw1r2tjbBMOcE4LAOo4cH028pvD716D8Zhmti2TaZStqmb0DKj6d/B8B0aEdziVfTAA7OnIL70qk/aLOfobkixjRbqNVTyGaGQEkpxlkHrKbCht+Uw78CKJJKyYlQCn3cQv5d48BIGIRrvrSA8sOnWOZXUm7ts/tBmhAK5jz7oBAiml5dSsvCgSaK7626z8Uxp1QN6k3boYwMu2YUlUamphS2ZaMy10RtpQWzbXNDvyPoc0LBVzEIshFmXA+KEBJ3eXVNRWFQRSZvwbCa3vZEfKXBPfngiNAQoVMPkMrYsBspmFaz6wc2o0mO7LnJOR7tbLphgLhwsLIpMZLVFyBrR9PTxMZvh+UL4RxxN6OHEUduPdf7zym5xUo84mZ+7y04ixeuzmDX3n2w8CPBWffbZTkmicKbV1L9CJIGkQueiDte1sB7NaC4P1jcOj6P6j+cdP2awITyoeBURPEhcTME85mtcNjQIHkZS8nYGP5IhVU+0jYYHGRwFOrkLq8hox1x3cyWibXZEmpL9dDmFyUwDN8G3UVEuPwpBd87zTO1uG1W5lPYuqsJs5UWM3RQCSoqRui8xwDjb2sW0TYqCWFeiC8jPHLyFjR1Xbrxxh6fumWd1eVa+wJEI/QBKKRIZc+c0KDJCPGcHl8hAjh8E0toxu1JslMCK9TrVOW8QBMrS3WMTm4B1a6IvogC2A1fQZI6VSFaSeg/DO/fwDsJ1Km7AMVtDtE6MYfq904wOAjnYxBPHYjqmFPU/a1wkPhT4k5ZZuEc+dSEgZFfKrMpW67qINtuBcmPiOaU96Za5QbKV1bQWKmHJhR/8YQDgnJ+glA/wfVIE/wRqaealzotBWarAMO0Qp/BK6wgXoFnToXAhHEA99gKi/JuYv6kbVvdnT/u2N2URdcd+7IIy77WARviU6OhsOYstEtzk56ANI+mpy1C76c0akUIvzlnHDIcQvsrynUSQvCBFHhdtUsrsxgY2o/U2CKI1uEAodC3GWidTQV+STAlCXUg/LVSQN9EkNp/OIDDuLqK+hOvQPH8DaZyfkM/3qxSPSVRuD8LkXCy32Awu6eF0fvKTEFYym4GGbktrLPgktnqYOnkJbRK0VKS8tnIf04CENyWnO8hONJJLUc9k8qobkervcq/SPHYAjThQ6XBtbjLmDnEQrzV5EpCoG9vxNlKS9mwy8MwzNN97bPeZNPgb+OA2Bp9IDAfBAhoGFJk/gWRTBwiqIjvK7AZm4OE+iUiCUqohStnsWPgMEj2J+5wQJ6zxr7emrZjGjRyTeERAwh1983fcwDQ3V6A1moF9e+/AJKyg56P/kcwA/VwlEHlFEP+I/zXN91bGXhnA8MfrrjndUB0TLncdu9eQzjMZhtr52dRm1sJr9Md2iWo1KFQxG/WMN/HBCGm+JIoxAq+bs2pqVsoBcLS2YxG61QwikpoNYlFoVAQApJJRpHKWExBmu1VCRDa1YxKSg4csPIA1W+YD1KvqW6Yt0tPgK6ANH+cnrZNej/7wRX6XGAjWEC4sG4Iiz/ek7elTUJIaDhlpo1XIjkTy2pi+UoDmwrTQOp8cD1WTXVNLDWmSTzhRmCULtI5VfbATpCBze5x1iqoPfYTJ5tCSft5V45ahf4GA8V0oSCKZ2p5YLiFgBu5GPlEDbkDLfe8DogjhwMgPWcJtmGicukqypcWYJsO1HkOCi55USMq+MlOcad65+RrrXuE0wJH3h+TjAT33G61YBit0KwLAgBihg4+zUzjYUl7DnW7cxyyBG0k0qumKKjpjmbCvklyA5LtRdTtjfogtm17cEghTUk9gocmL/fhsEk4oIAPCQ2d86CPhDfIg7OgVr2KzOw0BneVWB8DdrFDluukc+HfqA8CUc6dzQcGkNrjfqGFGiaaP30FRLFA0p5dzVTDazjohXCDqcX5HqavHF79hAcGyRAMf7SG9DYv0+a3A0P7A1POT43lClZPX2ZmFWjaBd0v/eVc5GVGImiD98yYLdcnFJA+5OmZkm6oGmi01lzT0ne8iaQkPDBBND8KS0obBAw9OF7/Sbw7P2XzJnP4DavkXp/8bHocq1eq1xXPvHKthof/h9yhX/7dRqS5SXcTi9LPEr5dt29eBfmPc9IJVxcSC4dvWoEzq/xxsmhgXvMto1eXzkNL70Fu6gWAdFwQMlz/dTXeQQ+DLS6ImdtuCW6p8ZOfgraaIGk9PK8X72OQWDaIRb0OR9yf6amH6X0G1lMQB9jhj9ehj3qdbhyTqnCT8BgdINbOXkVjueTed9AV13uMkKNG4FZwXjl7QAYSO/jwki407CWcSrrgO3BkMqNoNEsuNHzzEdIFjIjRRFmL6pSyBa1OFZZtds1S0bxNopcPuCOaGJtgmKWoCtG4PRANU8efkKVOx3XQ3Zp0wLRJbGVhIiD1H6r3KYRMB2az/554n4JCAIJXER4OoogmFbwSy1cLP0pIvMzA55OVhfPQU2+HvuU5KAXDU5CEvuvSA2FcDg5DHXGluv3qKdBWGySdCjOjTcOAOIv52cEfsWy3QtD0B+AiXLDBgcNC8QMtaCOWqxajbwfSo8JzrF5dRuWiY05ZIIoihGeJF4KlgVJEW99CsG4NELTElXFQQFaLsLmMYyr6YwerAzlYjRLXDMJ/blRQEgL/mokAEPVCWflBA7S9DbXmUqAevWJYvZamcyZoaRPaxnNRBfH36TKCXDxD4Y92m4ROur0BE0tR8D4h8EARC0WwPpBeEg4e4CkHtb1KQd+08iusSPgZDOaHeC9CCG/CwOLVGWxSboc29jyUvFd3oIaDzQltsPh9bSC1cxf7aS4swVxZdZXD34C6gLCX7QHiQuHAYYGaNmBaAeS8epAUxdA9HWhFO8bfAANi5dQltMueg6mQcEwFCiEaRYKxSmg0GusXTKyZbzNi30eg8JWCclBYbgthZ2qbroJkc8NotEuic+77PREQ+JJZVhGKbDbNzKFa/WRClK1XEjOoqlHoZIxx3TaWkv2YhJPEZnd+QAun4KqGDrrNtQeVUzcT60hAqVc5RSgVSxvf3o+BIohU+VMawkFoaFqBg0PoeCakDpbmLmCc7INSOONWuMmtfUnUMVfyo1CGRmA3GjBmZ1lPxCAbeqW3O+XUw/YUxIFBtViI1/FXqElDOHSCgXeY0IaoC8X4uwR/o7VWxdq5K55qcKYL5SK2NjgsOEjkiBTboQW3HTzXXFyCIgSDeA2AQ1OKTU246mG6kGhjOTRa5cAsJp59K5hUspJwsPjmlbN9PrMZRrWFVrvWtVRPTqIfki0YoJ1J1kfFsJrxplNSim0BRCM1+8wH8Rx0mybykQwIIeQQ5cHjz0H4uDzh1MSrKEQyHPB7yBERFNIjGEOIgZWFJYwUb4GSPu2ZWdz4WXxozVMPbXI3W2RcvMSuQ1F1/xmGNn9gYkmAKBZgKW4DI0eqFJPlaqJRFA5RqAM01hmvzC6gvrDq5infpAIiI5tQJQqJENNl9+EU+S1QlsvBHSecp9xXcakXpoYEhu1F4XxIBkbG0eiUvMaOnLnEtcBNggEQzauBYgekczNq9cW+B+tAJKOLfkhuwPRCxle7NFlJGGaVJp0jTM0mgWG6eS9QkAS3LhaQ5o/VI4SHgooZMLa1rNdFgTVGtDlIqFcL7V05M1UCIHxfBJJpJTkSwXwHa+XLKAwryORNMZLlF9T+p86UHJTCCMyFBVDTYGPoys3AgwZ8oTEa+iBO5rYsrr4DIJqF3F4Dat6LVA2Hbbksw0T5whyMZhuKrnmOP/VaCITROgEKDhJerNnVmS3A7nhFIuEumYgRKZuDw4dCVg2LsK9WOfMKdKhDOjr1tqT84AIcMTBQEpjR/LqBoRyrr1gpH4vUpXTLpLGlvJdyBYA2NqHVeUGMiMkHo6RrEDkJpnqDc9B9FUk4TryCaFyDPN+84jxLCtGkIqEH714YD0nge0D0P8CZWP4Nyb3Q/NsjYrHQqKaZeZUb67iQ8A+ORZ0olOFp0FYL1tqKO6i13yycs/t9H0QwsRT3jyoWiOecsztUKXI7O1CyUTgcKKpXlpgfo6bc6Jgz7/hebGq58yz5BYkf4hb8OydTt0GNtkeKInQxD+oxbM6MsiUoLISOOGdS+fMjt2xBpT7PMojvM1K+ghcICwTOxPJbDlMOFEUDCumdaJZr6LCxQkno2/FK3ZfV5W6kpy2ktQm2X6uzIo4jGSsYJH5FF5gqVSWIydieiiSlWEA0zmfhG5BCiI2HUATDYfqRK0ByyOOG3QxDu/5T7FqlxH1Fykmtqs5urjDRFgByMjKrBS9MwLw6D6JroQp4N0T8GwoURHGfluo56KY/dKgVnC891oCStSNwtCt1NFcrUFQVUBUXCh4Qy4LN2mtZDFzK2fwCHIYJq9FwgwXs+pTQAQ8iUgjqL0LFEE0qW/I3nKntzRdGh9HW6zBrlidMhLMGuOik3yKbhI449TOZ96wdUIY3maCtnVhZe41rJED4POnNyGvi3q87yQ0aQGcTOmbZbRXsFBI9XX4i5hF0h6lcUYLoleCox6RkJ51Itjrh3EkueOUriQCJZxsTMTziOuPeR2FCs8p3POMfQggFV8fhvUSzqaJ6JYv85hbUlB08GJKbAG0ZoLYJoqueHwHehuCApW6UjT0lxfU9vJCum4EIUsM1aAOdCBytUhVGvQVVdx8j9Y4FBodTStmBrW77hYwDIAnhoKYFs9ZgFZguEOHQrQEQ1G8V7ysGB0qMavhAUM/3sA0w/ys/VcBy6QrX61CKSJLwN5UrfCGZV6AYzE/DapsoV5ZdU09+cVTOoIg45JAgGhzusJBxo3WOsyjk8KS0NDgGiZxDTp0OQasVwkGpX5O+DhPLNK0LqqoGHaGELsg0dMTZw1LcWmgBElBhyM1ANYjc9iq8mdjPWvDmZywklGWY+nwG6aKB9IDBMoWiD8MqrQZwEL8OA5Ik+pB4cDD1YCaHFfSUUzN1aAMNAQ4HhHa5xvwORQ8HlfMBcf0Cm7Fme0pJqB22dHZObdkwSg1YjU74coMwLReVsv1Ohl64todJZQvmlaMo7v6b3rYZK6VFt16HA4JyPR/dadgiW+wNKirK0KY2NGs31qrLME0zeF/dSnDhpRIpGueFdwcK46BlHfXWouB/ROYIV6RGzhU11f0lq2seHJzbyf7W46Rn78aFpW8rFwY329OEI5949icNTuqBEQsJOCDEuo+IidUlCaUM18whtJjc30ZVg9VSkMqaQFb3OlR5USiFCD3x/IdHPR+E+N1qSeiQU9ajrQ09vyoqB6XoVBvswlVNCxpYUr8+hdi+ReTybFNvBBf3GizDRmelAbPa9g4nh2kRfCI7NKcQfE66u7/hAWG62/ovf2TnKOoow+yYQf+SwO/wgylA+Em4iKqILSaoQjA2vhno6JhfvBBm5IQWM7EvNebFD460gPZOZlp1OtVIdEs4YIK/ih4wlStEBMODJSklmlg/+POhY7/wb9emAxWB18RZiNxzZpQ/aLOsGhBBIeD7FXQbI0k0XHnTKmgLREIHnr1sm6DT0KCRBehDmwBNdUOtXCSKVxBCw260LIMLGcdGSrsqKodtM5OKZXZNDaJxTD0IjdwXO6YHp92x0LhSQWetJTybcNw33s+IUQwZDlOekrDxnR0K48jUKDLbU1hZXONMKL7Q4bomUhL27ZfhUMJicXC4Bc3ah9W1ebTb7a7eRWDy8NZAQoYcGrGZT1Nv+tDF7CTtS2LMr24wraxF4XDmf+vf19c3aMPlV/Qnq8vqfQNjFiB9lSKKB7+eCxsK5hWCGGaoHPKwhJDvPnCtwFtIPBRcfxM//9utVXSMMvThLSCFMbeyTpEUxDevFM+p9/wFP7/o5AqgFzg4KMyW4aoS9878ARHYXrbr3Pu9J50/s2WienYVrcW6ZyMTyceIgcMiwWg/ARS2pBg+HLanGlwwzp/mRwoY2j2Aq5cvhT0TCe93cEECwr0jRVaO0NR2CoKJreNAJ4+VlZlwgOmkjETk9xyvMqpuY3BwDLQClGoXQ1WSMjmRjkCjJ0uEaa0E9qltoYLQ3mBTE5WQJ376/+Zx5P9XCU4dB0bE3iNSKJcHhYCLpyO+FSt3r6ITRgXHUjC1JEjcaIYJqzQLu74AdXgSysAmb73/iP0wr+3Z1+GlqmTe9V/G3+VuSylrpq6wD60rwTIXivDWqWfUO9dkNE2UTiwz1QieBfcJbB8GP6DBO+KiasSYVRYRlIIHw1eO/GgBO961DedPn476Gv57UqTMRLxvmtgSHNyy4UlHPd6Baq2MSrUck2W5V5bs+wrJgW58ognaOIy2UYVhtL0GdlQWn7BglZYIJ06AaWWVg4NXEZsmfoYtEZD/6szVY1+hkxfe9RvV6VSORppFiOqBoF+63wjRz6iBoFCutph/iBIjRL5/QMj4AITQZAhI+FuAxm7DXj0PWr0CZWgSxAFF0bgGeAjCg6zwRBUKXQFGvOYjzv0ETUYUHy2voSFx60zs8BjNhTpWX15Ec7Hhv/1gytdpUA4O3hHvCgcHQCwY3nxhrIBbPrgLp185ycK+RFYNwmVeXi0Qjt/lmpsuHKyVswfPps3TrGLw6pWXo5Er7n3JhV+iL+I9m01bwbrXliqvcj4NCUbHSU6iGUYiShWuX1mzRDg8FaE2Ej9A0qNHIf3yj/5q4MEjv1UJfBAREkgqIfocbnSYt3EhygKVlEK4Zw6kGOUAF82KqAcPjf/baoOunYNVucTaaJHBSUDPO644qNsEAMQ2oXQuuGaVPshuwHYUhvt6PhUK3bAyo3xqDWuvLKG92goUI4jSUNkZT4BDqt8Iwro8DDFA8NA4cNz6sT048dxxWJYp+R0kCgp4IBCoafBNEz94oQAT0y3o9m4sLy+gXCknvDeEisnnJHlTTl0GRtpIYTdrKl+t+y2CPX9CqklPNoa6C9ZqyUbHkODwWxYBTyYdsysgppH66ukf4IGDH2sUR3aYnh/HQ4KoshBIo+rxti7vA8QPyxPs589KtegCFIiqhwAGJIDYdZhAfR60MQ9oGZDsKEh6GFQbBGlfAQrTQHbCu0TnmIrw5EmoIeiU2lg7voyVF5eYE+7uRILb838HysFHp2yI7adsUSWSoJDB4OGYvHUz9r5/F47/6FUYbcur7+BgUGJAAUSI/K7Q/simnoOezlgYG9vJOkVdvjzrXrf0vpKc77h3y4f4xyZN0OZOVBtLMC1uwAcZCCo64DKC3WBaWKKxcLiOOlm/ieWkL1y8WPrKzVu+fPRPhx74hf9pFaks5SBBMPZV2PPHqwiEBAWVVIF28+qE58PNyD4IxA5SsWCIvwM18Vm1WkD9MojzF5R+HaBCQbPbQLQcd8KwcrN8qoTVl1ZQOV2KKiJCn91fxo87LSoHCQZS5Cv2hb8uYPAAbd3vwvHy06+iXqlzZhU3NgCF8BFUv/KX8gDZnpoooYHiXOfWW0woxs2Ym7uKVrMV+866uJPhDBXXpHMWxsaHQSs6VhyfkXLFL41GpIJjUclVJyQRJsuiWF61E+Bgm2wMELBh7VNfWrlofPbHfzUwfeS3ynxVYMRVD+pZfVAIoi1Ue+mkt6FQZcFnasRAgfi6kRCMeNNMjpCx1F5hf6TijaSh5dCuF1A6n0HpfJqpRqfUQWRHGk6D5iFcgCtoO8VHr5AMA6VdwJDMrFvfvwvbDm7GS0+eQK3c8Op8ZOUIfUTwo+F7LXpZvZEdDpVK7BCSgbE2hnK3w2iYuHRxNj7q0+W1SkwIS8e31UHrd6LeLKHZqiN4K0TahQ9MCeuSYfJnF5asKBye/2FZtPTf/N+VCwmX3hsQR0X+6JYtXzj9g+zDznN/32+WpZBvCIUQspUVRL7THknMf6J6IA6CXmAIvkwMGFKy2grWZjJYO5tB6Zw3tL8/UIIcLuamPhyCQ86DIkMhbdMVCgkONa3h4Pt3YWLPKF78/gnUS/Ug4wtNRahkXvGhIQEUGo5M5EGipm1M7y2yARnOnzsDwzCTQehR8InPnEDTbWzZOgQ08lirnPRKc+K/osTjEi6fdYPJ33dh2ZbgCOtCaBf1QL8Dx/2b03Pf+uM9k986/YPsfc7vu3+tCjeyhVhQAtHgFES0suKeJI3KKGLUAxDUgoegHzCA5D49pgPF6QxWz2QYHOK+CQ+HL9k4CIQpB0YEBnRXjyQ4tLSGuz9zELnhDF547ARqHhyEcCZsAArna3gwED/S5MdYfP/D9iDxdpm8pQXduhvlUgXzc0m9+8ICsRsjcgm/5aYaVPMOtI0WVkoLXAsMqRiVQ71BXoiBSXpX1YqFap1KcHAOuk0SHXSsZ2zedkb/XLrdOXLmqWxx9ZKO9/5mGaM7DMHEgg8KEc0pwR/vQ0WIJMOyUoBTCyAhyhUHBqIZ3WwpWHGg8MCABFCi0shVOHFgyFAgXi36/vPgGN1RxDs+dStM08Lz3z2B2poHh6cSVCpAQtszCorbAhscFH4fHmBgcxubNu0HbeuYOXOCZahYADgroV8/xFGPrVNZ0PomzC+f8p4PEQ7C79MbGO5c3MZMPZLgYKpCEz8Bje5GRjT90b4t9ymEPOxnmlvuaeLwL9dQ8Eb0EKIIcQ+sl3XVLWMSruySgSExte1I9jNq8zqWT2WwciqD+qIu7ht3HUm3QEWrMkk5ICnGRiDx97nprknc9oHdqK7U8dx3TsA0zEA5CAdJ3Dwh4Sj4hBsNhsQs0zMWDn1IhdJ4Ny6cm8WF87Nd31lfGYnbaOf+Mqa23QGzOYKXTv04eLLdTN8QmGhGIjHncJzz515qxMLhmFyWhdK//XppuNslr+vzB//mtblv/cmtk18C8HnnOs48ncXM01ncfE8Tu9/TxMSe8HvWQUeb2LvonWSTCvLDk9QCXcCozusonU+hdCGN0sUUUw0+msXHDhItwODGhEmicnRTDcT4Ib18Ei2n4o5fvgVbdo5j9WoFLzx6isFBiBiZ8t0+wccQnkuoGuyXpyQ06NTmbnbTnTUozQ+hVq3j/NnLyaVGpCCk0c2IuIqpx05XPRZWLnkVrSTcRMr/hESfeT/rri4YMZErDw7X/+iqHtjIF6Yyuv7Ftmncxz6F4N28A8nMD7MYGLew43AbE3s72H6Y+8B+eDsxR5SfhjTbRUXCZf48RXNNRXVOZyqxdj6NtQspMbSLsDUM4UYj6qdlMWJeIJ/h5WkcDLJP0g0K/2987wDu+he3QjfSuHxyCS8dnQkUIxg+SOGbkUhQKOE3Eok3JkAAhB226oBnxm25tYrhwduZaXXi+GtuXWGXVxZ5gQmZ1j/Gtj01aMbbYFom5peuulGxYLdofqBU+CnYwDQBJgSASK13OVgopY90uxNsBJDPvXSx9NRdm4+dqKnTfAnhzNeWVbz2WA4nH3frD0Z2mBjZYWBku4nh7Qbyoxb7k+5fmpFX0thtKnM6zBbB6rk0mzq/q3Nuk3cQEQbfSaI0Bg5IAbiElAQGEI1QxS2LQJDktHPbankVt/7SNuzev4N9qu3Y92Ywe3IpUAia9DUtCYrI1B+DzKbu5w69yJtz4uJEG9P7NoPWtuLczGVUPOefdnlN3e1QbrFjuuk2tt+UcX2PpUuuiQjezyDh/0gBKyp8JFzAvdPlVQOGgVg4LG/eVLr7H9joV27HU/TQdJbiYotAhiT4SYC1WQ2lyxrO8+2jABTGLPbnJAcY5sMQ0bfwfUujSVC5qgeZfuVsSmxvBQg16EkaFah8HBw96BDWc0oTqx69olddwOCBGj8wgLf/+m7kOgUYVQtPf/MEKkt10RFHjGmFGHXlQreBakBUDudP1Sn2vscErR3G2koFZ09F/Q45EpXwM9FMvemOMjTjTrQ6bcwtXPXMq14gxB+bHz+YSMeYnetE4LB4UCwc++I3y4n1H37aECAWyPTWrI1lQ0HD7g5J5L4IUF9R0VhV2fqlGc7BlDO7pASEa44OvlULjXnGlHvwfCRtPXBIZlewbRIkG3DQZZXRcyoOfHoSN9+xHXRFQ3mxjqe+foJ1dmI3YMdFqbz5BLXwo1Q+CME9cH13HL/gtg+vQWm+n5XqLz57Cv5nPnq6jgkKLCt/tmBi+85R0MomzF45A8MQT5AMAufXxMAEiK2bltYMNNsJTUv8eWr/Ra/bwkYAOf6u8UOW9zJvztk4XlfFQbfku+zXMadcScgt40tGytmyXboRh4ejnI0ugSXbtpGd4xxx9HDKkQwHZFMrxvTaelcRb/v1KWSbA6ArCmaen8PL378QmoyUAyLOnIIEC5VAobKZFZpWu965hrz2TtBOHi888yo6bVN+HMLxE18riTzGIB14dwW0foR1slpcWozsw28vgsD5HAmxAh6my/Od7nC4TX2+lXQLfFo3IAZRin4zCZUAU0UL50uq7EvH30RSioEjcJ4RX+ITSST84/BA8MvAt3hJgovGzPKwUNEXETI+wowO9AaDByk/ruOuL2zH+JYx0MsZGC0Tz/39aVw9s8qZUWJJyw7NfS+SBOOSxcMQAEG49d7frrvXsGlyDxuL6rWXLmBlsdL7la3TxNo83cDw0BRoPY/TZ48HzVVCEGji8eNA4Pcg3PLlkolm2470GOTnLYsc+1//trd5hY0AYkLMNJM7DWgDbcw8lUu4o+Qk5WPfJw9Vg5vvZRZR+bRUbH0P3q7tAQekd5YERWQa46jHggHfnFJw8FfHsOfjm0BnB0Av61i8WMFz3z6DerktOuDROwyT7FNwv3kQ/PPzkEzsqWHrzWOglVtw+cISzp2eZxvwmS72AfkppvSHZF5pKRv73tEBbexBuVxBqRQCSLkNe4EAxFQiSwXe7EJbGLU9DhRQfDn+ZqJp/YCYCMabpewDiMBdv1bB6kUda5f03geQ1YJyDmfcfAwkvY7PHwM8GJCURL4ufrYbHIiqBRDjh8SoBTww9vziIPb+4jD01hDs0wNsUIYXvnsep5+Zk8AIkzjsjnTZCaoh/xEOki17a9j3Xhv26jtRKTXw6gsXg/Gt+GcmnjEmxazin+0td5SRJbeDUh0nT78ifoWuJwjitqEFEZWY5VIHrXZMsxIJFE2x+jKvsGEnnXvZnbqCVM7GB7+wikf+x3F0GkrifnGlvGwKBfURRBoCOKHwTwQNkoMZZz7Fq3s0hCvNrwsMiIDsujeHg786hPxQAXR+BLSextp8HT95eAalhXpUUqU/olAxegPxGgAxMiX/+duN39TAviM27LX3w+hY+NFjJ1hDxEjqFeLtugIYGu9g560Z2GtbceHiZTSb4iAP3UGg4uF7wHR5sdMTDsuiX/13f19O7EEopw2ZWPzLr1xyD1EYs/CBz6/hO787mrwzrx7SvDwWtmAOdXPIZcj4h95v5V8/gPTjnCOqFv70pnszOPiZAgpjadDlMdhnh9BpmTj5o1m8/P1LXOiaBE45nzH55yH36fQLE0jACqrBpYHxDvZ/sAK7/GEYbQU/fOyE4JQD8onDR40kHhIgOfT+CuzKvWi12pidnYuoR6QSMGZGuM+Y8zrHuLrcQrNjcyO6kGgTE/Y+lL6iV37auA8StkzA0gsZjL+thYm9bdzzr0p4+j+GH+uh0hcTgjvuBkcP1YgkSZoitavcZkn7C6oiQ4H+weD313MEez+Zxr5PZpAqqKCVYdhnN7NR4+fPlfGj/+cM6qV2F1mV7kG4Tq/TARGvIS4T+eucZ+rAceenVqE07mV9y5994gTKKzEfyezy4COgJGy79+4SG32ROeanT6PTsUTjSJL3XiDw988fw7Io5lY7glLQGDgsm1z4/X9Y6Vk5yKd1A3LvMwtPPHbnhHBDFx/NMUCctPueBrvop/+D9EUrGtJO+oGjFxlUchApYhxLCNfJ/5CXxf5eLyDeND9OcPs/07H9HToDA8086OwEaCOP2lobz377HGZPrLLDxtUV8WORIaIe4Ya8eUhI1IziVcVJA5s6uPNXPDjMIl744VkszVXCEyc+tGiSu//IaWhTB3vvJLBXD2BpcQ2LC6vidXPHiZxc3iYyQwWYLi+3YZg0uVkJ9YdHol/sflfRtCEfxLbpMep9P8RJy6+lsHoyhZG9bmPF3e9xR/RwICEyFOhhVnGpp2UlKwf6kZs+IJHDuYgHAZIfsv3tBPs+oWJiv/edajMFenUHaH2IbXPs0Ut49emrMFoWuMLfnfoziggJINYJREwtvrVejEnkK8/W22o4+PEq8zkcOH769FlcmlmKPJPYFBNy7RYw0TM27vjIMuzK+2EaFk6+doFVOkb8jVhYoueNKku4Ydu0Mb/aFmCIrf+wUDIy/Tvnftqok/4EBQ6Byzyv/qdB3PO/LAfbOJCM7DDw3d8bDR33XmZUP40GJeUgsUWNtH10NgqJBANiwACiZlR+HLj1YxS7jihI5b03aKRAS9tBq2NsmzPPLeLFRy+httYKVI6ERpJ7H0RytL0roFJDMaECjUgWWYJNuu2gBMdTZ3GRh0NKkceY9AwT/I59zLS6BbRexMyZi2jUvGFWZaGQfgt1H33Ccn6hwfp10KSwrgcKBb785Uf6d8573GL39J3bN09bCjlPvUP4Tun2e5o4/JviNThwHP2DEcyfTEkdm7zZmGUg0sUl/O52I7GQdYMCMRAkLCuMUey408au91GMTCPsRGHlQEtToLVNbNu5mTJe+O4lzJ8th/ca6U9PIs1rIPThIEJ/DmE+br3C/anAniNl3PLeRgDH80+excUzS9FnGpfWkzu8bbfe3MDdvwB2vtXlCp750Ynk9yYrU7f1MetKDQMzC40ABipHrvihfdrm8JeffJ0AcdK3Dm15iAD386Ws83fbr1Ww+6NRp2/m6Rye++tBdJpKFA5EASExV7me6IlMSJy9LJtksSFd719hzMb2Oy3sfq/pQeHbQwQwc6CVnaA11zdzwPjpdy5i7mw5cKSDDBDT5gyECNBEgYhC4G+reOv8S1E4QA7/kxVsv70TwPHc0RlcPC0rR5fGVknOcsKy/JCJD31uGWrjQzBaGRz97otha130UdB1Wy/BZFKK1+ZraBnhaCWJKmLjq196bOVzCXfZNW3IxALLQKkvDG5PHynNVqd5SF76q0GsXdTx9t8SYXVMrh1va+G1R/M48WgeRlMJM+Q6+mNEL6SPVXGw9ADDSdvv6GBir4UddxoojHO5Gt43PDpF0PIu0LbbKe3qGQ+MM+UgA1Pei+bbgUEyMaXMSJNMJ9//kFwPPjk+wLv/5QKGxvKwlz8CUB3PPj6DCyc5OKQIUlKmpQnLEVOqv+ufLkIzDoNaebz03Gl0mmakEJSPGVcQUnSHxVl/tdxGq2NH6zt8h5wDharqup3zLrfdf3r5gffdVz6z+vD88WWxxAUw/d4mDv9GBXou+ukex+xyQHFUpbaiRh5SN6XodsFxPoawSAZFAmNinwOEgYl9Jib2GaJK+MU/TYG2JkCrNwNmlu176icLeP7vL6G62hJNRv+aA7UQlUIwq0BEE0s2o5Q488pVF4X7XdzawXv+1QJ0bchVDqrjme/N4PyJpZ7Ptu9nHrP92z62hpsPjYJW3onZ80s49sxM5GUm+RV9recO1TAtvLZU88yqHpErSr/6B49vTD0SbnV96bn//t0PW8uN+y48Oy9EgpxpccrAXf//MoanjMT9L72QwewLGTZ1wImtWe11tT2kJw4M1pFrh4mRKXfqwBHaQCQ6bxZB6zcxOGDrqK60cPLHC3j5+1dYSQnZn0AUEsJVAkZNLRLjf/QGROHMr933VHDwk2vsEwJORu20TTz+jVdRWqr39RxJXHHe7bl797DzbTXc9YturXx5tcMqHlnzfHnfrj4H6b6emz+5WkO9Y0XNKipWDlo2SqqlHv7ykwt9NUxMuMVrSw/u2Ty959DmFye354tnnryMTsN9MDwoBz9Vw96P1ZHKd/laIoDVSzpz5hdOptl8bVm9pmvzVSGVtRkIfketib1tbiupmOfm25UBtFe3opDfyRxwJ50/toLXfjzPpv7uRJjGQxIuI9FlGwAk8DUIYU197vz0Cib3N0DrB9ifA8djX3sVaxIcifZ/l+Xd9hme7OCD/3INWsutWzn67ZdRXqsLO2/I55DXe/NzjTbm6h0hpEuTQryUfvGPjq78TsKd9pWuGRAnfXn3ls+Pbx948K5fmMLMk5excKYkAAJWq2zj7Z+tYPeR5rqO7YDiKIsDSy9g+J6KIgTdEg8FUJkbAtqTSClTSKUH2bLl2RpTi3PHVphyxB6FJEASASUJEGldAiAhGO50eJuBd92/hFxRAa0eZuqxtlDHo3993K1vwfUxoeKWOwXPJ78wj5x6BzvvT5+aEetW5H0SfI7Y9THrmpaFk6VG+Gl7PoxLI91qSzo1dm4kctXtEjec/mDXlhdByKHbP7AVO/YO4dTRK5jnQIEHSypHcesn6rj5SAOF8YQPw72OqbqoghqbQdtb2ddVB0YG2HIHiiuny3jp8SuJUMhJhILE+xqcWqwHEBkM52//R8vY/+Ey84v8SNXsqVX88NtnWDsvxJoy/AV3uxl/tewohLOf/G/nMVzcybroXjy9hOefnOlhRmHjPgkBTlXrqJt2QkhXdM4tii/86ZPLX+pyh32l6wbIgzdPHlIpXnTm0zkNDiibt+cx+/IKLr68jE7DisAyOm0wUKbe0WIjorwe6crxNMtIqdQYG05zoDjKrpetO13G+WPLXZWiVyJ86HZdgMSYWP7X4/gwrwIURk2885+vYnx3CzCHA2f8xE+u4rnvnpcuKOYau6zrth+4TPvuf7GK3Yfz7Nyl5Tqe/PYJGG1zfWbUOpz0hU4HV1ttQSlk1QjaYFm48CdPLe/scnd9p+sGiJNeeM/E0afnlSP+byfj7b17M/trrLYZKHOny0Lm86Fx1GRyf5tBM7rTxNi00dNn6ZYcENp1wjIQrDyoWUQ6NY7JW4aCbXyVuHK6hKuny2g3Ylq0rjPJmV5UiD4BCcCIwrH3SBUHPlaGnrVZBySn9HbU4tnvnMfMi9FurMkX2mXTHuC885+WcCvrR/JRGC2CR7/+MureR0n7AaKXzwFJfZq2jVPNejRqJYd0PVWhlv3/sXeuwW1c593/H4AAeBElxoRESZREUjdKtl6Lvkmxx7JEX97EiZXI6dRqpnFi5Us703FrutM2nU5rq51O86kymw9tLo3JOo4TO4mlSLIt2xLp2LUt24koiRJFSiRIS6TECyiIN1x3T+ec3QV2F7u4kACxoPCfwYBYAtgFeX54Luc5z2n84f+mV5SY4ONmThceqLreO2Wr6J2If9vyymKsbahEXYMbSypd8F6ZhvfKFLyXpxD0CxjqibmKakvDgHGVSUdYMOqu02bEBs+5UF7pQvktxXAWlyA4WQ73qkUcTjUMbPCPXZnm5xm9PJUxIPRKF5C4YwZpXPazq0zEF7/lxarb/VKqWY43pq4Hcfzl8/BelQPjBPN+qVkMYvw0+eCGe6ex48mpqEvX9ptzGBmcMHxuUvBSBKYnOI0ZQTSMN/RZLErpwR++P/Z4gk+aljIKSNfOKr513wfDdgSSeEzVGyvgXl0G9+pFHJ5qeTAz6zLpTR5gO0vtHAS92OsnvEFuHUL+CAa7b2CCv+fsXKZ0ldBtMoGG2LQumTYgJ1jd4McXn/TyoJi7VBPb+eAcOOfF734VizfirgXpWRKj36l/veG+GTzw1Dio70Hunp58+xI8XSY1XUagGp0rCUxDkSBGhJDGUlBq4FbJBYnBolBd6xwDc7VmPZOuV+fOWLeTTRUiOrzmKwvB/X0fv+nFgHGVSJfFIFi6Oh4CJmYFWFyjfr98UXTgktiD6EPV/EiZW8B93xlH1QYJbj6/MXknjzc+/m0fOj8YMnjjmOLqOFP5OjR5j8o1YXzxCR+fX2Fw9J0bQV/niOFrIF9//PSUiXkzOTYlChiJhLWWQ3GjjLJYoPszCQcyCQiN2CpEeS30YgfFGjfF52PpGyj2za9WdL4h70S0PxHtjehdC/UBAmx+aBK3756QrAZzqdjADFbz2fp3Ws7CO2SwyCnuhDHFlaSkAQuD47G/GYUDGzikVy6N4+M3LyV/r7jjJvsjGBxjX30eIRCLLXTxRpwVEdD+k4/mnrXSK2OAKCsNlcre+58Bfv19IDiVqTPkj4wGPlF79+rjRGs9lm8K4p6913HLajnWCi+TXCqhDP1nvWh/pcfUpdJeRIqVbUlAqawJY/ffjcFhqwGduAPXR6bx4dFLpo0XlIfU7L1Nsmr6UngPDSAsUo0LRVWwaKyICF9EtM26nCSRMgoIUS07dZaJePhZgqP/nNjVWlDSDHxjK2F2nP29tn3Th/X3xSwDnboTdGYjj6XaXj7PAUkratRlhQyRSfB+7powvvb3ChzbMXUjiHde7kQoKKR2nhQsixFMwwhjQhSiLlXUcqjjDfUW2CD7Wk/OvpwkkTIGCFN0R1YQBEZFrN1BsfZegr6PMpoLsKxiA58YwELiXC3Fetzx9Qnc+sgkz9JxqQLxoYs30PZyj5RkMB3lJhdj1uJI/zwDMTh2/8MYnM4lvC0Qs1rtr3Uh6Ddu7qA9j1nkrT2nEUxTEHAVoYRgqGMRkaKl5eORtFcKpqrMWRC5X5biYgVGwT/Vw8+KaH3KiWACl3lByMR6EKPYQ35OzV1+bP+mD4vc8qBjscbMRl5LxQbiZ0d7caZdFYgngUMz0aZfDGZ0vSZPcNeG8bV/HIPLKVUEMzjefqkT48PG/8T4gNyoWbLqvJpfx2gRQOEhQRkKLQwmsHTQQLAp8V9lbsqoBRFUMYhfBsRVBmz70wje/1FGT2U5xQY+iYdCN++xYnMQd+6Z0NaLqWKNoZ4bOP5Sd1xq2nS+QFbCxnr6F5s8l8HxdTUcfoJjrcZwKBbR8Lwm10jiTh+j5ZKNxR2qWXI1DLpOJZTCR0W6r/V0ZrNWemVy1PaLqqZpkwOI7nXc8PUw+j6yYfDswoxHohN+KteKqF0rNRjfmMAKNRiqST9mNU60noPntHHmzmwBWOxCElykwYv1zDA49jznhcsVg+Otlk6MXzOuCDbtPGNwPBlMQ7YwpimNBt5KlopqZs1V2zeLtOlnn44m3KE2E8pocPDetuVUAYTd33vAj2KpbwEv+2j9bolU/rGAZDoTrjq24tYg7mJgbNZOgPJSkektfF7jwkfD+ODVXmMfX3/OlC4svc/hrgvj8f1aON786dkoHHHz6ymmdpNZPXZ83Cbgsi0Uq9I1c6mUn0W0vPTZSFayVgaXlzkdv7vqFCGkQQFkw7dCWPPlWGnIWJ8dr/xlaSZPmVMlg2MlA+OP4sHg7tTknTwIH7s8hQ9e7cvcROcs/qPrtgXw0NM+LRw/OQvvten4t0v0/prsFEn+GgL4iYjeohDCoFEXiupcKt16j46ffTZyR/qfcnbKdBarHUo7IAoMvFWENV9SBgeBuy6Ch5/x490XSjJ52pzIrK6K3ep3zvBbHBhCmbSgiblTMxF8eqSXl9NnVGku7N/84AweftoXrQpmcLzx47MYl2u74lK2CeIN7X7lSVJoRIpZL7lCvAGDGgSz+EOg8BWFg43pfcK5KdOR8yGR4hnl7zE9YsPg74pQ/UA4+lfa/FCQ//z+j/PX3TKyHK4yEbd/ZRr1O6fjS/dV2SkmBsWnRwayUiyZjhgYDBAaXCUt0Z0hOPqjGBxcZoNcXTWiz5ilCBODIzoZqIo3orPk6sCcEh8lYmO2g3KTy82c3rhzuUfZAZfy7YspGpsn4CjVFjuMeew4+q+LMDGSX4G7Zr2HDai+LYhNuySLEScFjJn6aJzxyeGBeSucNBOD+avfu47qLcHY+nV/BEd/KJewJBgVcWs2NL9M/XWfO8Pw2oV4q6GeJVfPolPs+/kfhlvS/7RzU8YBOXxX1S4ikjZAmjDk68LvDuGeZ+NrTpgFefeFReg76cz0ZWRFChyLq0RsapzBpl0G1kKWurBwsOcGPj08YImCShaMP/K0j98rcDAo3vtlD7xDU5ohkTTATvI7M5hGHQKuOMIxq6EFQW85IFLa9Is/jGS8zioVZcXHObZjzevByfAepZkc+9DrHg3g/z1pPNE02OnAu83MmsytSUPWRIAlywSs3R7gYLhrTbq0MIvhrwP1b+TxhpXAYGLXz9wqZkF48WOgDt7BaRz5zzNSZxZFyUaFATmpwjReJOBzZ0SbsTKIP2K1V7TlF6fmJ2NlcsmZ10d/tb3WFQifGvj4akW0eQMFbv/2FNY/6jc5NUXX8WJ0HC7FmMcak4psQDE3ZN22AMqXJVjgonOlrAYG047v3kDD7mnNvEvKxY/JMrwpWRgCv03EpZIwwpBrqKjOaqi7lEjHDv7y1HDGFj/NRlmLko89ecfz5WLkuaGzUkNrxZLU7gzgnj9PvEkkA6TrRAmudDrnDRb2requi2DVliCqbwtxMJJKyUoFV3EwPB1eHoBbCYzFywR89Xvj0kpMVXOH7k+G0f7znvgXJMvOpmxdtA9DNooLpWFe1GpmNXSPOwI00HhonoNyvbIGyIGamoo7/v/SU6WiUNv/yTVdQ7kI7v9rH8pSaNTA4pQxjwODnU6MeooQnLbxn+ei6i0hDsTSujB3l9jgWZzIQmiuxwYEq/k3sLNoJT9mleBbL7VLpW7u0PZyDwck6T8/DRgSwSQQ4GJpGDNEl7FSQNHHHwI6AiT3cCCbgEBqBbSnuv4Lr6+/dQm63uqPNrgG75NFUf/oNOq/MhOrYk1Jsdwh71Aii8Gj3x/RrVrPLlkI8w6PicSgGOutkHpl2Wv4EmEGA7MWDI5cp2v1Yp91295JyaVSJQxCMwRv/fg8rxCOKpURkGide5L34XCUSXCoXSqN1dDUWdH+EAneYQU4kG1ATu1cUuGdLrk+Ur4Ydz1cja5j/Zj2BjTWpMwt4PY/nsLquwNwltH0Z7qyJMVqOe213FLUNUh7L8Z1VrSY1FkqqNaUjF2ZQtvPenjjCiMlTN9Gn5T6c5SnDpREMOYQYyDoZsg18YcAH2z2xtdOD2W9xipVZRWQM/cv2wNCXu/w2uAvcuCex2pgC0VwoV1qUaoGhVmRdTv9vPPiLWZZoiyKAcGhOOfkQFSurELdVqlnltJZ0YrWQq3tfzLJLQeXKt7wnPbixEvd2kyVkaILVpI8LUVQJDiozmIYlZLwn30Q7I2vnbcOHMg2IB33Vx2gFM9MRki0iYN79SJs312DicEp9J68FvXb1dmuRUsFrNkWxIrbglhxa2hO/bGMxECYGLXLVsKFieFiVK9fylsSrdy4RAPFXJrIzZc0gTjkWi/fDh5vfPBaL860JS5nSSlFa/gi8xdcKREw7BSjcKhdqrislQgfEa0HB7INyO/vW9ZGQXax4d07YcNoIHY6BsrWh6pRWmqXui+eHkPIL2h7+spFj4uWCXxCjgHDtOK2UErnnxix89aikPtnsYB/1OPgXVMYCNUbK/g9uxZmGYZ6bqCvY4ynaa0OhSKN1WB/Mrl5Nbv+N//rPHetUlYKoyEVmLxOCk+JEK3qVgfh8XMf1GezKBzINiCf3LfMQ6mNb7ATEIAz4/FlJezbmrkyaxvcWOJ2YeC0l29A45X7WqktiyJ9Y2wYbL5DVe9fuWoR78HF71dJvbggtxod6vHx3llWSs2mIn2sAaEM4o0dUZfqeGu3xh00/UfPdgSYvI7DUSqoLIdRxioGh0DtjYcsCgeyDchH9y6nVLWI6nqlAE+PI+Fr2Ld6df0SrNxYgcWVLkx5g1IzuXHpG13TWE5+b1epnQ9+Rey10r3UjE7pqsjcJn6Tf85H6TNUTEqxIXepXk1QIZzifzvh0xL8ciwZHOoslkB9AqwNB7INyAfbl1N1uUn9X9zAoX9fIs0lpChmAdyrFvH2oovdxdHjCgSK1K1LORCXpQGUb5YhkdZuD/AZ8eicjapfFgP+eGtP5sBPY2QQGY6+KBzG7pTqcb9IbY9bHQ5kodxdI0FlPdi9jVA07J7ByV8Yd0s0EhvsxoN8IKPXamUxIB5+2qeZ3VdbjU+PDPCJyowqjWz7qIuij8UcItEE5YaBuUg7qLO48dDpgbz45soqIMoadeV+cqAIWx+b4mUkli1MtJCYO8VcKXUQrumy6A3geEtXTq3kjJ1iwCVKJerQw6EDJs/gwHxbkOkxO/+nMzfh6Pdvyeap814KGC5ViltvNViskct5GQbH+TJRKj7UWA6D2EOkB4mreF8+wYFsAxIRaQdUa9THuqQaKuZLs1vfyeJsnj4vFRdnQC6KnJSaRkuxxtmcJxlGHRT9xSLCBmDo4aCUtPz2wrWclazPRVl2sQj/tohakNEizIzZUeqWfOrWzmVpBewLWdVbQti+dzKuipjPa8zU8zmcMyeyEGvMQiMOikvFoiEY8YG5uO9w97V5XwmYKWXXxQJ9D5TsUlYWMkiuflaMdV+e5q7DN/7Fi1eeXZrNS7C8zMBQN5LzdHjx/qu9lpi8ZHBcdInyeg5djAF1W1D4KMTHj3YPZ2Snp1wpq2new1urdonE1qaOQ0rcAr78QmyrsK4TpXj3BxXZvAxLyhQMlTslBeE9lklVjxRR9LhELRiGgTntEEXbvjcuWj+Nm0xZbyvym9uXXwchFdE/JoC7/8yH2gdi20HfTJBsfnAGmxv98WCoOyzylkADmW8JNAcNMzic1BQMVbVuS1HQ2XRoIL+CcTNlfbmeALQQuRWQ8oft/FW5BhA2aJjLxSBZiDEJ+2ws+N62dzJ+YZZuua4VslN6dTsphu1U3mrALGNFfZTSpjcuzn/nkWwq6xbkla1VteUVpZ6p8UC0NITd7vz2BF8wpdaYx8HTvwtljoTBsPWxKWx+0K9J1ypSAnArtQTSq9tBcc1ODawG0c5vkIXhUuk1L53bev+t8fWTL1/YA5UVcZSKeOSfxvEF3doPZkGYJcnnFLCpGyWLr/Cb3sLjDauCESFAp4PiOqGxLzajjBWw/82LV5/P9fVmS/MCCG3bW/vh//R4PPLadAWSL9SE8aXnxg3XezBA3v/pkryxJu66MDY3zphai6grFaizNBiQdws75RAxqerGbgBGu2gT9x3rzs7OTlbRvPX+PPv8Ay/2f3j1qfErU5q1HsyCPGoCCbMmp4+UoeNwmSVjEwUKFl+YNn2waHdFM00R4A9Fyux4rHwEMTj6KUXTm71Xs7ark5U0b4AcqK+qvadxjWfgk2vRdR5U3pzultowvvK813TlIIOj60QJTh/JfXO56i0hrN3mTwwFtC2BgtOEr9GwMhhMozaK8zaKsGreKmYxqI+IpPnN3oXrThlpXrtH//ddtS/e9426pz771SUE/dLgUqzJomUCHvnbcVQmWY8+2OlCV1uJtFR2HmBhVmLVlhDvwau0C0ok3iPLvzE6j2HVzid6fW4Dum1Us1OxAgcoWpyRhZO6TUfzCsiBmpqKksWiZ+fe9RWf/Lo3OmjUqwbv2juJu5+YTOn9xjwOqblcv4MvpWWPZyMGgauM8qZx7lqpR1ZaLYKYtWCBtxxfWL3ziVrsP8DAGCQqVyoWJ7bbCGlaiNmpVDXv+w80r1vxfHGZ47kdT6zD+bbBaNGdehlt+VIBDz7tw8rbUuhuqJO0Dl2a3uFN5/pj0DhLRSyti32TS2DMriEEc/uc9hoguCpaes4sRdeHw5Z2o9TyA+iwUUyorQXkBU1A09s3SZyRSPMOCLMi9qLwKRDU3v/EOkQCEfz+yIAmcFe0cktI6qLeaLC1QA7ELBSDgblR5UuW82Mstrjw4bBlykFS1QiAs4SCt7+IuVXsQzQHIs4X3rsJ3Skj5WQHm//YsPIpULwIeQ361oeqcfbEIF82qwZEgYZ9y2960M8zRrPtjjgbsThn1FMEl2Ml75W1cr1UWMmg6OsYywsXykgXAVxCbPIPUv1UCxHF/ccGFnbaNl3lbIun5vUr2gjILuXxtt01fO35mRODGOyOfXnpV34yWKrloJm5Syk1mU4ixS1jMDCXLDhRzi0Eg7euoZK7TINyS6B8hQKyS3WaUvBPEE3h0nabaNt/bGAwr6tus6WcAfKDddW7KKFt6mOu0iJsureKN3DzdIyl3LRN6czOtCoFYK7IPX2Vxtju1VI7oOr6ClRvXAJnSRHvkcXcJgZGrhcnZULXKIMDfH4D0kRfv02kTW8PFOKMRMrpJoHN61a8SAh5yuh3bNAyWNi90q4nEw3dmFUor3RJUKxexIFQWgExy5XPLYGMxIDoEYG+aABOfZSi+fjAzTWfMVvlFBAesDtCHoAkrHUvryzmA5kNaGZlFEgmxlQ9snSqrpd6YjG3zVlaxHsBO+XXstvo5SmEZoS8C67T0Q0KfCoCM7FNNl+IUMf+QgCeunK+zWzz+hXPEJADc3kPBtDiylhxY9AfWVBWYDbqFqUbpC2ZW4poIQCfjXIOCKR9RE6BkIZcX8dCELMaHaJ0D9B2QknTOwM370TfXGWJzQAJbE0U2oC9oPQUlq1GH7catJ1S2/7jA0OFzNQcZQkLgiQBe0GJdY0CnSIwTdEPSvYdL6RsMyZLWBAmMeJssjtCe5IF7AXFNAOgQwBGKfptFMxiLKjlrlaQZSwIdDPsBZmLuVPMlbogSmC8UwAja7IUIDCYYS9Iq8sUOCfQ9gBF84nCJF/WZRkXS5FoF/fZBdupgqulFQPjkkjbJ8RC8D2fspwFQcHV0sjLA3DaMiGS5kK6dv5lSUBQyGphkFLfiIjmIVFsKUzw5U6WBQQ3KSTjIu24JJDmy3AcLJSE5F6WBgTyCkRCyHO5vo5sKgTqm6Y42Bchza0FN8pSsjwgUErjQV8EQW2uryWTCoG2B0TS+o5QsBZWVV4AArny11YUeibvrQlFPyW0WbSLB5sWeNO1haC8AUTRgfqqWlvE9lxexSYUDISDgg2tTTdxh5B8VN4BoihqUUC+Y0XXi4K2AzgkEtJegCJ/lbeAqHVgw8oGu4jvANiTK1ioVFreAdD3hIizvakQUywILQhA1GIumF2076Ii3clgyUbZCrcOzG0iOG2jto6newvVswtVCw4QIzFoiiJFtSIRG0AhlbAQshWg5uUsFO8pP9pg4wBEIkUdBctQUEEFFSTLensKFFSQhVQApKCCEqgASEEFJdD/BQAA//9QsvvLkoMicAAAAABJRU5ErkJggg==" parent="ZbF4BASj6-ml_1zqWkv2-48" vertex="1">
          <mxGeometry x="108.75" y="164.5" width="80" height="80" as="geometry" />
        </mxCell>
        <mxCell id="ZbF4BASj6-ml_1zqWkv2-3" value="Reality Capture API" style="shape=image;html=1;verticalAlign=top;verticalLabelPosition=bottom;labelBackgroundColor=#ffffff;imageAspect=0;aspect=fixed;image=https://cdn0.iconfinder.com/data/icons/feather/96/camera-128.png" vertex="1" parent="ZbF4BASj6-ml_1zqWkv2-48">
          <mxGeometry x="193.33333333333331" y="71.5" width="38" height="38" as="geometry" />
        </mxCell>
        <mxCell id="ZbF4BASj6-ml_1zqWkv2-7" style="edgeStyle=orthogonalEdgeStyle;rounded=0;orthogonalLoop=1;jettySize=auto;html=1;" edge="1" parent="ZbF4BASj6-ml_1zqWkv2-48" source="hl-4h9MKn_eqg86qbTQG-19" target="ZbF4BASj6-ml_1zqWkv2-3">
          <mxGeometry relative="1" as="geometry">
            <Array as="points">
              <mxPoint x="149" y="90" />
            </Array>
          </mxGeometry>
        </mxCell>
        <mxCell id="ZbF4BASj6-ml_1zqWkv2-11" value="AutoDesk Auth" style="outlineConnect=0;dashed=0;verticalLabelPosition=bottom;verticalAlign=top;align=center;html=1;shape=mxgraph.aws3.iam;fillColor=#759C3E;gradientColor=none;" vertex="1" parent="ZbF4BASj6-ml_1zqWkv2-48">
          <mxGeometry x="32.02083333333333" y="37" width="50.75" height="81" as="geometry" />
        </mxCell>
        <mxCell id="ZbF4BASj6-ml_1zqWkv2-39" style="edgeStyle=orthogonalEdgeStyle;rounded=0;orthogonalLoop=1;jettySize=auto;html=1;entryX=0.5;entryY=1;entryDx=0;entryDy=0;entryPerimeter=0;" edge="1" parent="ZbF4BASj6-ml_1zqWkv2-48" source="hl-4h9MKn_eqg86qbTQG-19" target="ZbF4BASj6-ml_1zqWkv2-11">
          <mxGeometry relative="1" as="geometry" />
        </mxCell>
        <mxCell id="ZbF4BASj6-ml_1zqWkv2-61" value="" style="group" vertex="1" connectable="0" parent="1">
          <mxGeometry x="1200" y="760" width="510" height="330" as="geometry" />
        </mxCell>
        <mxCell id="hl-4h9MKn_eqg86qbTQG-15" value="Availability Zone" style="fillColor=none;strokeColor=#147EBA;dashed=1;verticalAlign=top;fontStyle=0;fontColor=#147EBA;" parent="ZbF4BASj6-ml_1zqWkv2-61" vertex="1">
          <mxGeometry width="510" height="330" as="geometry" />
        </mxCell>
        <mxCell id="ZbF4BASj6-ml_1zqWkv2-52" value="Model Derivative" style="outlineConnect=0;fontColor=#232F3E;gradientColor=none;fillColor=#116D5B;strokeColor=none;dashed=0;verticalLabelPosition=bottom;verticalAlign=top;align=center;html=1;fontSize=12;fontStyle=0;aspect=fixed;shape=mxgraph.aws4.agent2;" vertex="1" parent="ZbF4BASj6-ml_1zqWkv2-61">
          <mxGeometry x="137.3076923076923" y="30" width="76.5" height="76.5" as="geometry" />
        </mxCell>
        <mxCell id="ZbF4BASj6-ml_1zqWkv2-53" value="Viewer" style="shape=image;html=1;verticalAlign=top;verticalLabelPosition=bottom;labelBackgroundColor=#ffffff;imageAspect=0;aspect=fixed;image=https://cdn2.iconfinder.com/data/icons/circle-icons-1/64/browser-128.png;fillColor=none;gradientColor=#ffffff;" vertex="1" parent="ZbF4BASj6-ml_1zqWkv2-61">
          <mxGeometry x="362.8858442954249" y="25" width="81.40384615384615" height="81.40384615384615" as="geometry" />
        </mxCell>
        <mxCell id="ZbF4BASj6-ml_1zqWkv2-54" value="Data Management" style="aspect=fixed;html=1;points=[];align=center;image;fontSize=12;image=img/lib/mscae/Virtual_Datacenter.svg;fillColor=none;gradientColor=#ffffff;" vertex="1" parent="ZbF4BASj6-ml_1zqWkv2-61">
          <mxGeometry x="258.4397768878719" y="44.5" width="65.22115384615384" height="65.22115384615384" as="geometry" />
        </mxCell>
        <mxCell id="ZbF4BASj6-ml_1zqWkv2-58" style="edgeStyle=orthogonalEdgeStyle;rounded=0;orthogonalLoop=1;jettySize=auto;html=1;endArrow=classic;endFill=1;" edge="1" parent="ZbF4BASj6-ml_1zqWkv2-61" source="hl-4h9MKn_eqg86qbTQG-20" target="ZbF4BASj6-ml_1zqWkv2-52">
          <mxGeometry relative="1" as="geometry">
            <Array as="points">
              <mxPoint x="175.5576923076923" y="210" />
            </Array>
          </mxGeometry>
        </mxCell>
        <mxCell id="ZbF4BASj6-ml_1zqWkv2-59" style="edgeStyle=orthogonalEdgeStyle;rounded=0;orthogonalLoop=1;jettySize=auto;html=1;entryX=0.418;entryY=1.065;entryDx=0;entryDy=0;entryPerimeter=0;endArrow=classic;endFill=1;" edge="1" parent="ZbF4BASj6-ml_1zqWkv2-61" source="hl-4h9MKn_eqg86qbTQG-20" target="ZbF4BASj6-ml_1zqWkv2-54">
          <mxGeometry relative="1" as="geometry" />
        </mxCell>
        <mxCell id="ZbF4BASj6-ml_1zqWkv2-60" style="edgeStyle=orthogonalEdgeStyle;rounded=0;orthogonalLoop=1;jettySize=auto;html=1;entryX=0.5;entryY=1;entryDx=0;entryDy=0;endArrow=classic;endFill=1;" edge="1" parent="ZbF4BASj6-ml_1zqWkv2-61" source="hl-4h9MKn_eqg86qbTQG-20" target="ZbF4BASj6-ml_1zqWkv2-53">
          <mxGeometry relative="1" as="geometry">
            <Array as="points">
              <mxPoint x="404.07692307692304" y="210" />
            </Array>
          </mxGeometry>
        </mxCell>
        <mxCell id="hl-4h9MKn_eqg86qbTQG-20" value="Autodesk Forge instance" style="shape=image;verticalLabelPosition=bottom;verticalAlign=top;imageAspect=0;aspect=fixed;image=data:image/png,iVBORw0KGgoAAAANSUhEUgAAAMgAAADICAYAAACtWK6eAABq1UlEQVR4nOz9CZBd133nh3/PXd7e3a83oNFYukGABECAICBSEimJEqh9s03PyCN5xraoqhn7/59JylIlldSkktCqZFyOKwkly9t4JqZsZyxLSoaiZVsjihRIkVq4iARJEMTSWBtA791v3+5yUvfc7Zxz733vdQOgSJmnqvved/flfM739/ud5Sp4K72V3kqJ6S1A3kpvpS5J+1lfwFtp48n43qePsBmiFBViHxLXkvf12P0CQC/6PyjFBefPmde0zDFy71+UbsQ1v9kS+VlfwFspOdGjn542TUwrChwQhgByiFJaJIQc6rafbZvotKvOEcQV0ttWFA2p1GDy+Sk9RggpAfRJBx5VVY+Re//62LXd1ZsrvQXIGyQ5akAIpgnB7Q4IAI7I27QbNViWiXazBtsy0G7VYNsGKDXQbldBnLdJKHurxJuyefjzLjDCdgiXa1qW/fngaFqO/db1QSiKzl/KEwA9ZlPlSU1NPfHzrDZvAfIzSPToZ4um1TmiEPt9cTC0ajU0a3UYrRYalRKMdgtGp+Vl7DCDEyWcEoVGlsXC4sHAtomDBn6u8Je7UweQVGoA6fQYg8eBRlNz7v0wpcETiqL+xc+bwrwFyOuUjMd+9T4HCEpxhDeROk0HgjpqayW0qu5UBEGeuhk7WKa48y4g3lTpAQ14aHqDwqsMv05Ts8ikRxk06fQoA8YxxQih3/p5geUtQG5QcvwHy3JgwC8B5D5/ebvRQnW5jOqK81dCp9nmSnXf5ImCEQcLm1c8YAJQOFVRaQiMv61CE0wxablvlkGCCpzCCACBqUouswXZzAR0fciH5S8UBV8l9379wuv7Bq5PeguQ65hcKBwY6Gd5lVi9soLKUhlrV1cYICTIeN6E+034ZUGmjQMjnA9/+8oRwhIAolLxtyICEgdKrJpw5hcEsKkAjgNLPrsD2cwW3xT7qm3Tv9A/9PUnXodXcd3SW4BcY3L8Cctq389DYXZMrF5ewcrlFTbln3KgEJAUAzEqgRg4gowdAwoHR2BmcaAQ1Z9SARR/+ygwkjmGODVJhsSfOqqSc2BJb3EWPmHb9ItvFlDeAmSDyfMpPuubT61aGyuXVjA/s4D6Wj3ckAiTBDhoVyiSFYRyZpWsHBIcCrfcAySYSqoSpyKimiSbXEmQOLOOzzJY2MdgebOA8hYg60iOCWXb+G1KcT8hpOgoxdKFVSxfXMHypRVh28iD5VUkDpJYOGhXXyRQC09Z4uHg/6g4r3J/3jrXX6EBgBHf5BohcfZzTK7B/F7kslPOkicUhX7ujeqjvAVIH0lWi+pyHbOvXMXS+RVmTiWm9ZhWiFEMbMy8IhHzKh4UxVcT7i8wu5QY30SRAJD9kr4gCc01R1GGBg4im5501n9RUTJfeqPVqbwFSJdkPvbp+wHyACGYNtsmFs+t4uxzl9CqtPs/SJxygDNbEK8e/jI+nCuqCAcBBwIEWDgQYiBRVMns0mzJR4EECm9yXR9InGOlU+MoFg5CU4cuUEo/90Yyu94CREqO023brc9Tit92zKhmpY2Zn1zC4tlVOJDQPo8jKAa3MElJQlOrS+QqUT2ouEyJKkoACQeFwjnvgppooY8SjXh1g0R23KngZ3WDyUmD+X3sD6BfUj/w9S9cy3u8XuktQLwkg7E6W8blVxdx5dXFcBtEmzclJRIDB+JMLcmUQiSaRWN9D9kPEWvVo6AoMc56qCCcmjhT1YaicYCoyX4Jb4IhNrqVpC5Rp99JKX0IwwN3OGpyTFXVz/2sKxv/0QMig7FyqYwzP5zFymzZ24Dblv0nkeX84qDiLG4dEaNZcQ56kh8SABBbiy6piiKCIphYquyDQPBHAlAYILboo2wEknWYWsHzI8BQ4XbkM7tKFMrn9A9+7VsbfsHXmP5RA2I+9pnPA/QBF4wKTj91Cc40USlo/E/hIcY9UQkMd0qTI1gRFYlCARKtQQ9AijOtpD9FpVElYaaWZ3KpnF/SFRLut3BfPfwRIjVh4WDxj5VJT2J44E4oRPui+oGv/8563u31Sv8oATEe+9X7COiDjvO9crGCU0/NYvliOaoW/TocSYnEwyM66zwUNMHMQqxy5FIWNIUirVGklBC4LLGhBoenwX2YRIGhEPdYAFophUFkpBVQLQSFweP7JVofkCjREHBoVvUytZJVxEmqmsPo4N3QteJX1Q/8zeeu8Y2sO/2jAsStxyAPATjSKLVx6gezuPTSYowZdR3ggOR3QHraPUO9YYYfKlhIp2zk0zbyKQsplSKt2u41UgLY3vXyfzaJLvO3j1lOKUE7o8BIE5gZAjMHWHmSDIlCORWL1pdEnPYEU0uogIxREXj9VoYH3o60vuWYqmbufT1Dwf8oAPH9DIA8YLRMnH1mDiefmBW26fdB8Nv1y1DsdjFml5NZNI1iaNDE0ICJQtbGYN70MjyXuW0pw18nQILf3kVTBegUFBgDBMYYYOeo6LwHlYrx/kisqUVofypCOF/OW+ZAkk3teF0h+bkHxO2IRB5yzKlLxxZx/LsX4EDip6QHsNEHkwSNvJz/XShYmNjcYWAUclaYYfmMvw5AtHEFJM2DQGGXAGuNrgsQ4Q8EdgrojAHtHQAt2GIT+yR/hDe1+lGRGDOLX/56Q/JzC4inGg8A5POOOfXiIzNYueBGphL86K4pbn0vBekGxei4gdHxDkZHDWhOiWyLmT8OEH1rCiRFoI2rwdTJ/NomBwj4O/K5XppHsMwuURcYpxA5D9hNwJwjMK8S0FY8IPxvawBoT1GYW2zQlF8pKZtaXFSrbxWJN7P4UHAuPY1i4Y7XBZKfS0B41Tj95CxOeeZUbNVEt/DsBhLlj07FZflBC5M7WhgZ96Dg1YADhKQUqCMpBoQ2qkEb06AMKmJG7wlDH+sTjkdblIFinFfQOafAOKtEAAl20YDONgpjlw07b4ctidejInJEK05FeFgoQS4z9bpA8nMHiPX4px90VKMyX8exR2bgTEMQqOwnx6aNPJQ4NXGWaTrF+NYOtky1kM7aoalkh8pAdAX6liz0LRloW9LQxvSYjIw+M/t6wOg2D2G5A0n7hAbjnArziiLetLeZuqcIemce1fZl1k8+WUWiEa342nXezKKSA0hYCDiXmbqh0a2fG0C8HnwPE0IOnX/mKs48OQvT8zW6QXEtkHTzNwZHTIxtbTM4hOQBog2nkdpRgD6Vhzaa6pJhsaEM3q62WEbUMxoUhfC2m6Qc9jrO4W5nrRF0jmto/VSHeVUVVIWkdOi3j6F9q4l6/bK3sEtEizO31mNmOc+Q2gQjg3cil91+w5qm/FwA4tZr2A+Zbav4yiNnsHBqlS1PAqNfSOLWdfM7nHXFzQYmploYGIm28tVGMkjvKjIwlIIW7tUHEGarA7PdQafRAjUt1lXXtiz2ZzQ7XA7tcoH+daRUaLqrAum8xnbN5DWoOoGmkXg1SbhO86qC5tNptI/roE3iqqNjZQ1moN+7GdXCHDpGmYtoxZleXcysmGiWeznECywQjA/fg5Q++jntg1//au+7X1960wNiPf7p3wHIA9X5Ol74xmtoltrgqhSCtFFA+k0jWzuY3N1EyjGjuKQUUkjtGER2/yiUvD90TndzplNtolNroVWqMyhalYZUv4CIDQ+hApJe001lchr0jIJMToWeJtB00vV62c8m0HwqjdZzaVhrarBZ5o7tMO8ASuXT/ZlZ6/BDfEAUomOs+O5SJjN67/Vuu/WmBsR6/DMPAbj/6kuLcJRDBmPdgESehqwXJLLaAWMiBozUVBHp3SNITQ1GlQFiBmuXWmiu1tFYqKBda8E2Lal3HwdCXAemGwgLmB9FkM6pyBUUpHMKqzyMVxh32vheFo0fZF1FcfYfL0D/+FasGsfZOF6imbWOaFYCIE7StSGMD7/nmKYNXFen/U0LiA/Hq4+cgQMIYsAQoPAf+nVSkPyIicm9TWQHrPA4KRXpW8aQ3b+JKYebopEiu2OhermK5mIDtbkqAyJSjxBUwIkVccEyedsEWPgAxfV629mCwmBxpgEsUiHgwFF7JI/W8xn31GkN+V/ZizXlJDqmF26Pvd7+/RDHB+FvKp+ZwvDg266rP/KmBMSH44QHRwSMHhGrjdSD+EnP2th2oMEACfZNacgemEDmwAQL0bpJBMPumCifq6N6sYbapZqXIcABwPW9kH8Tud94dCrCIjX7uEGggIWuFRSGFKSz4AAJp8aMhvJXhwI1yX30ZlS3XEarvdy3H9LVUafizYwM3oFMase916vT1ZsOEB+O1x45gzlfOYioDDfCB1E0itHpNsZ3tcL9Uhry79qJ1NQwUw83iSZUbbaBlVdLqJyvwe7Y3vWGcER6DEqDKITzNrfMFmGSofKmIKLC3EhQMlmC/KD7Jz8HB47q1wfQPp5miwsf34fatgXUG7ORSsOug0OgNyCOP7Jp5MiFlD52+HqYWm8qQBw4zJZ5/2t/ewbLp1YEEOIAiAOln99yKmwysHlvk6kHfMU4uBWZA5NsXq4QsJoWll5ew+JzK+iUDS+jgjMZECyTewdGB4KTOi4pXhMP1e8eG4WFAUTCERZDP4b3axBe83XMBZoOjG72FAUQVLT2SAHNH7jDlTqQVCYvo9WaiwlArDOSJaV0ahzjxfdcF1PrTQOID8exv3wF9QV3WB3Sp2r0NK8SnoKjGhMHGgwQP+XunEbmtm3MphZ8CwDttTZmH1/A8surzD5O7CWImAEYIr0DuQEWiNipiYeDAeKDo3LqwqCyJVMtRlFugJrAU5SRzYQ1vuSfUeu5DKp/444oX/jMbVjLnoDh+CSeksgml/uwugASObO7ZbFwEIP5Ww5fa1TrTQGID8fLf/kKagv1rmBEoPAjI/JyLsUtyzuqcaDJIHFSaucY8u+6GcpAJrJtaaaK2cfmUJqphcfkLqSresidoBLHthJ7Cipe11i3+bntQqOGkATKwkMTmF784NY3zuxygB4aIRgoQogI+pA4hczAZ27DMnkept2IRrL6AIRPPCyOqbV5+CNPpD788L3Xcg9veED8piMv/tmLTDm6AsHB0Ld6SL+Zr7G3hYFJtwbcAaJw7z7ok8XIvmtnarjwD8lgyL/5noBJJpbYM5BC8dZHegaqXG9BLVQT9qdJoPCmmeyzvC5qAoxtgRfxcpMPibapgMyv7MJi9WnvOdEoIF3qQrqlXGYKQ/k7rslhf0N/YcobdufzZ/72DBoLdShSxpejVet1zuVlqQELYweabApmTu1E5uA2z88IkwPEzLfmsXamGj1mEhjBPEnoRhszSqJCYHvA2H73Wb97rEVYfw3223IURQVRFRcOy4eEgDimnu1AQpjKMLOQ2iyfUb97LitUnP+UXR/b5jpC0moC87PA2ASQSrvLMm9vgTYV1B4BzGdWUbzrAEqV4+KO9NqK8EbrIgZyex4CsHOjx3jDKgg9+s8PWZZ1dP7ZueKFR89xIdxkIPoFJW5ZfrKD4b0tpiDaWAH5e/dBGy0I2zeXOwyMKz9cjb3mZPXoYygfeZTEhIHfIkP1BH3JuUEXnKnmQaJZoa+ihariOvrRcPKNVBLnGse3IHTgAaYijpoM/JPbUBo5hbaxnNxnBOtTECel9XGMDt2z4WYob0gFOf77k4dazcbR1ny7ePHRc1AkKJLm0Y96EH7iPuzh/U3kJ11H3FEMx9fgk9GwcP47Szj7yDxsK+EEsrMvKAeJHYwhrBiUnXPCwUEFOKinLI5qUH/gBdtbbhNHHBzfHNRWoViegjig2I5qWGCd1amnJrA9BfEKa8+cu1FK4gjZwhVgdDOQH3CXDXymAvOKhvrjZzD86wcxb3y//wOShJYO3OK2sYS2cfW3AWwIkDecghx/cPLQ2ObpoyNDk8Vjf/gcbK5Fbj9g8EoDaZn827Hdx+5sQB+wXIfxI7dFfI3FF8p4+c+voLFkxFwt5+/IcCAhgiVEsmQViTOz4se1EobsUSl0UOjUM8OINGKipyDWiG962WIETLUjdSk3UkmctHlrqCTWqoq1/3ME2TtugnF7G5Xaa/0pSJ/JUZGRgfduyBd5QynIiw9OFdOp1MPjm3cUZ755ArRlBt+pJl3AkCsK5fWIWa4NWBja32JwOFAMfPQ2wdcw6hZe+Mos5p4rd7liEv6POXnExEqAJXTUJeXgMrqjEJoCZDQbBWpBtyhSHYq0RaHYNNr11vbrCfxljiKo7M8sUta/3B6yYA9bsDabrl8CX4lurJI4aWkO2LTV9UnUEQv5D9dR/y+zGNx/GDVlBjY1Is9zo8lREdMu/7b7bcX1pTeMgjhwaFbr6NTNhw8ZVyyc/eaJWCjigFivmeXAMXxngymI44hn75wWruXyk6s49mdX0albPa+7p5MOSTUCMGiMoy5GtTSNYjBtYiBlo6BZyCp2bA/EAICugPB/0X7p5lYT1jYD5o4OkLFfFyXRdGBiexjdKv3xMJTcDthHKKr117yWKyQ5zLuOlMtMY3Twjp3rHUX+DaEgLz44VEzZraODI5OHMloBF773IjOVk1TiWnwQfdjC4KEGlLzKwrep6bFgG0c1fvrlWVx9phx7DD/RhHl+AeUOQDh/MgSEcL9DpzydsjEyYGIwY2E4a4Yw2HEnc5O2yQJJueu1TSZImsqV+7BKKqw1xYVhTg/aRgXHuKyxv/SPs7C2G0gf2IL2tjW0rcUbpiSmAawsuI67kwr3VbH2f8yheO/dqCtnXBURnPKNn6vRuoBCds99AL60nv1+5grC4CCZo9RUDu3e/06s/GQRCz+4GEDRj3Pe1bTi6kbSWwzk97dY3YZjUvFRquXjNfzkdy8wSNDHg+nnXSVtE1dxuHmsg9Ehg8ERqAGvFjagjdrQxmyoYxa0cRvqoA1l0JLOxsHR4yqN8zrMqxrMOQ3GWT3sx8F1ekrdtRnNXfNoGZe9h30NuTQhOYBk8+589W8GoaT3wTzcRKVx4rqeZzC370LxF15ZV8j3ZwrI+QeHik0lc5Ra5NBgcQs2b96FU3/4LKy2KZhXfUWwYsK//Hxq0kDu1hYL4Q7+4mHB3zj5Nws49bX5Dd1DUnaJWy4vy2RsTO9oYbRoQFXAQeECoeYpUtM29Ekb+laLU4a4fiXYECR8cgDpvJpC6/ksA8ffVd8+DPW9Q6gNnoFhrd2Q8O+2m7xrWFVR+sOtGPzN2zG/+g997N3/xahqHpOjn1hX85OfGSAOHC01fZTa5JBlKrhp7x2oPL+CJV89uAuMBcMDohsUgc8xbiJ3exPpPRPIv/vmAA5HLZ793QtYOV6LXF/Sg+mW3eR1Sb+HiiamplooDpphV3FfJYaB9C0U6SkbykACCFJvPrkvhris11XHJweW9vMZNH6QC5uqv3sn2neUUGufuu45Z/NWgnTWvU5HRfTtb0d14gxanSv9HaCvW2TG7pd2fNrquxHjz8wHaWvpB0HJISdjpDMF6CSDtWevBLXlsWD0qiTkfvhOsVKwkN3fYnA4PoefKuebeOZ/nkG7arnNOfpM8qZ8MJlI/geR3tvQsImpnU0MDZmhX8GukSC9iyBzM4VSkM5ESeggU+ki+IMTGphGRhuwbRI0plQUAj1t93+TTmk7bCH3oTqy72mg+VQODefv6fPQLw2j+Mk7UMErsGlnXcfsllYXVWyZckP6uQ/XUf/bZWR3TPYPSF/vkD0Pxw/pG5CfiYKc/uOxh2xLud+2CBz1mNyxF+QKMP/tU8FFkQQognkZBkIjMqPmbWQPNpHZv1mA4/L3V3Hi/7rCFORaHkA3xQgLb4LBEQPbd7WYcgRmlE2Q2qYgs0+BPgFJAbqNf+U4tzaMNoXRoui0KauAM1puRVyv5Jgzepqy4Yj0FEUmS9nvnvfaJKg/mmfN1bVNBWQ/vRPL1lPXDRICHSObLeQH3JuoPTyCzLvuxdzq9f/ygQLl8LZ/ZvRlZr3uCnLmT0cfsi1yP/WGbXHe/UBxFJcffjlUjxgoCPdD+LIR31qWcyKJRpHdH4Xj0t8v4dX/4JZK6jXeiwwEkebTORu7DtYxGIBB2IiI6Z0asntUphwBAIH8+IoRQuKA0Cw7MNhot2zY9sYdZQeidpOwPz850KSzNrIFimzeFhoV+olkKQq/VIO+y0D1byiaXz+PsU/fg0Xz8Q1fi5wqq0oASPpgDeZMCZmJrf2rSJ/JgnUEwBsPkJk/G/u8bftwuO8/ny+C1kwYi7WgSUkiFNyXlaBwqiE1KXeWO2ZV5qAIx/E/uIQr318VGj3KqVdYN2k5P6/qFFv3NjEx3QIs916JTpC9JY3MHh1EB6cMJBwbygPFNoF22UZzzUKzbMGm3r0r/vT6ar8DTbOuoFl3QFEwNGIF/oCc0gfaUP/1Gqpfs9B65DJGPvVOrDafuS7XYRouuM659V0dGDMrrBb8egMC4H39hntfN0Bm/uPI/bDxIPwGpZ6C5AaKaF4sQeVb5cpQcP0loEiKwXU8cncGUlMdZA9vEuB49Q8uYS4BjqQOU3KiUp6JA2Rsuo0dB+ssKkUtMMXI7s4gc3PaAwOSaoSOS3PZRnPZQn3RDO6LOUiKd3K+gs8H5jonJ4MuXtGYCTY4YgclOp+0SRPFf72G0h8D5Nkisoe3oWlevi7nr5YUpLNu6FrdPAdVO9wtYL6hcxDva8X9pNcFkPMPjd5nW3jI9uCAZ1oxBRkoov6jy26TEq4fROw8ATfCh/8bQqcfx7nM3z0mwHHiK5cwf3SFtfj204YeLUnyOwhSOQs731nDwJjJwKCW43TnkN2XY+oRiUJ5cJgNG9XzJupXDdd0YpWG3omUbu29vXU3ABJ4pfnqgsoy7PBYVFEck8uBZOXfncPQ/rejrS5eF3/EUTLbtpiZp+1YBjGLrPOT0PQkSOu5d/E5Xv6GfqgfP+SGA3L+oaFDtk0folRxVUNqH5TJ5VFaqjGfQYBCkaCIA0QRfRKiU+TuyAtwnPzKRSx+f5X74lKY1gNJkkPuTDfta2LyQIM1GnRMKm0sjdyhIpScGvUxPAloL5mozHTQXPDVggRqmYyFvObGQgIWEXMVZaBoY3DEEvwTH5LaN8+i+KnD183UciBxlEsdsWDNLUHXhtE2Fq/xqOIz6tcPuaGAnH9oaJoQ9SgBKcrDvDqgKKoGVdVg1ZsgmgSGDIUSQsH7I3wUK3swjcFPHAjOf8qDQ+5oxadekHSLVCkpiqn3VDG01XDNqbSGzL4R6JuzMQ2g3L3rZ9soH2/DbNohGLJaUBp8r4PIphV9/SGBZ/q0mgRjWyyun7lrbqX2XYY6txPaSB6mXb/mczVrJGgOrwysQW8X0TG5rw1fj1ultC8/5IYBcv6hoaKiKg/bFoo0gALhaHgUyOQKaF8ueV1GQ7s6CgiCD9vLDrsPiDZGUPz07UEl4JmvXMRSjHLwA8hBWsen6Dsg4Sc2ABS2GJj+YCVQjdR0EendRTZSe2QMW0JRP9NC+aUWM6lcX4qEvgR/UmmZm/0ToJB/32BIHDVZuKRh01ZTCA3nPlxH7RsXUJjYg1LrhWs+j6MgThnPklKHrg4L6/v1GdENJpsc6cdEu2GAKDp5GDYOgTOnfCOe8hfumUYMBpUHRIJCmAc3miBYw8Ph3zgQwHHhzy9j2fM5kioWkfAbic1EaOCDjN7WxORddeZnkJSOzK1boA5nOXMKQW6vn2yi/NMGzLodRqAEODiFUOKCxUkmVwwkhNyQtlJ8cvxIx+SSIUnfcQ608UER+L5T9O78aBbR16Cp2zZ8vUkwEQ3FU3+mH9rzm939kBsCyOxfFx+iNo6wbgoI/Q7Kt4jwILFqTRbdcbuAciBwgARASH6JD8jQL9/Mxn91kgPGwt8tRloDo8c8n5LMKiVNMfn+KgamOqyA07ePIrVzHERTJK+EojXbRuWZGlpXjeDag4LCD9siRkX4k9Kwdpy1qI2tx+cjD/S6h4DjkgPJyqLKIPF9En1XB51jK8gW1x/RIjE1Uu2mF80iBlQld70uXTyvSnv6IdcdkMvfGLqfmrgfnCkVJMEcd9+i1Wh5CuIDwvsiok8Cha8DcU0tfWoI6T2j7FjVV2u48JWLwU0lqgeR85DYhoNKi52JPmhh6ycqSA87TrWG9K07oI4NehuEJpVZNrH2eAmNsy0u6EDC0oGHhHrrIPofbH0MNLGQEG5ff5VyY3oB8skxt1YXVOaT+Embvopsfes6ASGxRHfa/kHXoCr5mGLr2m+QqPT2XttcV0Dmvjl0xLbxkOyaij8gdrZ3TKoYQCI+iWRm+b8L90yxw3QWOzj/e2cD5UjqVCXPi4ly/8MCPj1uYts/LbMBHZSBAaT27QbR1IgDXn6ihMpzVdht2834hIYBLN+sCkCRTSkejHhTC3GQ8D4Vb0+oN9bUgucrtJt2EAIm6ctItw6t6xhx6uEko7Pe8En3s8QewXEBeqTrBsjcw0PT1LAfZn025YhVl4vVRwdcQFQejBg/RAlHI/SVRN82BH37EDvOhf/tLNAwoXXxO5L8j3ifw0253W1s+kiVwaFOTELfOSWNqEjRmWtj5T8vobPQDsPPHBTUewjEN6v4MwZqEq8a4XlkSBCVQllNbrDTDqmRIclSqE0DCkn1WSeSbA+ahrg8rW+6hlBv/HMgKnn9AIFlPwyQYtIrkc0WtotpQklr8YCoMYAQ0VHP3e2qx/xDszAuNATTKhYOwRKJSjZ/jSxSdVsLYx+tMo9O23kL1JHRiK+x9reLqPyw5MtWWOutcBEpD4KwfjDG5JLMvMRIFeF/UTY+llJXmE+kVKI+irXFZJ9spjE14tcjORm5Xg3bUBG1Dl0tom32zsxJ6uEnx4xjgQDtxnyj03kFL35FPXL4v7YS+6pfF0Dm/3P+IVAc8h3wfuPUrUYdSkoDSflRLGnaxQ/RJotssIXqsyWUOKecSKMrJqlHNHHmFQFyt7Uw+vEqoGWh774NJJcPtyNA50oTK1+7is5cKxQFPpbsR6UCJ9zdyHdXSES/+oNEMQG1SaDVFChlAqVBWDQNXu09i47aXv8SC9BecOcdSOwpA9bODuxRG0glvCQC6bp6p3olBMTxGXRlGG10B6QXHEDYOpko169ZfSRRZToIKcekawZk4ZGB+2HT+yNNrWW/w09BA0O3NLQzeqAggh+i0mitOtfsJLNnAnbdwuIfXoAqNXKEHN6ThuFJTF5+zt/WQvHjVZDMAPRb7gQ07zF55Jf/YR6l/7IA4aT+sW3uN+XqJnyl8HwMCklN/AulUUgUG9ANilSdQmkSUJMApgdEn4lUFaivpKG+nAZNU5BfzqI5tMCdirtOxD8sYQkXTm43CUwzHKhaCRudJV1NQuhOTKxPy7p8jfUlTaewKaa7bnMtJ1j4u9whWPaDG4stujder5SR2jQCs7IS74dwahIMbpDWkNo9gfnfnwHx/A6W5L4hJAGOJOeDAvkDLRQ/VoUyvA3qtn2Aqgcb2k0Ty//+LFpnaoFIBIV80h/4sC5/AZTTB1k93Pk0bOimBb1NQyikS9Z2WFDHbKbC6iYLJG0LwQDqZN6rGhucrTOTYr9Jm4A8bGLwU7egXDgtKVqPNyY0yw9Tu0GgDfrm0ChAU2EpKTWzYcMPyZG3mBfimFh+X/UbkbzH9L5u22wYkLWHh4oWNR+yeb+jSyROLgv8IW5qlTJGhwZgNZddMCJmlgcMF8VKTY2hdaKK5vMld/R1EvolkAAR4OhR8ZHd38LwR2ogQ9ug7jgo3Ej7dBVLfzIDu2kFN+O3CRPun0gFpM3LWTTUGw4U4h7U8bMyuomMarqjJ9rihatjgDZlQ5u0oW3zN+j2jXQgtb8d7G+cTbGhPp0/6+/KGPjMzajSmR7lNPc5tIThPltNBflBm5lDulIMK4YRny8o/zz4FdHXcuMSZWbcjVEQO2U8ANo7CgAeDhKW8v7verWEiakptFfPBSMBQu1ecahvG8f8751nbaGEJvAcICTRU+cSV7Dlbm2j+OEqyOB2KNsOCptVH1vA2jdmxZvh8nwACn98O8b8onJzkFBJFIUiN9RBJme4YBgkMKGUAoG+V4G2A24/9QAGEr0pwmU6QiIOob6rw/6y722g+rVBaK+MgRxIBa1lY7MoIVELLLh5dx+TC8s6Jlbch22C7buYceLmXjilswnAq+szUvqky4Zy/QFZ+07+iE3p57vW3cjzfgnkZSR/NHOz04KVLkDJOJdiJALC+yDNVyxY5ZY7FhQR22wJcPTy0r3r10dNDL6/BmXiVpARcVSYlYcuoP6j5fgHQWNUMk5F4AGjeEP4iFqK3KYWCuNttxuAk089MPSbdGjTKtRNhFMK23uI3jAobNhFWzq5dIMR/Q77dFT+Uwb51A5UW+e8PbjtSFQBCL+AhE2HWg2Vvb/w1JIdG5ibG1WGde7VB0zUCwQ8/fv6off8d/FNTtYNyNrRoaLd7jzUbWRtrsAR1MKBggaQkOA9ry3PoziyGUZ1NgREjQdEyQxi9ZtXXPVQuObvUtP3rj4IQnV34Bj5pQrU7beDDIZtfhxTavF/P4nOpWa3fCYcD0TKU7YEi81lFFCkhk0M3VKHqlBXMVjPQwXqZBr6nixIDh4YXgQkAof3cL2p0dGZs2x0NO6igHS6DV3vQFHESArJUuQ/voj63BbQYMR1IliE8k1SRMHhoaHGMDpmhRMu0v25gT+GdDZuH7eVcL+Q9Cs1XhMookQ//uKldQNCOu0HFJDpaFRdLr14OKgX1CGhgnj1Bc7v0vICNu/fD7N9yRtsOT7k68DQPGExZ5WpR1yDRiKact5ziCbqNlcvfqgGdcftIAMhHMaVBlb/6hyMuYbbDN92ez+upxCL5Ak7BEXNWhg6UEd6zAA6BNQzT/SbB6FO5dxzMjCs0HYLh14P4GjXVbQaBO2minZTCxw7IpQIjp+TZ886m21iYLCOdDYs6R0lyaQIsMDVsVD5vYZ3RSI3FkJjGgQq1d1voVOS8CDiU/wmxHP2AWtdzej7e1HOlTsKYlPlUNK4vesCZO176SOgJGpaIVKYcRnVHbaSkui4tFRxYyfOA61UW0gXRmGbSyEgqggINYHaSQVaWmqrxZlXQpdcdHfMix+oQZ+eFOG4WsfyH59gIWQWrWTD81BvLFwSjF8VlAdx74JTEyqZWoW9TQzsa7ifq/Fqi9Utg1CniyAZz1wKzClF8HVsy0KjTNGsuCYNu5YAirAlqJDBWSDA9VsaNQ316iAGh5oYHm8Em6S0QbduPkYR5GgTpRBumnBqwgDxNmY+SJ9wxCfvfszEwv2ak3O9NnX+7OujIArIQ7Jl5QJBOVtGNqdEOKjitSWivDlEsDh3ATfdvB2d+qIAiPsxSgRmlq55EKg9ehrCf6lUqBPxnceCNxwQRsP2ap3zZaz+5WugpsX6kvsjkQRjWPmg2J4D3cfLJ54YaEMWRu6tIDVmMMVw/pTBPNSpCZBcyu3ATv2aMRreBAUaJQONsoHaquVmSH5cXy8jRaNCYb8CCqFDDsorOiwzi7EtTe7BhLmZhg9PDEbEQMMDw1r2tjbBMOcE4LAOo4cH028pvD716D8Zhmti2TaZStqmb0DKj6d/B8B0aEdziVfTAA7OnIL70qk/aLOfobkixjRbqNVTyGaGQEkpxlkHrKbCht+Uw78CKJJKyYlQCn3cQv5d48BIGIRrvrSA8sOnWOZXUm7ts/tBmhAK5jz7oBAiml5dSsvCgSaK7626z8Uxp1QN6k3boYwMu2YUlUamphS2ZaMy10RtpQWzbXNDvyPoc0LBVzEIshFmXA+KEBJ3eXVNRWFQRSZvwbCa3vZEfKXBPfngiNAQoVMPkMrYsBspmFaz6wc2o0mO7LnJOR7tbLphgLhwsLIpMZLVFyBrR9PTxMZvh+UL4RxxN6OHEUduPdf7zym5xUo84mZ+7y04ixeuzmDX3n2w8CPBWffbZTkmicKbV1L9CJIGkQueiDte1sB7NaC4P1jcOj6P6j+cdP2awITyoeBURPEhcTME85mtcNjQIHkZS8nYGP5IhVU+0jYYHGRwFOrkLq8hox1x3cyWibXZEmpL9dDmFyUwDN8G3UVEuPwpBd87zTO1uG1W5lPYuqsJs5UWM3RQCSoqRui8xwDjb2sW0TYqCWFeiC8jPHLyFjR1Xbrxxh6fumWd1eVa+wJEI/QBKKRIZc+c0KDJCPGcHl8hAjh8E0toxu1JslMCK9TrVOW8QBMrS3WMTm4B1a6IvogC2A1fQZI6VSFaSeg/DO/fwDsJ1Km7AMVtDtE6MYfq904wOAjnYxBPHYjqmFPU/a1wkPhT4k5ZZuEc+dSEgZFfKrMpW67qINtuBcmPiOaU96Za5QbKV1bQWKmHJhR/8YQDgnJ+glA/wfVIE/wRqaealzotBWarAMO0Qp/BK6wgXoFnToXAhHEA99gKi/JuYv6kbVvdnT/u2N2URdcd+7IIy77WARviU6OhsOYstEtzk56ANI+mpy1C76c0akUIvzlnHDIcQvsrynUSQvCBFHhdtUsrsxgY2o/U2CKI1uEAodC3GWidTQV+STAlCXUg/LVSQN9EkNp/OIDDuLqK+hOvQPH8DaZyfkM/3qxSPSVRuD8LkXCy32Awu6eF0fvKTEFYym4GGbktrLPgktnqYOnkJbRK0VKS8tnIf04CENyWnO8hONJJLUc9k8qobkervcq/SPHYAjThQ6XBtbjLmDnEQrzV5EpCoG9vxNlKS9mwy8MwzNN97bPeZNPgb+OA2Bp9IDAfBAhoGFJk/gWRTBwiqIjvK7AZm4OE+iUiCUqohStnsWPgMEj2J+5wQJ6zxr7emrZjGjRyTeERAwh1983fcwDQ3V6A1moF9e+/AJKyg56P/kcwA/VwlEHlFEP+I/zXN91bGXhnA8MfrrjndUB0TLncdu9eQzjMZhtr52dRm1sJr9Md2iWo1KFQxG/WMN/HBCGm+JIoxAq+bs2pqVsoBcLS2YxG61QwikpoNYlFoVAQApJJRpHKWExBmu1VCRDa1YxKSg4csPIA1W+YD1KvqW6Yt0tPgK6ANH+cnrZNej/7wRX6XGAjWEC4sG4Iiz/ek7elTUJIaDhlpo1XIjkTy2pi+UoDmwrTQOp8cD1WTXVNLDWmSTzhRmCULtI5VfbATpCBze5x1iqoPfYTJ5tCSft5V45ahf4GA8V0oSCKZ2p5YLiFgBu5GPlEDbkDLfe8DogjhwMgPWcJtmGicukqypcWYJsO1HkOCi55USMq+MlOcad65+RrrXuE0wJH3h+TjAT33G61YBit0KwLAgBihg4+zUzjYUl7DnW7cxyyBG0k0qumKKjpjmbCvklyA5LtRdTtjfogtm17cEghTUk9gocmL/fhsEk4oIAPCQ2d86CPhDfIg7OgVr2KzOw0BneVWB8DdrFDluukc+HfqA8CUc6dzQcGkNrjfqGFGiaaP30FRLFA0p5dzVTDazjohXCDqcX5HqavHF79hAcGyRAMf7SG9DYv0+a3A0P7A1POT43lClZPX2ZmFWjaBd0v/eVc5GVGImiD98yYLdcnFJA+5OmZkm6oGmi01lzT0ne8iaQkPDBBND8KS0obBAw9OF7/Sbw7P2XzJnP4DavkXp/8bHocq1eq1xXPvHKthof/h9yhX/7dRqS5SXcTi9LPEr5dt29eBfmPc9IJVxcSC4dvWoEzq/xxsmhgXvMto1eXzkNL70Fu6gWAdFwQMlz/dTXeQQ+DLS6ImdtuCW6p8ZOfgraaIGk9PK8X72OQWDaIRb0OR9yf6amH6X0G1lMQB9jhj9ehj3qdbhyTqnCT8BgdINbOXkVjueTed9AV13uMkKNG4FZwXjl7QAYSO/jwki407CWcSrrgO3BkMqNoNEsuNHzzEdIFjIjRRFmL6pSyBa1OFZZtds1S0bxNopcPuCOaGJtgmKWoCtG4PRANU8efkKVOx3XQ3Zp0wLRJbGVhIiD1H6r3KYRMB2az/554n4JCAIJXER4OoogmFbwSy1cLP0pIvMzA55OVhfPQU2+HvuU5KAXDU5CEvuvSA2FcDg5DHXGluv3qKdBWGySdCjOjTcOAOIv52cEfsWy3QtD0B+AiXLDBgcNC8QMtaCOWqxajbwfSo8JzrF5dRuWiY05ZIIoihGeJF4KlgVJEW99CsG4NELTElXFQQFaLsLmMYyr6YwerAzlYjRLXDMJ/blRQEgL/mokAEPVCWflBA7S9DbXmUqAevWJYvZamcyZoaRPaxnNRBfH36TKCXDxD4Y92m4ROur0BE0tR8D4h8EARC0WwPpBeEg4e4CkHtb1KQd+08iusSPgZDOaHeC9CCG/CwOLVGWxSboc29jyUvFd3oIaDzQltsPh9bSC1cxf7aS4swVxZdZXD34C6gLCX7QHiQuHAYYGaNmBaAeS8epAUxdA9HWhFO8bfAANi5dQltMueg6mQcEwFCiEaRYKxSmg0GusXTKyZbzNi30eg8JWCclBYbgthZ2qbroJkc8NotEuic+77PREQ+JJZVhGKbDbNzKFa/WRClK1XEjOoqlHoZIxx3TaWkv2YhJPEZnd+QAun4KqGDrrNtQeVUzcT60hAqVc5RSgVSxvf3o+BIohU+VMawkFoaFqBg0PoeCakDpbmLmCc7INSOONWuMmtfUnUMVfyo1CGRmA3GjBmZ1lPxCAbeqW3O+XUw/YUxIFBtViI1/FXqElDOHSCgXeY0IaoC8X4uwR/o7VWxdq5K55qcKYL5SK2NjgsOEjkiBTboQW3HTzXXFyCIgSDeA2AQ1OKTU246mG6kGhjOTRa5cAsJp59K5hUspJwsPjmlbN9PrMZRrWFVrvWtVRPTqIfki0YoJ1J1kfFsJrxplNSim0BRCM1+8wH8Rx0mybykQwIIeQQ5cHjz0H4uDzh1MSrKEQyHPB7yBERFNIjGEOIgZWFJYwUb4GSPu2ZWdz4WXxozVMPbXI3W2RcvMSuQ1F1/xmGNn9gYkmAKBZgKW4DI0eqFJPlaqJRFA5RqAM01hmvzC6gvrDq5infpAIiI5tQJQqJENNl9+EU+S1QlsvBHSecp9xXcakXpoYEhu1F4XxIBkbG0eiUvMaOnLnEtcBNggEQzauBYgekczNq9cW+B+tAJKOLfkhuwPRCxle7NFlJGGaVJp0jTM0mgWG6eS9QkAS3LhaQ5o/VI4SHgooZMLa1rNdFgTVGtDlIqFcL7V05M1UCIHxfBJJpJTkSwXwHa+XLKAwryORNMZLlF9T+p86UHJTCCMyFBVDTYGPoys3AgwZ8oTEa+iBO5rYsrr4DIJqF3F4Dat6LVA2Hbbksw0T5whyMZhuKrnmOP/VaCITROgEKDhJerNnVmS3A7nhFIuEumYgRKZuDw4dCVg2LsK9WOfMKdKhDOjr1tqT84AIcMTBQEpjR/LqBoRyrr1gpH4vUpXTLpLGlvJdyBYA2NqHVeUGMiMkHo6RrEDkJpnqDc9B9FUk4TryCaFyDPN+84jxLCtGkIqEH714YD0nge0D0P8CZWP4Nyb3Q/NsjYrHQqKaZeZUb67iQ8A+ORZ0olOFp0FYL1tqKO6i13yycs/t9H0QwsRT3jyoWiOecsztUKXI7O1CyUTgcKKpXlpgfo6bc6Jgz7/hebGq58yz5BYkf4hb8OydTt0GNtkeKInQxD+oxbM6MsiUoLISOOGdS+fMjt2xBpT7PMojvM1K+ghcICwTOxPJbDlMOFEUDCumdaJZr6LCxQkno2/FK3ZfV5W6kpy2ktQm2X6uzIo4jGSsYJH5FF5gqVSWIydieiiSlWEA0zmfhG5BCiI2HUATDYfqRK0ByyOOG3QxDu/5T7FqlxH1Fykmtqs5urjDRFgByMjKrBS9MwLw6D6JroQp4N0T8GwoURHGfluo56KY/dKgVnC891oCStSNwtCt1NFcrUFQVUBUXCh4Qy4LN2mtZDFzK2fwCHIYJq9FwgwXs+pTQAQ8iUgjqL0LFEE0qW/I3nKntzRdGh9HW6zBrlidMhLMGuOik3yKbhI449TOZ96wdUIY3maCtnVhZe41rJED4POnNyGvi3q87yQ0aQGcTOmbZbRXsFBI9XX4i5hF0h6lcUYLoleCox6RkJ51Itjrh3EkueOUriQCJZxsTMTziOuPeR2FCs8p3POMfQggFV8fhvUSzqaJ6JYv85hbUlB08GJKbAG0ZoLYJoqueHwHehuCApW6UjT0lxfU9vJCum4EIUsM1aAOdCBytUhVGvQVVdx8j9Y4FBodTStmBrW77hYwDIAnhoKYFs9ZgFZguEOHQrQEQ1G8V7ysGB0qMavhAUM/3sA0w/ys/VcBy6QrX61CKSJLwN5UrfCGZV6AYzE/DapsoV5ZdU09+cVTOoIg45JAgGhzusJBxo3WOsyjk8KS0NDgGiZxDTp0OQasVwkGpX5O+DhPLNK0LqqoGHaGELsg0dMTZw1LcWmgBElBhyM1ANYjc9iq8mdjPWvDmZywklGWY+nwG6aKB9IDBMoWiD8MqrQZwEL8OA5Ik+pB4cDD1YCaHFfSUUzN1aAMNAQ4HhHa5xvwORQ8HlfMBcf0Cm7Fme0pJqB22dHZObdkwSg1YjU74coMwLReVsv1Ohl64todJZQvmlaMo7v6b3rYZK6VFt16HA4JyPR/dadgiW+wNKirK0KY2NGs31qrLME0zeF/dSnDhpRIpGueFdwcK46BlHfXWouB/ROYIV6RGzhU11f0lq2seHJzbyf7W46Rn78aFpW8rFwY329OEI5949icNTuqBEQsJOCDEuo+IidUlCaUM18whtJjc30ZVg9VSkMqaQFb3OlR5USiFCD3x/IdHPR+E+N1qSeiQU9ajrQ09vyoqB6XoVBvswlVNCxpYUr8+hdi+ReTybFNvBBf3GizDRmelAbPa9g4nh2kRfCI7NKcQfE66u7/hAWG62/ovf2TnKOoow+yYQf+SwO/wgylA+Em4iKqILSaoQjA2vhno6JhfvBBm5IQWM7EvNebFD460gPZOZlp1OtVIdEs4YIK/ih4wlStEBMODJSklmlg/+POhY7/wb9emAxWB18RZiNxzZpQ/aLOsGhBBIeD7FXQbI0k0XHnTKmgLREIHnr1sm6DT0KCRBehDmwBNdUOtXCSKVxBCw260LIMLGcdGSrsqKodtM5OKZXZNDaJxTD0IjdwXO6YHp92x0LhSQWetJTybcNw33s+IUQwZDlOekrDxnR0K48jUKDLbU1hZXONMKL7Q4bomUhL27ZfhUMJicXC4Bc3ah9W1ebTb7a7eRWDy8NZAQoYcGrGZT1Nv+tDF7CTtS2LMr24wraxF4XDmf+vf19c3aMPlV/Qnq8vqfQNjFiB9lSKKB7+eCxsK5hWCGGaoHPKwhJDvPnCtwFtIPBRcfxM//9utVXSMMvThLSCFMbeyTpEUxDevFM+p9/wFP7/o5AqgFzg4KMyW4aoS9878ARHYXrbr3Pu9J50/s2WienYVrcW6ZyMTyceIgcMiwWg/ARS2pBg+HLanGlwwzp/mRwoY2j2Aq5cvhT0TCe93cEECwr0jRVaO0NR2CoKJreNAJ4+VlZlwgOmkjETk9xyvMqpuY3BwDLQClGoXQ1WSMjmRjkCjJ0uEaa0E9qltoYLQ3mBTE5WQJ376/+Zx5P9XCU4dB0bE3iNSKJcHhYCLpyO+FSt3r6ITRgXHUjC1JEjcaIYJqzQLu74AdXgSysAmb73/iP0wr+3Z1+GlqmTe9V/G3+VuSylrpq6wD60rwTIXivDWqWfUO9dkNE2UTiwz1QieBfcJbB8GP6DBO+KiasSYVRYRlIIHw1eO/GgBO961DedPn476Gv57UqTMRLxvmtgSHNyy4UlHPd6Baq2MSrUck2W5V5bs+wrJgW58ognaOIy2UYVhtL0GdlQWn7BglZYIJ06AaWWVg4NXEZsmfoYtEZD/6szVY1+hkxfe9RvV6VSORppFiOqBoF+63wjRz6iBoFCutph/iBIjRL5/QMj4AITQZAhI+FuAxm7DXj0PWr0CZWgSxAFF0bgGeAjCg6zwRBUKXQFGvOYjzv0ETUYUHy2voSFx60zs8BjNhTpWX15Ec7Hhv/1gytdpUA4O3hHvCgcHQCwY3nxhrIBbPrgLp185ycK+RFYNwmVeXi0Qjt/lmpsuHKyVswfPps3TrGLw6pWXo5Er7n3JhV+iL+I9m01bwbrXliqvcj4NCUbHSU6iGUYiShWuX1mzRDg8FaE2Ej9A0qNHIf3yj/5q4MEjv1UJfBAREkgqIfocbnSYt3EhygKVlEK4Zw6kGOUAF82KqAcPjf/baoOunYNVucTaaJHBSUDPO644qNsEAMQ2oXQuuGaVPshuwHYUhvt6PhUK3bAyo3xqDWuvLKG92goUI4jSUNkZT4BDqt8Iwro8DDFA8NA4cNz6sT048dxxWJYp+R0kCgp4IBCoafBNEz94oQAT0y3o9m4sLy+gXCknvDeEisnnJHlTTl0GRtpIYTdrKl+t+y2CPX9CqklPNoa6C9ZqyUbHkODwWxYBTyYdsysgppH66ukf4IGDH2sUR3aYnh/HQ4KoshBIo+rxti7vA8QPyxPs589KtegCFIiqhwAGJIDYdZhAfR60MQ9oGZDsKEh6GFQbBGlfAQrTQHbCu0TnmIrw5EmoIeiU2lg7voyVF5eYE+7uRILb838HysFHp2yI7adsUSWSoJDB4OGYvHUz9r5/F47/6FUYbcur7+BgUGJAAUSI/K7Q/simnoOezlgYG9vJOkVdvjzrXrf0vpKc77h3y4f4xyZN0OZOVBtLMC1uwAcZCCo64DKC3WBaWKKxcLiOOlm/ieWkL1y8WPrKzVu+fPRPhx74hf9pFaks5SBBMPZV2PPHqwiEBAWVVIF28+qE58PNyD4IxA5SsWCIvwM18Vm1WkD9MojzF5R+HaBCQbPbQLQcd8KwcrN8qoTVl1ZQOV2KKiJCn91fxo87LSoHCQZS5Cv2hb8uYPAAbd3vwvHy06+iXqlzZhU3NgCF8BFUv/KX8gDZnpoooYHiXOfWW0woxs2Ym7uKVrMV+866uJPhDBXXpHMWxsaHQSs6VhyfkXLFL41GpIJjUclVJyQRJsuiWF61E+Bgm2wMELBh7VNfWrlofPbHfzUwfeS3ynxVYMRVD+pZfVAIoi1Ue+mkt6FQZcFnasRAgfi6kRCMeNNMjpCx1F5hf6TijaSh5dCuF1A6n0HpfJqpRqfUQWRHGk6D5iFcgCtoO8VHr5AMA6VdwJDMrFvfvwvbDm7GS0+eQK3c8Op8ZOUIfUTwo+F7LXpZvZEdDpVK7BCSgbE2hnK3w2iYuHRxNj7q0+W1SkwIS8e31UHrd6LeLKHZqiN4K0TahQ9MCeuSYfJnF5asKBye/2FZtPTf/N+VCwmX3hsQR0X+6JYtXzj9g+zDznN/32+WpZBvCIUQspUVRL7THknMf6J6IA6CXmAIvkwMGFKy2grWZjJYO5tB6Zw3tL8/UIIcLuamPhyCQ86DIkMhbdMVCgkONa3h4Pt3YWLPKF78/gnUS/Ug4wtNRahkXvGhIQEUGo5M5EGipm1M7y2yARnOnzsDwzCTQehR8InPnEDTbWzZOgQ08lirnPRKc+K/osTjEi6fdYPJ33dh2ZbgCOtCaBf1QL8Dx/2b03Pf+uM9k986/YPsfc7vu3+tCjeyhVhQAtHgFES0suKeJI3KKGLUAxDUgoegHzCA5D49pgPF6QxWz2QYHOK+CQ+HL9k4CIQpB0YEBnRXjyQ4tLSGuz9zELnhDF547ARqHhyEcCZsAArna3gwED/S5MdYfP/D9iDxdpm8pQXduhvlUgXzc0m9+8ICsRsjcgm/5aYaVPMOtI0WVkoLXAsMqRiVQ71BXoiBSXpX1YqFap1KcHAOuk0SHXSsZ2zedkb/XLrdOXLmqWxx9ZKO9/5mGaM7DMHEgg8KEc0pwR/vQ0WIJMOyUoBTCyAhyhUHBqIZ3WwpWHGg8MCABFCi0shVOHFgyFAgXi36/vPgGN1RxDs+dStM08Lz3z2B2poHh6cSVCpAQtszCorbAhscFH4fHmBgcxubNu0HbeuYOXOCZahYADgroV8/xFGPrVNZ0PomzC+f8p4PEQ7C79MbGO5c3MZMPZLgYKpCEz8Bje5GRjT90b4t9ymEPOxnmlvuaeLwL9dQ8Eb0EKIIcQ+sl3XVLWMSruySgSExte1I9jNq8zqWT2WwciqD+qIu7ht3HUm3QEWrMkk5ICnGRiDx97nprknc9oHdqK7U8dx3TsA0zEA5CAdJ3Dwh4Sj4hBsNhsQs0zMWDn1IhdJ4Ny6cm8WF87Nd31lfGYnbaOf+Mqa23QGzOYKXTv04eLLdTN8QmGhGIjHncJzz515qxMLhmFyWhdK//XppuNslr+vzB//mtblv/cmtk18C8HnnOs48ncXM01ncfE8Tu9/TxMSe8HvWQUeb2LvonWSTCvLDk9QCXcCozusonU+hdCGN0sUUUw0+msXHDhItwODGhEmicnRTDcT4Ib18Ei2n4o5fvgVbdo5j9WoFLzx6isFBiBiZ8t0+wccQnkuoGuyXpyQ06NTmbnbTnTUozQ+hVq3j/NnLyaVGpCCk0c2IuIqpx05XPRZWLnkVrSTcRMr/hESfeT/rri4YMZErDw7X/+iqHtjIF6Yyuv7Ftmncxz6F4N28A8nMD7MYGLew43AbE3s72H6Y+8B+eDsxR5SfhjTbRUXCZf48RXNNRXVOZyqxdj6NtQspMbSLsDUM4UYj6qdlMWJeIJ/h5WkcDLJP0g0K/2987wDu+he3QjfSuHxyCS8dnQkUIxg+SOGbkUhQKOE3Eok3JkAAhB226oBnxm25tYrhwduZaXXi+GtuXWGXVxZ5gQmZ1j/Gtj01aMbbYFom5peuulGxYLdofqBU+CnYwDQBJgSASK13OVgopY90uxNsBJDPvXSx9NRdm4+dqKnTfAnhzNeWVbz2WA4nH3frD0Z2mBjZYWBku4nh7Qbyoxb7k+5fmpFX0thtKnM6zBbB6rk0mzq/q3Nuk3cQEQbfSaI0Bg5IAbiElAQGEI1QxS2LQJDktHPbankVt/7SNuzev4N9qu3Y92Ywe3IpUAia9DUtCYrI1B+DzKbu5w69yJtz4uJEG9P7NoPWtuLczGVUPOefdnlN3e1QbrFjuuk2tt+UcX2PpUuuiQjezyDh/0gBKyp8JFzAvdPlVQOGgVg4LG/eVLr7H9joV27HU/TQdJbiYotAhiT4SYC1WQ2lyxrO8+2jABTGLPbnJAcY5sMQ0bfwfUujSVC5qgeZfuVsSmxvBQg16EkaFah8HBw96BDWc0oTqx69olddwOCBGj8wgLf/+m7kOgUYVQtPf/MEKkt10RFHjGmFGHXlQreBakBUDudP1Sn2vscErR3G2koFZ09F/Q45EpXwM9FMvemOMjTjTrQ6bcwtXPXMq14gxB+bHz+YSMeYnetE4LB4UCwc++I3y4n1H37aECAWyPTWrI1lQ0HD7g5J5L4IUF9R0VhV2fqlGc7BlDO7pASEa44OvlULjXnGlHvwfCRtPXBIZlewbRIkG3DQZZXRcyoOfHoSN9+xHXRFQ3mxjqe+foJ1dmI3YMdFqbz5BLXwo1Q+CME9cH13HL/gtg+vQWm+n5XqLz57Cv5nPnq6jgkKLCt/tmBi+85R0MomzF45A8MQT5AMAufXxMAEiK2bltYMNNsJTUv8eWr/Ra/bwkYAOf6u8UOW9zJvztk4XlfFQbfku+zXMadcScgt40tGytmyXboRh4ejnI0ugSXbtpGd4xxx9HDKkQwHZFMrxvTaelcRb/v1KWSbA6ArCmaen8PL378QmoyUAyLOnIIEC5VAobKZFZpWu965hrz2TtBOHi888yo6bVN+HMLxE18riTzGIB14dwW0foR1slpcWozsw28vgsD5HAmxAh6my/Od7nC4TX2+lXQLfFo3IAZRin4zCZUAU0UL50uq7EvH30RSioEjcJ4RX+ITSST84/BA8MvAt3hJgovGzPKwUNEXETI+wowO9AaDByk/ruOuL2zH+JYx0MsZGC0Tz/39aVw9s8qZUWJJyw7NfS+SBOOSxcMQAEG49d7frrvXsGlyDxuL6rWXLmBlsdL7la3TxNo83cDw0BRoPY/TZ48HzVVCEGji8eNA4Pcg3PLlkolm2470GOTnLYsc+1//trd5hY0AYkLMNJM7DWgDbcw8lUu4o+Qk5WPfJw9Vg5vvZRZR+bRUbH0P3q7tAQekd5YERWQa46jHggHfnFJw8FfHsOfjm0BnB0Av61i8WMFz3z6DerktOuDROwyT7FNwv3kQ/PPzkEzsqWHrzWOglVtw+cISzp2eZxvwmS72AfkppvSHZF5pKRv73tEBbexBuVxBqRQCSLkNe4EAxFQiSwXe7EJbGLU9DhRQfDn+ZqJp/YCYCMabpewDiMBdv1bB6kUda5f03geQ1YJyDmfcfAwkvY7PHwM8GJCURL4ufrYbHIiqBRDjh8SoBTww9vziIPb+4jD01hDs0wNsUIYXvnsep5+Zk8AIkzjsjnTZCaoh/xEOki17a9j3Xhv26jtRKTXw6gsXg/Gt+GcmnjEmxazin+0td5SRJbeDUh0nT78ifoWuJwjitqEFEZWY5VIHrXZMsxIJFE2x+jKvsGEnnXvZnbqCVM7GB7+wikf+x3F0GkrifnGlvGwKBfURRBoCOKHwTwQNkoMZZz7Fq3s0hCvNrwsMiIDsujeHg786hPxQAXR+BLSextp8HT95eAalhXpUUqU/olAxegPxGgAxMiX/+duN39TAviM27LX3w+hY+NFjJ1hDxEjqFeLtugIYGu9g560Z2GtbceHiZTSb4iAP3UGg4uF7wHR5sdMTDsuiX/13f19O7EEopw2ZWPzLr1xyD1EYs/CBz6/hO787mrwzrx7SvDwWtmAOdXPIZcj4h95v5V8/gPTjnCOqFv70pnszOPiZAgpjadDlMdhnh9BpmTj5o1m8/P1LXOiaBE45nzH55yH36fQLE0jACqrBpYHxDvZ/sAK7/GEYbQU/fOyE4JQD8onDR40kHhIgOfT+CuzKvWi12pidnYuoR6QSMGZGuM+Y8zrHuLrcQrNjcyO6kGgTE/Y+lL6iV37auA8StkzA0gsZjL+thYm9bdzzr0p4+j+GH+uh0hcTgjvuBkcP1YgkSZoitavcZkn7C6oiQ4H+weD313MEez+Zxr5PZpAqqKCVYdhnN7NR4+fPlfGj/+cM6qV2F1mV7kG4Tq/TARGvIS4T+eucZ+rAceenVqE07mV9y5994gTKKzEfyezy4COgJGy79+4SG32ROeanT6PTsUTjSJL3XiDw988fw7Io5lY7glLQGDgsm1z4/X9Y6Vk5yKd1A3LvMwtPPHbnhHBDFx/NMUCctPueBrvop/+D9EUrGtJO+oGjFxlUchApYhxLCNfJ/5CXxf5eLyDeND9OcPs/07H9HToDA8086OwEaCOP2lobz377HGZPrLLDxtUV8WORIaIe4Ya8eUhI1IziVcVJA5s6uPNXPDjMIl744VkszVXCEyc+tGiSu//IaWhTB3vvJLBXD2BpcQ2LC6vidXPHiZxc3iYyQwWYLi+3YZg0uVkJ9YdHol/sflfRtCEfxLbpMep9P8RJy6+lsHoyhZG9bmPF3e9xR/RwICEyFOhhVnGpp2UlKwf6kZs+IJHDuYgHAZIfsv3tBPs+oWJiv/edajMFenUHaH2IbXPs0Ut49emrMFoWuMLfnfoziggJINYJREwtvrVejEnkK8/W22o4+PEq8zkcOH769FlcmlmKPJPYFBNy7RYw0TM27vjIMuzK+2EaFk6+doFVOkb8jVhYoueNKku4Ydu0Mb/aFmCIrf+wUDIy/Tvnftqok/4EBQ6Byzyv/qdB3PO/LAfbOJCM7DDw3d8bDR33XmZUP40GJeUgsUWNtH10NgqJBANiwACiZlR+HLj1YxS7jihI5b03aKRAS9tBq2NsmzPPLeLFRy+httYKVI6ERpJ7H0RytL0roFJDMaECjUgWWYJNuu2gBMdTZ3GRh0NKkceY9AwT/I59zLS6BbRexMyZi2jUvGFWZaGQfgt1H33Ccn6hwfp10KSwrgcKBb785Uf6d8573GL39J3bN09bCjlPvUP4Tun2e5o4/JviNThwHP2DEcyfTEkdm7zZmGUg0sUl/O52I7GQdYMCMRAkLCuMUey408au91GMTCPsRGHlQEtToLVNbNu5mTJe+O4lzJ8th/ca6U9PIs1rIPThIEJ/DmE+br3C/anAniNl3PLeRgDH80+excUzS9FnGpfWkzu8bbfe3MDdvwB2vtXlCp750Ynk9yYrU7f1MetKDQMzC40ABipHrvihfdrm8JeffJ0AcdK3Dm15iAD386Ws83fbr1Ww+6NRp2/m6Rye++tBdJpKFA5EASExV7me6IlMSJy9LJtksSFd719hzMb2Oy3sfq/pQeHbQwQwc6CVnaA11zdzwPjpdy5i7mw5cKSDDBDT5gyECNBEgYhC4G+reOv8S1E4QA7/kxVsv70TwPHc0RlcPC0rR5fGVknOcsKy/JCJD31uGWrjQzBaGRz97otha130UdB1Wy/BZFKK1+ZraBnhaCWJKmLjq196bOVzCXfZNW3IxALLQKkvDG5PHynNVqd5SF76q0GsXdTx9t8SYXVMrh1va+G1R/M48WgeRlMJM+Q6+mNEL6SPVXGw9ADDSdvv6GBir4UddxoojHO5Gt43PDpF0PIu0LbbKe3qGQ+MM+UgA1Pei+bbgUEyMaXMSJNMJ9//kFwPPjk+wLv/5QKGxvKwlz8CUB3PPj6DCyc5OKQIUlKmpQnLEVOqv+ufLkIzDoNaebz03Gl0mmakEJSPGVcQUnSHxVl/tdxGq2NH6zt8h5wDharqup3zLrfdf3r5gffdVz6z+vD88WWxxAUw/d4mDv9GBXou+ukex+xyQHFUpbaiRh5SN6XodsFxPoawSAZFAmNinwOEgYl9Jib2GaJK+MU/TYG2JkCrNwNmlu176icLeP7vL6G62hJNRv+aA7UQlUIwq0BEE0s2o5Q488pVF4X7XdzawXv+1QJ0bchVDqrjme/N4PyJpZ7Ptu9nHrP92z62hpsPjYJW3onZ80s49sxM5GUm+RV9recO1TAtvLZU88yqHpErSr/6B49vTD0SbnV96bn//t0PW8uN+y48Oy9EgpxpccrAXf//MoanjMT9L72QwewLGTZ1wImtWe11tT2kJw4M1pFrh4mRKXfqwBHaQCQ6bxZB6zcxOGDrqK60cPLHC3j5+1dYSQnZn0AUEsJVAkZNLRLjf/QGROHMr933VHDwk2vsEwJORu20TTz+jVdRWqr39RxJXHHe7bl797DzbTXc9YturXx5tcMqHlnzfHnfrj4H6b6emz+5WkO9Y0XNKipWDlo2SqqlHv7ykwt9NUxMuMVrSw/u2Ty959DmFye354tnnryMTsN9MDwoBz9Vw96P1ZHKd/laIoDVSzpz5hdOptl8bVm9pmvzVSGVtRkIfketib1tbiupmOfm25UBtFe3opDfyRxwJ50/toLXfjzPpv7uRJjGQxIuI9FlGwAk8DUIYU197vz0Cib3N0DrB9ifA8djX3sVaxIcifZ/l+Xd9hme7OCD/3INWsutWzn67ZdRXqsLO2/I55DXe/NzjTbm6h0hpEuTQryUfvGPjq78TsKd9pWuGRAnfXn3ls+Pbx948K5fmMLMk5excKYkAAJWq2zj7Z+tYPeR5rqO7YDiKIsDSy9g+J6KIgTdEg8FUJkbAtqTSClTSKUH2bLl2RpTi3PHVphyxB6FJEASASUJEGldAiAhGO50eJuBd92/hFxRAa0eZuqxtlDHo3993K1vwfUxoeKWOwXPJ78wj5x6BzvvT5+aEetW5H0SfI7Y9THrmpaFk6VG+Gl7PoxLI91qSzo1dm4kctXtEjec/mDXlhdByKHbP7AVO/YO4dTRK5jnQIEHSypHcesn6rj5SAOF8YQPw72OqbqoghqbQdtb2ddVB0YG2HIHiiuny3jp8SuJUMhJhILE+xqcWqwHEBkM52//R8vY/+Ey84v8SNXsqVX88NtnWDsvxJoy/AV3uxl/tewohLOf/G/nMVzcybroXjy9hOefnOlhRmHjPgkBTlXrqJt2QkhXdM4tii/86ZPLX+pyh32l6wbIgzdPHlIpXnTm0zkNDiibt+cx+/IKLr68jE7DisAyOm0wUKbe0WIjorwe6crxNMtIqdQYG05zoDjKrpetO13G+WPLXZWiVyJ86HZdgMSYWP7X4/gwrwIURk2885+vYnx3CzCHA2f8xE+u4rnvnpcuKOYau6zrth+4TPvuf7GK3Yfz7Nyl5Tqe/PYJGG1zfWbUOpz0hU4HV1ttQSlk1QjaYFm48CdPLe/scnd9p+sGiJNeeM/E0afnlSP+byfj7b17M/trrLYZKHOny0Lm86Fx1GRyf5tBM7rTxNi00dNn6ZYcENp1wjIQrDyoWUQ6NY7JW4aCbXyVuHK6hKuny2g3Ylq0rjPJmV5UiD4BCcCIwrH3SBUHPlaGnrVZBySn9HbU4tnvnMfMi9FurMkX2mXTHuC885+WcCvrR/JRGC2CR7/+MureR0n7AaKXzwFJfZq2jVPNejRqJYd0PVWhlv3/sXeuwW1c593/H4AAeBElxoRESZREUjdKtl6Lvkmxx7JEX97EiZXI6dRqpnFi5Us703FrutM2nU5rq51O86kymw9tLo3JOo4TO4mlSLIt2xLp2LUt24koiRJFSiRIS6TECyiIN1x3T+ec3QV2F7u4kACxoPCfwYBYAtgFeX54Luc5z2n84f+mV5SY4ONmThceqLreO2Wr6J2If9vyymKsbahEXYMbSypd8F6ZhvfKFLyXpxD0CxjqibmKakvDgHGVSUdYMOqu02bEBs+5UF7pQvktxXAWlyA4WQ73qkUcTjUMbPCPXZnm5xm9PJUxIPRKF5C4YwZpXPazq0zEF7/lxarb/VKqWY43pq4Hcfzl8/BelQPjBPN+qVkMYvw0+eCGe6ex48mpqEvX9ptzGBmcMHxuUvBSBKYnOI0ZQTSMN/RZLErpwR++P/Z4gk+aljIKSNfOKr513wfDdgSSeEzVGyvgXl0G9+pFHJ5qeTAz6zLpTR5gO0vtHAS92OsnvEFuHUL+CAa7b2CCv+fsXKZ0ldBtMoGG2LQumTYgJ1jd4McXn/TyoJi7VBPb+eAcOOfF734VizfirgXpWRKj36l/veG+GTzw1Dio70Hunp58+xI8XSY1XUagGp0rCUxDkSBGhJDGUlBq4FbJBYnBolBd6xwDc7VmPZOuV+fOWLeTTRUiOrzmKwvB/X0fv+nFgHGVSJfFIFi6Oh4CJmYFWFyjfr98UXTgktiD6EPV/EiZW8B93xlH1QYJbj6/MXknjzc+/m0fOj8YMnjjmOLqOFP5OjR5j8o1YXzxCR+fX2Fw9J0bQV/niOFrIF9//PSUiXkzOTYlChiJhLWWQ3GjjLJYoPszCQcyCQiN2CpEeS30YgfFGjfF52PpGyj2za9WdL4h70S0PxHtjehdC/UBAmx+aBK3756QrAZzqdjADFbz2fp3Ws7CO2SwyCnuhDHFlaSkAQuD47G/GYUDGzikVy6N4+M3LyV/r7jjJvsjGBxjX30eIRCLLXTxRpwVEdD+k4/mnrXSK2OAKCsNlcre+58Bfv19IDiVqTPkj4wGPlF79+rjRGs9lm8K4p6913HLajnWCi+TXCqhDP1nvWh/pcfUpdJeRIqVbUlAqawJY/ffjcFhqwGduAPXR6bx4dFLpo0XlIfU7L1Nsmr6UngPDSAsUo0LRVWwaKyICF9EtM26nCSRMgoIUS07dZaJePhZgqP/nNjVWlDSDHxjK2F2nP29tn3Th/X3xSwDnboTdGYjj6XaXj7PAUkratRlhQyRSfB+7powvvb3ChzbMXUjiHde7kQoKKR2nhQsixFMwwhjQhSiLlXUcqjjDfUW2CD7Wk/OvpwkkTIGCFN0R1YQBEZFrN1BsfZegr6PMpoLsKxiA58YwELiXC3Fetzx9Qnc+sgkz9JxqQLxoYs30PZyj5RkMB3lJhdj1uJI/zwDMTh2/8MYnM4lvC0Qs1rtr3Uh6Ddu7qA9j1nkrT2nEUxTEHAVoYRgqGMRkaKl5eORtFcKpqrMWRC5X5biYgVGwT/Vw8+KaH3KiWACl3lByMR6EKPYQ35OzV1+bP+mD4vc8qBjscbMRl5LxQbiZ0d7caZdFYgngUMz0aZfDGZ0vSZPcNeG8bV/HIPLKVUEMzjefqkT48PG/8T4gNyoWbLqvJpfx2gRQOEhQRkKLQwmsHTQQLAp8V9lbsqoBRFUMYhfBsRVBmz70wje/1FGT2U5xQY+iYdCN++xYnMQd+6Z0NaLqWKNoZ4bOP5Sd1xq2nS+QFbCxnr6F5s8l8HxdTUcfoJjrcZwKBbR8Lwm10jiTh+j5ZKNxR2qWXI1DLpOJZTCR0W6r/V0ZrNWemVy1PaLqqZpkwOI7nXc8PUw+j6yYfDswoxHohN+KteKqF0rNRjfmMAKNRiqST9mNU60noPntHHmzmwBWOxCElykwYv1zDA49jznhcsVg+Otlk6MXzOuCDbtPGNwPBlMQ7YwpimNBt5KlopqZs1V2zeLtOlnn44m3KE2E8pocPDetuVUAYTd33vAj2KpbwEv+2j9bolU/rGAZDoTrjq24tYg7mJgbNZOgPJSkektfF7jwkfD+ODVXmMfX3/OlC4svc/hrgvj8f1aON786dkoHHHz6ymmdpNZPXZ83Cbgsi0Uq9I1c6mUn0W0vPTZSFayVgaXlzkdv7vqFCGkQQFkw7dCWPPlWGnIWJ8dr/xlaSZPmVMlg2MlA+OP4sHg7tTknTwIH7s8hQ9e7cvcROcs/qPrtgXw0NM+LRw/OQvvten4t0v0/prsFEn+GgL4iYjeohDCoFEXiupcKt16j46ffTZyR/qfcnbKdBarHUo7IAoMvFWENV9SBgeBuy6Ch5/x490XSjJ52pzIrK6K3ep3zvBbHBhCmbSgiblTMxF8eqSXl9NnVGku7N/84AweftoXrQpmcLzx47MYl2u74lK2CeIN7X7lSVJoRIpZL7lCvAGDGgSz+EOg8BWFg43pfcK5KdOR8yGR4hnl7zE9YsPg74pQ/UA4+lfa/FCQ//z+j/PX3TKyHK4yEbd/ZRr1O6fjS/dV2SkmBsWnRwayUiyZjhgYDBAaXCUt0Z0hOPqjGBxcZoNcXTWiz5ilCBODIzoZqIo3orPk6sCcEh8lYmO2g3KTy82c3rhzuUfZAZfy7YspGpsn4CjVFjuMeew4+q+LMDGSX4G7Zr2HDai+LYhNuySLEScFjJn6aJzxyeGBeSucNBOD+avfu47qLcHY+nV/BEd/KJewJBgVcWs2NL9M/XWfO8Pw2oV4q6GeJVfPolPs+/kfhlvS/7RzU8YBOXxX1S4ikjZAmjDk68LvDuGeZ+NrTpgFefeFReg76cz0ZWRFChyLq0RsapzBpl0G1kKWurBwsOcGPj08YImCShaMP/K0j98rcDAo3vtlD7xDU5ohkTTATvI7M5hGHQKuOMIxq6EFQW85IFLa9Is/jGS8zioVZcXHObZjzevByfAepZkc+9DrHg3g/z1pPNE02OnAu83MmsytSUPWRIAlywSs3R7gYLhrTbq0MIvhrwP1b+TxhpXAYGLXz9wqZkF48WOgDt7BaRz5zzNSZxZFyUaFATmpwjReJOBzZ0SbsTKIP2K1V7TlF6fmJ2NlcsmZ10d/tb3WFQifGvj4akW0eQMFbv/2FNY/6jc5NUXX8WJ0HC7FmMcak4psQDE3ZN22AMqXJVjgonOlrAYG047v3kDD7mnNvEvKxY/JMrwpWRgCv03EpZIwwpBrqKjOaqi7lEjHDv7y1HDGFj/NRlmLko89ecfz5WLkuaGzUkNrxZLU7gzgnj9PvEkkA6TrRAmudDrnDRb2requi2DVliCqbwtxMJJKyUoFV3EwPB1eHoBbCYzFywR89Xvj0kpMVXOH7k+G0f7znvgXJMvOpmxdtA9DNooLpWFe1GpmNXSPOwI00HhonoNyvbIGyIGamoo7/v/SU6WiUNv/yTVdQ7kI7v9rH8pSaNTA4pQxjwODnU6MeooQnLbxn+ei6i0hDsTSujB3l9jgWZzIQmiuxwYEq/k3sLNoJT9mleBbL7VLpW7u0PZyDwck6T8/DRgSwSQQ4GJpGDNEl7FSQNHHHwI6AiT3cCCbgEBqBbSnuv4Lr6+/dQm63uqPNrgG75NFUf/oNOq/MhOrYk1Jsdwh71Aii8Gj3x/RrVrPLlkI8w6PicSgGOutkHpl2Wv4EmEGA7MWDI5cp2v1Yp91295JyaVSJQxCMwRv/fg8rxCOKpURkGide5L34XCUSXCoXSqN1dDUWdH+EAneYQU4kG1ATu1cUuGdLrk+Ur4Ydz1cja5j/Zj2BjTWpMwt4PY/nsLquwNwltH0Z7qyJMVqOe213FLUNUh7L8Z1VrSY1FkqqNaUjF2ZQtvPenjjCiMlTN9Gn5T6c5SnDpREMOYQYyDoZsg18YcAH2z2xtdOD2W9xipVZRWQM/cv2wNCXu/w2uAvcuCex2pgC0VwoV1qUaoGhVmRdTv9vPPiLWZZoiyKAcGhOOfkQFSurELdVqlnltJZ0YrWQq3tfzLJLQeXKt7wnPbixEvd2kyVkaILVpI8LUVQJDiozmIYlZLwn30Q7I2vnbcOHMg2IB33Vx2gFM9MRki0iYN79SJs312DicEp9J68FvXb1dmuRUsFrNkWxIrbglhxa2hO/bGMxECYGLXLVsKFieFiVK9fylsSrdy4RAPFXJrIzZc0gTjkWi/fDh5vfPBaL860JS5nSSlFa/gi8xdcKREw7BSjcKhdqrislQgfEa0HB7INyO/vW9ZGQXax4d07YcNoIHY6BsrWh6pRWmqXui+eHkPIL2h7+spFj4uWCXxCjgHDtOK2UErnnxix89aikPtnsYB/1OPgXVMYCNUbK/g9uxZmGYZ6bqCvY4ynaa0OhSKN1WB/Mrl5Nbv+N//rPHetUlYKoyEVmLxOCk+JEK3qVgfh8XMf1GezKBzINiCf3LfMQ6mNb7ATEIAz4/FlJezbmrkyaxvcWOJ2YeC0l29A45X7WqktiyJ9Y2wYbL5DVe9fuWoR78HF71dJvbggtxod6vHx3llWSs2mIn2sAaEM4o0dUZfqeGu3xh00/UfPdgSYvI7DUSqoLIdRxioGh0DtjYcsCgeyDchH9y6nVLWI6nqlAE+PI+Fr2Ld6df0SrNxYgcWVLkx5g1IzuXHpG13TWE5+b1epnQ9+Rey10r3UjE7pqsjcJn6Tf85H6TNUTEqxIXepXk1QIZzifzvh0xL8ciwZHOoslkB9AqwNB7INyAfbl1N1uUn9X9zAoX9fIs0lpChmAdyrFvH2oovdxdHjCgSK1K1LORCXpQGUb5YhkdZuD/AZ8eicjapfFgP+eGtP5sBPY2QQGY6+KBzG7pTqcb9IbY9bHQ5kodxdI0FlPdi9jVA07J7ByV8Yd0s0EhvsxoN8IKPXamUxIB5+2qeZ3VdbjU+PDPCJyowqjWz7qIuij8UcItEE5YaBuUg7qLO48dDpgbz45soqIMoadeV+cqAIWx+b4mUkli1MtJCYO8VcKXUQrumy6A3geEtXTq3kjJ1iwCVKJerQw6EDJs/gwHxbkOkxO/+nMzfh6Pdvyeap814KGC5ViltvNViskct5GQbH+TJRKj7UWA6D2EOkB4mreF8+wYFsAxIRaQdUa9THuqQaKuZLs1vfyeJsnj4vFRdnQC6KnJSaRkuxxtmcJxlGHRT9xSLCBmDo4aCUtPz2wrWclazPRVl2sQj/tohakNEizIzZUeqWfOrWzmVpBewLWdVbQti+dzKuipjPa8zU8zmcMyeyEGvMQiMOikvFoiEY8YG5uO9w97V5XwmYKWXXxQJ9D5TsUlYWMkiuflaMdV+e5q7DN/7Fi1eeXZrNS7C8zMBQN5LzdHjx/qu9lpi8ZHBcdInyeg5djAF1W1D4KMTHj3YPZ2Snp1wpq2new1urdonE1qaOQ0rcAr78QmyrsK4TpXj3BxXZvAxLyhQMlTslBeE9lklVjxRR9LhELRiGgTntEEXbvjcuWj+Nm0xZbyvym9uXXwchFdE/JoC7/8yH2gdi20HfTJBsfnAGmxv98WCoOyzylkADmW8JNAcNMzic1BQMVbVuS1HQ2XRoIL+CcTNlfbmeALQQuRWQ8oft/FW5BhA2aJjLxSBZiDEJ+2ws+N62dzJ+YZZuua4VslN6dTsphu1U3mrALGNFfZTSpjcuzn/nkWwq6xbkla1VteUVpZ6p8UC0NITd7vz2BF8wpdaYx8HTvwtljoTBsPWxKWx+0K9J1ypSAnArtQTSq9tBcc1ODawG0c5vkIXhUuk1L53bev+t8fWTL1/YA5UVcZSKeOSfxvEF3doPZkGYJcnnFLCpGyWLr/Cb3sLjDauCESFAp4PiOqGxLzajjBWw/82LV5/P9fVmS/MCCG3bW/vh//R4PPLadAWSL9SE8aXnxg3XezBA3v/pkryxJu66MDY3zphai6grFaizNBiQdws75RAxqerGbgBGu2gT9x3rzs7OTlbRvPX+PPv8Ay/2f3j1qfErU5q1HsyCPGoCCbMmp4+UoeNwmSVjEwUKFl+YNn2waHdFM00R4A9Fyux4rHwEMTj6KUXTm71Xs7ark5U0b4AcqK+qvadxjWfgk2vRdR5U3pzultowvvK813TlIIOj60QJTh/JfXO56i0hrN3mTwwFtC2BgtOEr9GwMhhMozaK8zaKsGreKmYxqI+IpPnN3oXrThlpXrtH//ddtS/e9426pz771SUE/dLgUqzJomUCHvnbcVQmWY8+2OlCV1uJtFR2HmBhVmLVlhDvwau0C0ok3iPLvzE6j2HVzid6fW4Dum1Us1OxAgcoWpyRhZO6TUfzCsiBmpqKksWiZ+fe9RWf/Lo3OmjUqwbv2juJu5+YTOn9xjwOqblcv4MvpWWPZyMGgauM8qZx7lqpR1ZaLYKYtWCBtxxfWL3ziVrsP8DAGCQqVyoWJ7bbCGlaiNmpVDXv+w80r1vxfHGZ47kdT6zD+bbBaNGdehlt+VIBDz7tw8rbUuhuqJO0Dl2a3uFN5/pj0DhLRSyti32TS2DMriEEc/uc9hoguCpaes4sRdeHw5Z2o9TyA+iwUUyorQXkBU1A09s3SZyRSPMOCLMi9qLwKRDU3v/EOkQCEfz+yIAmcFe0cktI6qLeaLC1QA7ELBSDgblR5UuW82Mstrjw4bBlykFS1QiAs4SCt7+IuVXsQzQHIs4X3rsJ3Skj5WQHm//YsPIpULwIeQ361oeqcfbEIF82qwZEgYZ9y2960M8zRrPtjjgbsThn1FMEl2Ml75W1cr1UWMmg6OsYywsXykgXAVxCbPIPUv1UCxHF/ccGFnbaNl3lbIun5vUr2gjILuXxtt01fO35mRODGOyOfXnpV34yWKrloJm5Syk1mU4ixS1jMDCXLDhRzi0Eg7euoZK7TINyS6B8hQKyS3WaUvBPEE3h0nabaNt/bGAwr6tus6WcAfKDddW7KKFt6mOu0iJsureKN3DzdIyl3LRN6czOtCoFYK7IPX2Vxtju1VI7oOr6ClRvXAJnSRHvkcXcJgZGrhcnZULXKIMDfH4D0kRfv02kTW8PFOKMRMrpJoHN61a8SAh5yuh3bNAyWNi90q4nEw3dmFUor3RJUKxexIFQWgExy5XPLYGMxIDoEYG+aABOfZSi+fjAzTWfMVvlFBAesDtCHoAkrHUvryzmA5kNaGZlFEgmxlQ9snSqrpd6YjG3zVlaxHsBO+XXstvo5SmEZoS8C67T0Q0KfCoCM7FNNl+IUMf+QgCeunK+zWzz+hXPEJADc3kPBtDiylhxY9AfWVBWYDbqFqUbpC2ZW4poIQCfjXIOCKR9RE6BkIZcX8dCELMaHaJ0D9B2QknTOwM370TfXGWJzQAJbE0U2oC9oPQUlq1GH7catJ1S2/7jA0OFzNQcZQkLgiQBe0GJdY0CnSIwTdEPSvYdL6RsMyZLWBAmMeJssjtCe5IF7AXFNAOgQwBGKfptFMxiLKjlrlaQZSwIdDPsBZmLuVPMlbogSmC8UwAja7IUIDCYYS9Iq8sUOCfQ9gBF84nCJF/WZRkXS5FoF/fZBdupgqulFQPjkkjbJ8RC8D2fspwFQcHV0sjLA3DaMiGS5kK6dv5lSUBQyGphkFLfiIjmIVFsKUzw5U6WBQQ3KSTjIu24JJDmy3AcLJSE5F6WBgTyCkRCyHO5vo5sKgTqm6Y42Bchza0FN8pSsjwgUErjQV8EQW2uryWTCoG2B0TS+o5QsBZWVV4AArny11YUeibvrQlFPyW0WbSLB5sWeNO1haC8AUTRgfqqWlvE9lxexSYUDISDgg2tTTdxh5B8VN4BoihqUUC+Y0XXi4K2AzgkEtJegCJ/lbeAqHVgw8oGu4jvANiTK1ioVFreAdD3hIizvakQUywILQhA1GIumF2076Ii3clgyUbZCrcOzG0iOG2jto6newvVswtVCw4QIzFoiiJFtSIRG0AhlbAQshWg5uUsFO8pP9pg4wBEIkUdBctQUEEFFSTLensKFFSQhVQApKCCEqgASEEFJdD/BQAA//9QsvvLkoMicAAAAABJRU5ErkJggg==" parent="ZbF4BASj6-ml_1zqWkv2-61" vertex="1">
          <mxGeometry x="245.1982321300422" y="200" width="78.46153846153845" height="78.46153846153845" as="geometry" />
        </mxCell>
        <mxCell id="ZbF4BASj6-ml_1zqWkv2-10" value="AutoDesk Auth" style="outlineConnect=0;dashed=0;verticalLabelPosition=bottom;verticalAlign=top;align=center;html=1;shape=mxgraph.aws3.iam;fillColor=#759C3E;gradientColor=none;" vertex="1" parent="ZbF4BASj6-ml_1zqWkv2-61">
          <mxGeometry x="39.23381115188287" y="30" width="55.80164312891825" height="81" as="geometry" />
        </mxCell>
        <mxCell id="ZbF4BASj6-ml_1zqWkv2-57" style="edgeStyle=orthogonalEdgeStyle;rounded=0;orthogonalLoop=1;jettySize=auto;html=1;entryX=0.5;entryY=1;entryDx=0;entryDy=0;entryPerimeter=0;endArrow=classic;endFill=1;" edge="1" parent="ZbF4BASj6-ml_1zqWkv2-61" source="hl-4h9MKn_eqg86qbTQG-20" target="ZbF4BASj6-ml_1zqWkv2-10">
          <mxGeometry relative="1" as="geometry" />
        </mxCell>
        <mxCell id="ZbF4BASj6-ml_1zqWkv2-64" style="edgeStyle=orthogonalEdgeStyle;rounded=0;orthogonalLoop=1;jettySize=auto;html=1;entryX=0.5;entryY=1;entryDx=0;entryDy=0;entryPerimeter=0;endArrow=classic;endFill=1;" edge="1" parent="1" source="ZbF4BASj6-ml_1zqWkv2-63" target="hl-4h9MKn_eqg86qbTQG-3">
          <mxGeometry relative="1" as="geometry" />
        </mxCell>
        <mxCell id="ZbF4BASj6-ml_1zqWkv2-80" style="edgeStyle=orthogonalEdgeStyle;rounded=0;orthogonalLoop=1;jettySize=auto;html=1;startArrow=none;startFill=0;endArrow=classic;endFill=1;" edge="1" parent="1" source="ZbF4BASj6-ml_1zqWkv2-63" target="ZbF4BASj6-ml_1zqWkv2-76">
          <mxGeometry relative="1" as="geometry">
            <Array as="points">
              <mxPoint x="1497" y="1180" />
            </Array>
          </mxGeometry>
        </mxCell>
        <mxCell id="ZbF4BASj6-ml_1zqWkv2-82" value="persist derivative metadata" style="edgeLabel;html=1;align=center;verticalAlign=middle;resizable=0;points=[];" vertex="1" connectable="0" parent="ZbF4BASj6-ml_1zqWkv2-80">
          <mxGeometry x="-0.5452" y="-2" relative="1" as="geometry">
            <mxPoint x="77" y="48" as="offset" />
          </mxGeometry>
        </mxCell>
        <mxCell id="ZbF4BASj6-ml_1zqWkv2-87" value="logging" style="edgeStyle=orthogonalEdgeStyle;rounded=0;orthogonalLoop=1;jettySize=auto;html=1;entryX=0.5;entryY=1;entryDx=0;entryDy=0;entryPerimeter=0;startArrow=none;startFill=0;endArrow=classic;endFill=1;" edge="1" parent="1" source="ZbF4BASj6-ml_1zqWkv2-63" target="ZbF4BASj6-ml_1zqWkv2-83">
          <mxGeometry relative="1" as="geometry">
            <Array as="points">
              <mxPoint x="1981" y="1150" />
            </Array>
          </mxGeometry>
        </mxCell>
        <mxCell id="ZbF4BASj6-ml_1zqWkv2-63" value="AWS Lambda" style="outlineConnect=0;dashed=0;verticalLabelPosition=bottom;verticalAlign=top;align=center;html=1;shape=mxgraph.aws3.lambda_function;fillColor=#F58534;gradientColor=none;" vertex="1" parent="1">
          <mxGeometry x="1290" y="1130" width="69" height="72" as="geometry" />
        </mxCell>
        <mxCell id="ZbF4BASj6-ml_1zqWkv2-67" value="validate session token" style="edgeStyle=orthogonalEdgeStyle;rounded=0;orthogonalLoop=1;jettySize=auto;html=1;endArrow=classic;endFill=1;startArrow=classic;startFill=1;" edge="1" parent="1" source="ZbF4BASj6-ml_1zqWkv2-65" target="ZbF4BASj6-ml_1zqWkv2-14">
          <mxGeometry x="0.2199" relative="1" as="geometry">
            <Array as="points">
              <mxPoint x="470" y="902" />
              <mxPoint x="470" y="440" />
            </Array>
            <mxPoint as="offset" />
          </mxGeometry>
        </mxCell>
        <mxCell id="ZbF4BASj6-ml_1zqWkv2-68" value="validate session token" style="edgeStyle=orthogonalEdgeStyle;rounded=0;orthogonalLoop=1;jettySize=auto;html=1;endArrow=classic;endFill=1;startArrow=classic;startFill=1;" edge="1" parent="1" source="ZbF4BASj6-ml_1zqWkv2-65" target="ZbF4BASj6-ml_1zqWkv2-15">
          <mxGeometry x="0.0476" relative="1" as="geometry">
            <mxPoint x="980" y="700" as="targetPoint" />
            <Array as="points">
              <mxPoint x="1040" y="902" />
            </Array>
            <mxPoint as="offset" />
          </mxGeometry>
        </mxCell>
        <mxCell id="ZbF4BASj6-ml_1zqWkv2-79" value="cache derivative metadata" style="edgeStyle=orthogonalEdgeStyle;rounded=0;orthogonalLoop=1;jettySize=auto;html=1;startArrow=classic;startFill=1;endArrow=none;endFill=0;" edge="1" parent="1" source="ZbF4BASj6-ml_1zqWkv2-75" target="ZbF4BASj6-ml_1zqWkv2-63">
          <mxGeometry relative="1" as="geometry">
            <Array as="points">
              <mxPoint x="1325" y="1290" />
              <mxPoint x="1325" y="1290" />
            </Array>
          </mxGeometry>
        </mxCell>
        <mxCell id="ZbF4BASj6-ml_1zqWkv2-81" style="edgeStyle=orthogonalEdgeStyle;rounded=0;orthogonalLoop=1;jettySize=auto;html=1;startArrow=classic;startFill=1;endArrow=none;endFill=0;" edge="1" parent="1" source="ZbF4BASj6-ml_1zqWkv2-75" target="ZbF4BASj6-ml_1zqWkv2-76">
          <mxGeometry relative="1" as="geometry">
            <Array as="points">
              <mxPoint x="1430" y="1351" />
              <mxPoint x="1430" y="1351" />
            </Array>
          </mxGeometry>
        </mxCell>
        <mxCell id="ZbF4BASj6-ml_1zqWkv2-75" value="Redis" style="aspect=fixed;html=1;points=[];align=center;image;fontSize=12;image=img/lib/mscae/Cache_Redis_Product.svg;" vertex="1" parent="1">
          <mxGeometry x="1290" y="1320" width="73.8" height="62" as="geometry" />
        </mxCell>
        <mxCell id="ZbF4BASj6-ml_1zqWkv2-76" value="Amazon RDS" style="outlineConnect=0;fontColor=#232F3E;gradientColor=none;strokeColor=#ffffff;fillColor=#232F3E;dashed=0;verticalLabelPosition=middle;verticalAlign=bottom;align=center;html=1;whiteSpace=wrap;fontSize=10;fontStyle=1;spacing=3;shape=mxgraph.aws4.productIcon;prIcon=mxgraph.aws4.rds;" vertex="1" parent="1">
          <mxGeometry x="1456.9" y="1310" width="80" height="100" as="geometry" />
        </mxCell>
        <mxCell id="ZbF4BASj6-ml_1zqWkv2-83" value="AWS CloudWatch" style="outlineConnect=0;dashed=0;verticalLabelPosition=bottom;verticalAlign=top;align=center;html=1;shape=mxgraph.aws3.cloudwatch;fillColor=#759C3E;gradientColor=none;" vertex="1" parent="1">
          <mxGeometry x="1940" y="297.5" width="82.5" height="93" as="geometry" />
        </mxCell>
        <mxCell id="ZbF4BASj6-ml_1zqWkv2-90" value="AutoDesk SSO" style="edgeStyle=orthogonalEdgeStyle;rounded=0;orthogonalLoop=1;jettySize=auto;html=1;entryX=0;entryY=0.5;entryDx=0;entryDy=0;startArrow=none;startFill=0;endArrow=classic;endFill=1;" edge="1" parent="1" source="ZbF4BASj6-ml_1zqWkv2-89" target="ZbF4BASj6-ml_1zqWkv2-46">
          <mxGeometry relative="1" as="geometry">
            <Array as="points">
              <mxPoint x="390" y="1071" />
              <mxPoint x="390" y="612" />
            </Array>
          </mxGeometry>
        </mxCell>
        <mxCell id="ZbF4BASj6-ml_1zqWkv2-106" value="" style="group" vertex="1" connectable="0" parent="1">
          <mxGeometry x="500" y="840" width="380" height="340" as="geometry" />
        </mxCell>
        <mxCell id="ZbF4BASj6-ml_1zqWkv2-65" value="Redis" style="aspect=fixed;html=1;points=[];align=center;image;fontSize=12;image=img/lib/mscae/Cache_Redis_Product.svg;" vertex="1" parent="ZbF4BASj6-ml_1zqWkv2-106">
          <mxGeometry x="130" y="30" width="73.8" height="62" as="geometry" />
        </mxCell>
        <mxCell id="ZbF4BASj6-ml_1zqWkv2-91" style="edgeStyle=orthogonalEdgeStyle;rounded=0;orthogonalLoop=1;jettySize=auto;html=1;startArrow=none;startFill=0;endArrow=classic;endFill=1;" edge="1" parent="ZbF4BASj6-ml_1zqWkv2-106" source="ZbF4BASj6-ml_1zqWkv2-88">
          <mxGeometry relative="1" as="geometry">
            <mxPoint x="90" y="220" as="targetPoint" />
          </mxGeometry>
        </mxCell>
        <mxCell id="ZbF4BASj6-ml_1zqWkv2-88" value="Autodesk Forge instance" style="shape=image;verticalLabelPosition=bottom;verticalAlign=top;imageAspect=0;aspect=fixed;image=data:image/png,iVBORw0KGgoAAAANSUhEUgAAAMgAAADICAYAAACtWK6eAABq1UlEQVR4nOz9CZBd133nh3/PXd7e3a83oNFYukGABECAICBSEimJEqh9s03PyCN5xraoqhn7/59JylIlldSkktCqZFyOKwkly9t4JqZsZyxLSoaiZVsjihRIkVq4iARJEMTSWBtA791v3+5yUvfc7Zxz733vdQOgSJmnqvved/flfM739/ud5Sp4K72V3kqJ6S1A3kpvpS5J+1lfwFtp48n43qePsBmiFBViHxLXkvf12P0CQC/6PyjFBefPmde0zDFy71+UbsQ1v9kS+VlfwFspOdGjn542TUwrChwQhgByiFJaJIQc6rafbZvotKvOEcQV0ttWFA2p1GDy+Sk9RggpAfRJBx5VVY+Re//62LXd1ZsrvQXIGyQ5akAIpgnB7Q4IAI7I27QbNViWiXazBtsy0G7VYNsGKDXQbldBnLdJKHurxJuyefjzLjDCdgiXa1qW/fngaFqO/db1QSiKzl/KEwA9ZlPlSU1NPfHzrDZvAfIzSPToZ4um1TmiEPt9cTC0ajU0a3UYrRYalRKMdgtGp+Vl7DCDEyWcEoVGlsXC4sHAtomDBn6u8Je7UweQVGoA6fQYg8eBRlNz7v0wpcETiqL+xc+bwrwFyOuUjMd+9T4HCEpxhDeROk0HgjpqayW0qu5UBEGeuhk7WKa48y4g3lTpAQ14aHqDwqsMv05Ts8ikRxk06fQoA8YxxQih3/p5geUtQG5QcvwHy3JgwC8B5D5/ebvRQnW5jOqK81dCp9nmSnXf5ImCEQcLm1c8YAJQOFVRaQiMv61CE0wxablvlkGCCpzCCACBqUouswXZzAR0fciH5S8UBV8l9379wuv7Bq5PeguQ65hcKBwY6Gd5lVi9soLKUhlrV1cYICTIeN6E+034ZUGmjQMjnA9/+8oRwhIAolLxtyICEgdKrJpw5hcEsKkAjgNLPrsD2cwW3xT7qm3Tv9A/9PUnXodXcd3SW4BcY3L8Cctq389DYXZMrF5ewcrlFTbln3KgEJAUAzEqgRg4gowdAwoHR2BmcaAQ1Z9SARR/+ygwkjmGODVJhsSfOqqSc2BJb3EWPmHb9ItvFlDeAmSDyfMpPuubT61aGyuXVjA/s4D6Wj3ckAiTBDhoVyiSFYRyZpWsHBIcCrfcAySYSqoSpyKimiSbXEmQOLOOzzJY2MdgebOA8hYg60iOCWXb+G1KcT8hpOgoxdKFVSxfXMHypRVh28iD5VUkDpJYOGhXXyRQC09Z4uHg/6g4r3J/3jrXX6EBgBHf5BohcfZzTK7B/F7kslPOkicUhX7ujeqjvAVIH0lWi+pyHbOvXMXS+RVmTiWm9ZhWiFEMbMy8IhHzKh4UxVcT7i8wu5QY30SRAJD9kr4gCc01R1GGBg4im5501n9RUTJfeqPVqbwFSJdkPvbp+wHyACGYNtsmFs+t4uxzl9CqtPs/SJxygDNbEK8e/jI+nCuqCAcBBwIEWDgQYiBRVMns0mzJR4EECm9yXR9InGOlU+MoFg5CU4cuUEo/90Yyu94CREqO023brc9Tit92zKhmpY2Zn1zC4tlVOJDQPo8jKAa3MElJQlOrS+QqUT2ouEyJKkoACQeFwjnvgppooY8SjXh1g0R23KngZ3WDyUmD+X3sD6BfUj/w9S9cy3u8XuktQLwkg7E6W8blVxdx5dXFcBtEmzclJRIDB+JMLcmUQiSaRWN9D9kPEWvVo6AoMc56qCCcmjhT1YaicYCoyX4Jb4IhNrqVpC5Rp99JKX0IwwN3OGpyTFXVz/2sKxv/0QMig7FyqYwzP5zFymzZ24Dblv0nkeX84qDiLG4dEaNZcQ56kh8SABBbiy6piiKCIphYquyDQPBHAlAYILboo2wEknWYWsHzI8BQ4XbkM7tKFMrn9A9+7VsbfsHXmP5RA2I+9pnPA/QBF4wKTj91Cc40USlo/E/hIcY9UQkMd0qTI1gRFYlCARKtQQ9AijOtpD9FpVElYaaWZ3KpnF/SFRLut3BfPfwRIjVh4WDxj5VJT2J44E4oRPui+oGv/8563u31Sv8oATEe+9X7COiDjvO9crGCU0/NYvliOaoW/TocSYnEwyM66zwUNMHMQqxy5FIWNIUirVGklBC4LLGhBoenwX2YRIGhEPdYAFophUFkpBVQLQSFweP7JVofkCjREHBoVvUytZJVxEmqmsPo4N3QteJX1Q/8zeeu8Y2sO/2jAsStxyAPATjSKLVx6gezuPTSYowZdR3ggOR3QHraPUO9YYYfKlhIp2zk0zbyKQsplSKt2u41UgLY3vXyfzaJLvO3j1lOKUE7o8BIE5gZAjMHWHmSDIlCORWL1pdEnPYEU0uogIxREXj9VoYH3o60vuWYqmbufT1Dwf8oAPH9DIA8YLRMnH1mDiefmBW26fdB8Nv1y1DsdjFml5NZNI1iaNDE0ICJQtbGYN70MjyXuW0pw18nQILf3kVTBegUFBgDBMYYYOeo6LwHlYrx/kisqUVofypCOF/OW+ZAkk3teF0h+bkHxO2IRB5yzKlLxxZx/LsX4EDip6QHsNEHkwSNvJz/XShYmNjcYWAUclaYYfmMvw5AtHEFJM2DQGGXAGuNrgsQ4Q8EdgrojAHtHQAt2GIT+yR/hDe1+lGRGDOLX/56Q/JzC4inGg8A5POOOfXiIzNYueBGphL86K4pbn0vBekGxei4gdHxDkZHDWhOiWyLmT8OEH1rCiRFoI2rwdTJ/NomBwj4O/K5XppHsMwuURcYpxA5D9hNwJwjMK8S0FY8IPxvawBoT1GYW2zQlF8pKZtaXFSrbxWJN7P4UHAuPY1i4Y7XBZKfS0B41Tj95CxOeeZUbNVEt/DsBhLlj07FZflBC5M7WhgZ96Dg1YADhKQUqCMpBoQ2qkEb06AMKmJG7wlDH+sTjkdblIFinFfQOafAOKtEAAl20YDONgpjlw07b4ctidejInJEK05FeFgoQS4z9bpA8nMHiPX4px90VKMyX8exR2bgTEMQqOwnx6aNPJQ4NXGWaTrF+NYOtky1kM7aoalkh8pAdAX6liz0LRloW9LQxvSYjIw+M/t6wOg2D2G5A0n7hAbjnArziiLetLeZuqcIemce1fZl1k8+WUWiEa342nXezKKSA0hYCDiXmbqh0a2fG0C8HnwPE0IOnX/mKs48OQvT8zW6QXEtkHTzNwZHTIxtbTM4hOQBog2nkdpRgD6Vhzaa6pJhsaEM3q62WEbUMxoUhfC2m6Qc9jrO4W5nrRF0jmto/VSHeVUVVIWkdOi3j6F9q4l6/bK3sEtEizO31mNmOc+Q2gQjg3cil91+w5qm/FwA4tZr2A+Zbav4yiNnsHBqlS1PAqNfSOLWdfM7nHXFzQYmploYGIm28tVGMkjvKjIwlIIW7tUHEGarA7PdQafRAjUt1lXXtiz2ZzQ7XA7tcoH+daRUaLqrAum8xnbN5DWoOoGmkXg1SbhO86qC5tNptI/roE3iqqNjZQ1moN+7GdXCHDpGmYtoxZleXcysmGiWeznECywQjA/fg5Q++jntg1//au+7X1960wNiPf7p3wHIA9X5Ol74xmtoltrgqhSCtFFA+k0jWzuY3N1EyjGjuKQUUkjtGER2/yiUvD90TndzplNtolNroVWqMyhalYZUv4CIDQ+hApJe001lchr0jIJMToWeJtB00vV62c8m0HwqjdZzaVhrarBZ5o7tMO8ASuXT/ZlZ6/BDfEAUomOs+O5SJjN67/Vuu/WmBsR6/DMPAbj/6kuLcJRDBmPdgESehqwXJLLaAWMiBozUVBHp3SNITQ1GlQFiBmuXWmiu1tFYqKBda8E2Lal3HwdCXAemGwgLmB9FkM6pyBUUpHMKqzyMVxh32vheFo0fZF1FcfYfL0D/+FasGsfZOF6imbWOaFYCIE7StSGMD7/nmKYNXFen/U0LiA/Hq4+cgQMIYsAQoPAf+nVSkPyIicm9TWQHrPA4KRXpW8aQ3b+JKYebopEiu2OhermK5mIDtbkqAyJSjxBUwIkVccEyedsEWPgAxfV629mCwmBxpgEsUiHgwFF7JI/W8xn31GkN+V/ZizXlJDqmF26Pvd7+/RDHB+FvKp+ZwvDg266rP/KmBMSH44QHRwSMHhGrjdSD+EnP2th2oMEACfZNacgemEDmwAQL0bpJBMPumCifq6N6sYbapZqXIcABwPW9kH8Tud94dCrCIjX7uEGggIWuFRSGFKSz4AAJp8aMhvJXhwI1yX30ZlS3XEarvdy3H9LVUafizYwM3oFMase916vT1ZsOEB+O1x45gzlfOYioDDfCB1E0itHpNsZ3tcL9Uhry79qJ1NQwUw83iSZUbbaBlVdLqJyvwe7Y3vWGcER6DEqDKITzNrfMFmGSofKmIKLC3EhQMlmC/KD7Jz8HB47q1wfQPp5miwsf34fatgXUG7ORSsOug0OgNyCOP7Jp5MiFlD52+HqYWm8qQBw4zJZ5/2t/ewbLp1YEEOIAiAOln99yKmwysHlvk6kHfMU4uBWZA5NsXq4QsJoWll5ew+JzK+iUDS+jgjMZECyTewdGB4KTOi4pXhMP1e8eG4WFAUTCERZDP4b3axBe83XMBZoOjG72FAUQVLT2SAHNH7jDlTqQVCYvo9WaiwlArDOSJaV0ahzjxfdcF1PrTQOID8exv3wF9QV3WB3Sp2r0NK8SnoKjGhMHGgwQP+XunEbmtm3MphZ8CwDttTZmH1/A8surzD5O7CWImAEYIr0DuQEWiNipiYeDAeKDo3LqwqCyJVMtRlFugJrAU5SRzYQ1vuSfUeu5DKp/444oX/jMbVjLnoDh+CSeksgml/uwugASObO7ZbFwEIP5Ww5fa1TrTQGID8fLf/kKagv1rmBEoPAjI/JyLsUtyzuqcaDJIHFSaucY8u+6GcpAJrJtaaaK2cfmUJqphcfkLqSresidoBLHthJ7Cipe11i3+bntQqOGkATKwkMTmF784NY3zuxygB4aIRgoQogI+pA4hczAZ27DMnkept2IRrL6AIRPPCyOqbV5+CNPpD788L3Xcg9veED8piMv/tmLTDm6AsHB0Ld6SL+Zr7G3hYFJtwbcAaJw7z7ok8XIvmtnarjwD8lgyL/5noBJJpbYM5BC8dZHegaqXG9BLVQT9qdJoPCmmeyzvC5qAoxtgRfxcpMPibapgMyv7MJi9WnvOdEoIF3qQrqlXGYKQ/k7rslhf0N/YcobdufzZ/72DBoLdShSxpejVet1zuVlqQELYweabApmTu1E5uA2z88IkwPEzLfmsXamGj1mEhjBPEnoRhszSqJCYHvA2H73Wb97rEVYfw3223IURQVRFRcOy4eEgDimnu1AQpjKMLOQ2iyfUb97LitUnP+UXR/b5jpC0moC87PA2ASQSrvLMm9vgTYV1B4BzGdWUbzrAEqV4+KO9NqK8EbrIgZyex4CsHOjx3jDKgg9+s8PWZZ1dP7ZueKFR89xIdxkIPoFJW5ZfrKD4b0tpiDaWAH5e/dBGy0I2zeXOwyMKz9cjb3mZPXoYygfeZTEhIHfIkP1BH3JuUEXnKnmQaJZoa+ihariOvrRcPKNVBLnGse3IHTgAaYijpoM/JPbUBo5hbaxnNxnBOtTECel9XGMDt2z4WYob0gFOf77k4dazcbR1ny7ePHRc1AkKJLm0Y96EH7iPuzh/U3kJ11H3FEMx9fgk9GwcP47Szj7yDxsK+EEsrMvKAeJHYwhrBiUnXPCwUEFOKinLI5qUH/gBdtbbhNHHBzfHNRWoViegjig2I5qWGCd1amnJrA9BfEKa8+cu1FK4gjZwhVgdDOQH3CXDXymAvOKhvrjZzD86wcxb3y//wOShJYO3OK2sYS2cfW3AWwIkDecghx/cPLQ2ObpoyNDk8Vjf/gcbK5Fbj9g8EoDaZn827Hdx+5sQB+wXIfxI7dFfI3FF8p4+c+voLFkxFwt5+/IcCAhgiVEsmQViTOz4se1EobsUSl0UOjUM8OINGKipyDWiG962WIETLUjdSk3UkmctHlrqCTWqoq1/3ME2TtugnF7G5Xaa/0pSJ/JUZGRgfduyBd5QynIiw9OFdOp1MPjm3cUZ755ArRlBt+pJl3AkCsK5fWIWa4NWBja32JwOFAMfPQ2wdcw6hZe+Mos5p4rd7liEv6POXnExEqAJXTUJeXgMrqjEJoCZDQbBWpBtyhSHYq0RaHYNNr11vbrCfxljiKo7M8sUta/3B6yYA9bsDabrl8CX4lurJI4aWkO2LTV9UnUEQv5D9dR/y+zGNx/GDVlBjY1Is9zo8lREdMu/7b7bcX1pTeMgjhwaFbr6NTNhw8ZVyyc/eaJWCjigFivmeXAMXxngymI44hn75wWruXyk6s49mdX0albPa+7p5MOSTUCMGiMoy5GtTSNYjBtYiBlo6BZyCp2bA/EAICugPB/0X7p5lYT1jYD5o4OkLFfFyXRdGBiexjdKv3xMJTcDthHKKr117yWKyQ5zLuOlMtMY3Twjp3rHUX+DaEgLz44VEzZraODI5OHMloBF773IjOVk1TiWnwQfdjC4KEGlLzKwrep6bFgG0c1fvrlWVx9phx7DD/RhHl+AeUOQDh/MgSEcL9DpzydsjEyYGIwY2E4a4Yw2HEnc5O2yQJJueu1TSZImsqV+7BKKqw1xYVhTg/aRgXHuKyxv/SPs7C2G0gf2IL2tjW0rcUbpiSmAawsuI67kwr3VbH2f8yheO/dqCtnXBURnPKNn6vRuoBCds99AL60nv1+5grC4CCZo9RUDu3e/06s/GQRCz+4GEDRj3Pe1bTi6kbSWwzk97dY3YZjUvFRquXjNfzkdy8wSNDHg+nnXSVtE1dxuHmsg9Ehg8ERqAGvFjagjdrQxmyoYxa0cRvqoA1l0JLOxsHR4yqN8zrMqxrMOQ3GWT3sx8F1ekrdtRnNXfNoGZe9h30NuTQhOYBk8+589W8GoaT3wTzcRKVx4rqeZzC370LxF15ZV8j3ZwrI+QeHik0lc5Ra5NBgcQs2b96FU3/4LKy2KZhXfUWwYsK//Hxq0kDu1hYL4Q7+4mHB3zj5Nws49bX5Dd1DUnaJWy4vy2RsTO9oYbRoQFXAQeECoeYpUtM29Ekb+laLU4a4fiXYECR8cgDpvJpC6/ksA8ffVd8+DPW9Q6gNnoFhrd2Q8O+2m7xrWFVR+sOtGPzN2zG/+g997N3/xahqHpOjn1hX85OfGSAOHC01fZTa5JBlKrhp7x2oPL+CJV89uAuMBcMDohsUgc8xbiJ3exPpPRPIv/vmAA5HLZ793QtYOV6LXF/Sg+mW3eR1Sb+HiiamplooDpphV3FfJYaB9C0U6SkbykACCFJvPrkvhris11XHJweW9vMZNH6QC5uqv3sn2neUUGufuu45Z/NWgnTWvU5HRfTtb0d14gxanSv9HaCvW2TG7pd2fNrquxHjz8wHaWvpB0HJISdjpDMF6CSDtWevBLXlsWD0qiTkfvhOsVKwkN3fYnA4PoefKuebeOZ/nkG7arnNOfpM8qZ8MJlI/geR3tvQsImpnU0MDZmhX8GukSC9iyBzM4VSkM5ESeggU+ki+IMTGphGRhuwbRI0plQUAj1t93+TTmk7bCH3oTqy72mg+VQODefv6fPQLw2j+Mk7UMErsGlnXcfsllYXVWyZckP6uQ/XUf/bZWR3TPYPSF/vkD0Pxw/pG5CfiYKc/uOxh2xLud+2CBz1mNyxF+QKMP/tU8FFkQQognkZBkIjMqPmbWQPNpHZv1mA4/L3V3Hi/7rCFORaHkA3xQgLb4LBEQPbd7WYcgRmlE2Q2qYgs0+BPgFJAbqNf+U4tzaMNoXRoui0KauAM1puRVyv5Jgzepqy4Yj0FEUmS9nvnvfaJKg/mmfN1bVNBWQ/vRPL1lPXDRICHSObLeQH3JuoPTyCzLvuxdzq9f/ygQLl8LZ/ZvRlZr3uCnLmT0cfsi1yP/WGbXHe/UBxFJcffjlUjxgoCPdD+LIR31qWcyKJRpHdH4Xj0t8v4dX/4JZK6jXeiwwEkebTORu7DtYxGIBB2IiI6Z0asntUphwBAIH8+IoRQuKA0Cw7MNhot2zY9sYdZQeidpOwPz850KSzNrIFimzeFhoV+olkKQq/VIO+y0D1byiaXz+PsU/fg0Xz8Q1fi5wqq0oASPpgDeZMCZmJrf2rSJ/JgnUEwBsPkJk/G/u8bftwuO8/ny+C1kwYi7WgSUkiFNyXlaBwqiE1KXeWO2ZV5qAIx/E/uIQr318VGj3KqVdYN2k5P6/qFFv3NjEx3QIs916JTpC9JY3MHh1EB6cMJBwbygPFNoF22UZzzUKzbMGm3r0r/vT6ar8DTbOuoFl3QFEwNGIF/oCc0gfaUP/1Gqpfs9B65DJGPvVOrDafuS7XYRouuM659V0dGDMrrBb8egMC4H39hntfN0Bm/uPI/bDxIPwGpZ6C5AaKaF4sQeVb5cpQcP0loEiKwXU8cncGUlMdZA9vEuB49Q8uYS4BjqQOU3KiUp6JA2Rsuo0dB+ssKkUtMMXI7s4gc3PaAwOSaoSOS3PZRnPZQn3RDO6LOUiKd3K+gs8H5jonJ4MuXtGYCTY4YgclOp+0SRPFf72G0h8D5Nkisoe3oWlevi7nr5YUpLNu6FrdPAdVO9wtYL6hcxDva8X9pNcFkPMPjd5nW3jI9uCAZ1oxBRkoov6jy26TEq4fROw8ATfCh/8bQqcfx7nM3z0mwHHiK5cwf3SFtfj204YeLUnyOwhSOQs731nDwJjJwKCW43TnkN2XY+oRiUJ5cJgNG9XzJupXDdd0YpWG3omUbu29vXU3ABJ4pfnqgsoy7PBYVFEck8uBZOXfncPQ/rejrS5eF3/EUTLbtpiZp+1YBjGLrPOT0PQkSOu5d/E5Xv6GfqgfP+SGA3L+oaFDtk0folRxVUNqH5TJ5VFaqjGfQYBCkaCIA0QRfRKiU+TuyAtwnPzKRSx+f5X74lKY1gNJkkPuTDfta2LyQIM1GnRMKm0sjdyhIpScGvUxPAloL5mozHTQXPDVggRqmYyFvObGQgIWEXMVZaBoY3DEEvwTH5LaN8+i+KnD183UciBxlEsdsWDNLUHXhtE2Fq/xqOIz6tcPuaGAnH9oaJoQ9SgBKcrDvDqgKKoGVdVg1ZsgmgSGDIUSQsH7I3wUK3swjcFPHAjOf8qDQ+5oxadekHSLVCkpiqn3VDG01XDNqbSGzL4R6JuzMQ2g3L3rZ9soH2/DbNohGLJaUBp8r4PIphV9/SGBZ/q0mgRjWyyun7lrbqX2XYY6txPaSB6mXb/mczVrJGgOrwysQW8X0TG5rw1fj1ultC8/5IYBcv6hoaKiKg/bFoo0gALhaHgUyOQKaF8ueV1GQ7s6CgiCD9vLDrsPiDZGUPz07UEl4JmvXMRSjHLwA8hBWsen6Dsg4Sc2ABS2GJj+YCVQjdR0EendRTZSe2QMW0JRP9NC+aUWM6lcX4qEvgR/UmmZm/0ToJB/32BIHDVZuKRh01ZTCA3nPlxH7RsXUJjYg1LrhWs+j6MgThnPklKHrg4L6/v1GdENJpsc6cdEu2GAKDp5GDYOgTOnfCOe8hfumUYMBpUHRIJCmAc3miBYw8Ph3zgQwHHhzy9j2fM5kioWkfAbic1EaOCDjN7WxORddeZnkJSOzK1boA5nOXMKQW6vn2yi/NMGzLodRqAEODiFUOKCxUkmVwwkhNyQtlJ8cvxIx+SSIUnfcQ608UER+L5T9O78aBbR16Cp2zZ8vUkwEQ3FU3+mH9rzm939kBsCyOxfFx+iNo6wbgoI/Q7Kt4jwILFqTRbdcbuAciBwgARASH6JD8jQL9/Mxn91kgPGwt8tRloDo8c8n5LMKiVNMfn+KgamOqyA07ePIrVzHERTJK+EojXbRuWZGlpXjeDag4LCD9siRkX4k9Kwdpy1qI2tx+cjD/S6h4DjkgPJyqLKIPF9En1XB51jK8gW1x/RIjE1Uu2mF80iBlQld70uXTyvSnv6IdcdkMvfGLqfmrgfnCkVJMEcd9+i1Wh5CuIDwvsiok8Cha8DcU0tfWoI6T2j7FjVV2u48JWLwU0lqgeR85DYhoNKi52JPmhh6ycqSA87TrWG9K07oI4NehuEJpVZNrH2eAmNsy0u6EDC0oGHhHrrIPofbH0MNLGQEG5ff5VyY3oB8skxt1YXVOaT+Embvopsfes6ASGxRHfa/kHXoCr5mGLr2m+QqPT2XttcV0Dmvjl0xLbxkOyaij8gdrZ3TKoYQCI+iWRm+b8L90yxw3QWOzj/e2cD5UjqVCXPi4ly/8MCPj1uYts/LbMBHZSBAaT27QbR1IgDXn6ihMpzVdht2834hIYBLN+sCkCRTSkejHhTC3GQ8D4Vb0+oN9bUgucrtJt2EAIm6ctItw6t6xhx6uEko7Pe8En3s8QewXEBeqTrBsjcw0PT1LAfZn025YhVl4vVRwdcQFQejBg/RAlHI/SVRN82BH37EDvOhf/tLNAwoXXxO5L8j3ifw0253W1s+kiVwaFOTELfOSWNqEjRmWtj5T8vobPQDsPPHBTUewjEN6v4MwZqEq8a4XlkSBCVQllNbrDTDqmRIclSqE0DCkn1WSeSbA+ahrg8rW+6hlBv/HMgKnn9AIFlPwyQYtIrkc0WtotpQklr8YCoMYAQ0VHP3e2qx/xDszAuNATTKhYOwRKJSjZ/jSxSdVsLYx+tMo9O23kL1JHRiK+x9reLqPyw5MtWWOutcBEpD4KwfjDG5JLMvMRIFeF/UTY+llJXmE+kVKI+irXFZJ9spjE14tcjORm5Xg3bUBG1Dl0tom32zsxJ6uEnx4xjgQDtxnyj03kFL35FPXL4v7YS+6pfF0Dm/3P+IVAc8h3wfuPUrUYdSkoDSflRLGnaxQ/RJotssIXqsyWUOKecSKMrJqlHNHHmFQFyt7Uw+vEqoGWh774NJJcPtyNA50oTK1+7is5cKxQFPpbsR6UCJ9zdyHdXSES/+oNEMQG1SaDVFChlAqVBWDQNXu09i47aXv8SC9BecOcdSOwpA9bODuxRG0glvCQC6bp6p3olBMTxGXRlGG10B6QXHEDYOpko169ZfSRRZToIKcekawZk4ZGB+2HT+yNNrWW/w09BA0O3NLQzeqAggh+i0mitOtfsJLNnAnbdwuIfXoAqNXKEHN6ThuFJTF5+zt/WQvHjVZDMAPRb7gQ07zF55Jf/YR6l/7IA4aT+sW3uN+XqJnyl8HwMCklN/AulUUgUG9ANilSdQmkSUJMApgdEn4lUFaivpKG+nAZNU5BfzqI5tMCdirtOxD8sYQkXTm43CUwzHKhaCRudJV1NQuhOTKxPy7p8jfUlTaewKaa7bnMtJ1j4u9whWPaDG4stujder5SR2jQCs7IS74dwahIMbpDWkNo9gfnfnwHx/A6W5L4hJAGOJOeDAvkDLRQ/VoUyvA3qtn2Aqgcb2k0Ty//+LFpnaoFIBIV80h/4sC5/AZTTB1k93Pk0bOimBb1NQyikS9Z2WFDHbKbC6iYLJG0LwQDqZN6rGhucrTOTYr9Jm4A8bGLwU7egXDgtKVqPNyY0yw9Tu0GgDfrm0ChAU2EpKTWzYcMPyZG3mBfimFh+X/UbkbzH9L5u22wYkLWHh4oWNR+yeb+jSyROLgv8IW5qlTJGhwZgNZddMCJmlgcMF8VKTY2hdaKK5vMld/R1EvolkAAR4OhR8ZHd38LwR2ogQ9ug7jgo3Ej7dBVLfzIDu2kFN+O3CRPun0gFpM3LWTTUGw4U4h7U8bMyuomMarqjJ9rihatjgDZlQ5u0oW3zN+j2jXQgtb8d7G+cTbGhPp0/6+/KGPjMzajSmR7lNPc5tIThPltNBflBm5lDulIMK4YRny8o/zz4FdHXcuMSZWbcjVEQO2U8ANo7CgAeDhKW8v7verWEiakptFfPBSMBQu1ecahvG8f8751nbaGEJvAcICTRU+cSV7Dlbm2j+OEqyOB2KNsOCptVH1vA2jdmxZvh8nwACn98O8b8onJzkFBJFIUiN9RBJme4YBgkMKGUAoG+V4G2A24/9QAGEr0pwmU6QiIOob6rw/6y722g+rVBaK+MgRxIBa1lY7MoIVELLLh5dx+TC8s6Jlbch22C7buYceLmXjilswnAq+szUvqky4Zy/QFZ+07+iE3p57vW3cjzfgnkZSR/NHOz04KVLkDJOJdiJALC+yDNVyxY5ZY7FhQR22wJcPTy0r3r10dNDL6/BmXiVpARcVSYlYcuoP6j5fgHQWNUMk5F4AGjeEP4iFqK3KYWCuNttxuAk089MPSbdGjTKtRNhFMK23uI3jAobNhFWzq5dIMR/Q77dFT+Uwb51A5UW+e8PbjtSFQBCL+AhE2HWg2Vvb/w1JIdG5ibG1WGde7VB0zUCwQ8/fv6off8d/FNTtYNyNrRoaLd7jzUbWRtrsAR1MKBggaQkOA9ry3PoziyGUZ1NgREjQdEyQxi9ZtXXPVQuObvUtP3rj4IQnV34Bj5pQrU7beDDIZtfhxTavF/P4nOpWa3fCYcD0TKU7YEi81lFFCkhk0M3VKHqlBXMVjPQwXqZBr6nixIDh4YXgQkAof3cL2p0dGZs2x0NO6igHS6DV3vQFHESArJUuQ/voj63BbQYMR1IliE8k1SRMHhoaHGMDpmhRMu0v25gT+GdDZuH7eVcL+Q9Cs1XhMookQ//uKldQNCOu0HFJDpaFRdLr14OKgX1CGhgnj1Bc7v0vICNu/fD7N9yRtsOT7k68DQPGExZ5WpR1yDRiKact5ziCbqNlcvfqgGdcftIAMhHMaVBlb/6hyMuYbbDN92ez+upxCL5Ak7BEXNWhg6UEd6zAA6BNQzT/SbB6FO5dxzMjCs0HYLh14P4GjXVbQaBO2minZTCxw7IpQIjp+TZ886m21iYLCOdDYs6R0lyaQIsMDVsVD5vYZ3RSI3FkJjGgQq1d1voVOS8CDiU/wmxHP2AWtdzej7e1HOlTsKYlPlUNK4vesCZO176SOgJGpaIVKYcRnVHbaSkui4tFRxYyfOA61UW0gXRmGbSyEgqggINYHaSQVaWmqrxZlXQpdcdHfMix+oQZ+eFOG4WsfyH59gIWQWrWTD81BvLFwSjF8VlAdx74JTEyqZWoW9TQzsa7ifq/Fqi9Utg1CniyAZz1wKzClF8HVsy0KjTNGsuCYNu5YAirAlqJDBWSDA9VsaNQ316iAGh5oYHm8Em6S0QbduPkYR5GgTpRBumnBqwgDxNmY+SJ9wxCfvfszEwv2ak3O9NnX+7OujIArIQ7Jl5QJBOVtGNqdEOKjitSWivDlEsDh3ATfdvB2d+qIAiPsxSgRmlq55EKg9ehrCf6lUqBPxnceCNxwQRsP2ap3zZaz+5WugpsX6kvsjkQRjWPmg2J4D3cfLJ54YaEMWRu6tIDVmMMVw/pTBPNSpCZBcyu3ATv2aMRreBAUaJQONsoHaquVmSH5cXy8jRaNCYb8CCqFDDsorOiwzi7EtTe7BhLmZhg9PDEbEQMMDw1r2tjbBMOcE4LAOo4cH028pvD716D8Zhmti2TaZStqmb0DKj6d/B8B0aEdziVfTAA7OnIL70qk/aLOfobkixjRbqNVTyGaGQEkpxlkHrKbCht+Uw78CKJJKyYlQCn3cQv5d48BIGIRrvrSA8sOnWOZXUm7ts/tBmhAK5jz7oBAiml5dSsvCgSaK7626z8Uxp1QN6k3boYwMu2YUlUamphS2ZaMy10RtpQWzbXNDvyPoc0LBVzEIshFmXA+KEBJ3eXVNRWFQRSZvwbCa3vZEfKXBPfngiNAQoVMPkMrYsBspmFaz6wc2o0mO7LnJOR7tbLphgLhwsLIpMZLVFyBrR9PTxMZvh+UL4RxxN6OHEUduPdf7zym5xUo84mZ+7y04ixeuzmDX3n2w8CPBWffbZTkmicKbV1L9CJIGkQueiDte1sB7NaC4P1jcOj6P6j+cdP2awITyoeBURPEhcTME85mtcNjQIHkZS8nYGP5IhVU+0jYYHGRwFOrkLq8hox1x3cyWibXZEmpL9dDmFyUwDN8G3UVEuPwpBd87zTO1uG1W5lPYuqsJs5UWM3RQCSoqRui8xwDjb2sW0TYqCWFeiC8jPHLyFjR1Xbrxxh6fumWd1eVa+wJEI/QBKKRIZc+c0KDJCPGcHl8hAjh8E0toxu1JslMCK9TrVOW8QBMrS3WMTm4B1a6IvogC2A1fQZI6VSFaSeg/DO/fwDsJ1Km7AMVtDtE6MYfq904wOAjnYxBPHYjqmFPU/a1wkPhT4k5ZZuEc+dSEgZFfKrMpW67qINtuBcmPiOaU96Za5QbKV1bQWKmHJhR/8YQDgnJ+glA/wfVIE/wRqaealzotBWarAMO0Qp/BK6wgXoFnToXAhHEA99gKi/JuYv6kbVvdnT/u2N2URdcd+7IIy77WARviU6OhsOYstEtzk56ANI+mpy1C76c0akUIvzlnHDIcQvsrynUSQvCBFHhdtUsrsxgY2o/U2CKI1uEAodC3GWidTQV+STAlCXUg/LVSQN9EkNp/OIDDuLqK+hOvQPH8DaZyfkM/3qxSPSVRuD8LkXCy32Awu6eF0fvKTEFYym4GGbktrLPgktnqYOnkJbRK0VKS8tnIf04CENyWnO8hONJJLUc9k8qobkervcq/SPHYAjThQ6XBtbjLmDnEQrzV5EpCoG9vxNlKS9mwy8MwzNN97bPeZNPgb+OA2Bp9IDAfBAhoGFJk/gWRTBwiqIjvK7AZm4OE+iUiCUqohStnsWPgMEj2J+5wQJ6zxr7emrZjGjRyTeERAwh1983fcwDQ3V6A1moF9e+/AJKyg56P/kcwA/VwlEHlFEP+I/zXN91bGXhnA8MfrrjndUB0TLncdu9eQzjMZhtr52dRm1sJr9Md2iWo1KFQxG/WMN/HBCGm+JIoxAq+bs2pqVsoBcLS2YxG61QwikpoNYlFoVAQApJJRpHKWExBmu1VCRDa1YxKSg4csPIA1W+YD1KvqW6Yt0tPgK6ANH+cnrZNej/7wRX6XGAjWEC4sG4Iiz/ek7elTUJIaDhlpo1XIjkTy2pi+UoDmwrTQOp8cD1WTXVNLDWmSTzhRmCULtI5VfbATpCBze5x1iqoPfYTJ5tCSft5V45ahf4GA8V0oSCKZ2p5YLiFgBu5GPlEDbkDLfe8DogjhwMgPWcJtmGicukqypcWYJsO1HkOCi55USMq+MlOcad65+RrrXuE0wJH3h+TjAT33G61YBit0KwLAgBihg4+zUzjYUl7DnW7cxyyBG0k0qumKKjpjmbCvklyA5LtRdTtjfogtm17cEghTUk9gocmL/fhsEk4oIAPCQ2d86CPhDfIg7OgVr2KzOw0BneVWB8DdrFDluukc+HfqA8CUc6dzQcGkNrjfqGFGiaaP30FRLFA0p5dzVTDazjohXCDqcX5HqavHF79hAcGyRAMf7SG9DYv0+a3A0P7A1POT43lClZPX2ZmFWjaBd0v/eVc5GVGImiD98yYLdcnFJA+5OmZkm6oGmi01lzT0ne8iaQkPDBBND8KS0obBAw9OF7/Sbw7P2XzJnP4DavkXp/8bHocq1eq1xXPvHKthof/h9yhX/7dRqS5SXcTi9LPEr5dt29eBfmPc9IJVxcSC4dvWoEzq/xxsmhgXvMto1eXzkNL70Fu6gWAdFwQMlz/dTXeQQ+DLS6ImdtuCW6p8ZOfgraaIGk9PK8X72OQWDaIRb0OR9yf6amH6X0G1lMQB9jhj9ehj3qdbhyTqnCT8BgdINbOXkVjueTed9AV13uMkKNG4FZwXjl7QAYSO/jwki407CWcSrrgO3BkMqNoNEsuNHzzEdIFjIjRRFmL6pSyBa1OFZZtds1S0bxNopcPuCOaGJtgmKWoCtG4PRANU8efkKVOx3XQ3Zp0wLRJbGVhIiD1H6r3KYRMB2az/554n4JCAIJXER4OoogmFbwSy1cLP0pIvMzA55OVhfPQU2+HvuU5KAXDU5CEvuvSA2FcDg5DHXGluv3qKdBWGySdCjOjTcOAOIv52cEfsWy3QtD0B+AiXLDBgcNC8QMtaCOWqxajbwfSo8JzrF5dRuWiY05ZIIoihGeJF4KlgVJEW99CsG4NELTElXFQQFaLsLmMYyr6YwerAzlYjRLXDMJ/blRQEgL/mokAEPVCWflBA7S9DbXmUqAevWJYvZamcyZoaRPaxnNRBfH36TKCXDxD4Y92m4ROur0BE0tR8D4h8EARC0WwPpBeEg4e4CkHtb1KQd+08iusSPgZDOaHeC9CCG/CwOLVGWxSboc29jyUvFd3oIaDzQltsPh9bSC1cxf7aS4swVxZdZXD34C6gLCX7QHiQuHAYYGaNmBaAeS8epAUxdA9HWhFO8bfAANi5dQltMueg6mQcEwFCiEaRYKxSmg0GusXTKyZbzNi30eg8JWCclBYbgthZ2qbroJkc8NotEuic+77PREQ+JJZVhGKbDbNzKFa/WRClK1XEjOoqlHoZIxx3TaWkv2YhJPEZnd+QAun4KqGDrrNtQeVUzcT60hAqVc5RSgVSxvf3o+BIohU+VMawkFoaFqBg0PoeCakDpbmLmCc7INSOONWuMmtfUnUMVfyo1CGRmA3GjBmZ1lPxCAbeqW3O+XUw/YUxIFBtViI1/FXqElDOHSCgXeY0IaoC8X4uwR/o7VWxdq5K55qcKYL5SK2NjgsOEjkiBTboQW3HTzXXFyCIgSDeA2AQ1OKTU246mG6kGhjOTRa5cAsJp59K5hUspJwsPjmlbN9PrMZRrWFVrvWtVRPTqIfki0YoJ1J1kfFsJrxplNSim0BRCM1+8wH8Rx0mybykQwIIeQQ5cHjz0H4uDzh1MSrKEQyHPB7yBERFNIjGEOIgZWFJYwUb4GSPu2ZWdz4WXxozVMPbXI3W2RcvMSuQ1F1/xmGNn9gYkmAKBZgKW4DI0eqFJPlaqJRFA5RqAM01hmvzC6gvrDq5infpAIiI5tQJQqJENNl9+EU+S1QlsvBHSecp9xXcakXpoYEhu1F4XxIBkbG0eiUvMaOnLnEtcBNggEQzauBYgekczNq9cW+B+tAJKOLfkhuwPRCxle7NFlJGGaVJp0jTM0mgWG6eS9QkAS3LhaQ5o/VI4SHgooZMLa1rNdFgTVGtDlIqFcL7V05M1UCIHxfBJJpJTkSwXwHa+XLKAwryORNMZLlF9T+p86UHJTCCMyFBVDTYGPoys3AgwZ8oTEa+iBO5rYsrr4DIJqF3F4Dat6LVA2Hbbksw0T5whyMZhuKrnmOP/VaCITROgEKDhJerNnVmS3A7nhFIuEumYgRKZuDw4dCVg2LsK9WOfMKdKhDOjr1tqT84AIcMTBQEpjR/LqBoRyrr1gpH4vUpXTLpLGlvJdyBYA2NqHVeUGMiMkHo6RrEDkJpnqDc9B9FUk4TryCaFyDPN+84jxLCtGkIqEH714YD0nge0D0P8CZWP4Nyb3Q/NsjYrHQqKaZeZUb67iQ8A+ORZ0olOFp0FYL1tqKO6i13yycs/t9H0QwsRT3jyoWiOecsztUKXI7O1CyUTgcKKpXlpgfo6bc6Jgz7/hebGq58yz5BYkf4hb8OydTt0GNtkeKInQxD+oxbM6MsiUoLISOOGdS+fMjt2xBpT7PMojvM1K+ghcICwTOxPJbDlMOFEUDCumdaJZr6LCxQkno2/FK3ZfV5W6kpy2ktQm2X6uzIo4jGSsYJH5FF5gqVSWIydieiiSlWEA0zmfhG5BCiI2HUATDYfqRK0ByyOOG3QxDu/5T7FqlxH1Fykmtqs5urjDRFgByMjKrBS9MwLw6D6JroQp4N0T8GwoURHGfluo56KY/dKgVnC891oCStSNwtCt1NFcrUFQVUBUXCh4Qy4LN2mtZDFzK2fwCHIYJq9FwgwXs+pTQAQ8iUgjqL0LFEE0qW/I3nKntzRdGh9HW6zBrlidMhLMGuOik3yKbhI449TOZ96wdUIY3maCtnVhZe41rJED4POnNyGvi3q87yQ0aQGcTOmbZbRXsFBI9XX4i5hF0h6lcUYLoleCox6RkJ51Itjrh3EkueOUriQCJZxsTMTziOuPeR2FCs8p3POMfQggFV8fhvUSzqaJ6JYv85hbUlB08GJKbAG0ZoLYJoqueHwHehuCApW6UjT0lxfU9vJCum4EIUsM1aAOdCBytUhVGvQVVdx8j9Y4FBodTStmBrW77hYwDIAnhoKYFs9ZgFZguEOHQrQEQ1G8V7ysGB0qMavhAUM/3sA0w/ys/VcBy6QrX61CKSJLwN5UrfCGZV6AYzE/DapsoV5ZdU09+cVTOoIg45JAgGhzusJBxo3WOsyjk8KS0NDgGiZxDTp0OQasVwkGpX5O+DhPLNK0LqqoGHaGELsg0dMTZw1LcWmgBElBhyM1ANYjc9iq8mdjPWvDmZywklGWY+nwG6aKB9IDBMoWiD8MqrQZwEL8OA5Ik+pB4cDD1YCaHFfSUUzN1aAMNAQ4HhHa5xvwORQ8HlfMBcf0Cm7Fme0pJqB22dHZObdkwSg1YjU74coMwLReVsv1Ohl64todJZQvmlaMo7v6b3rYZK6VFt16HA4JyPR/dadgiW+wNKirK0KY2NGs31qrLME0zeF/dSnDhpRIpGueFdwcK46BlHfXWouB/ROYIV6RGzhU11f0lq2seHJzbyf7W46Rn78aFpW8rFwY329OEI5949icNTuqBEQsJOCDEuo+IidUlCaUM18whtJjc30ZVg9VSkMqaQFb3OlR5USiFCD3x/IdHPR+E+N1qSeiQU9ajrQ09vyoqB6XoVBvswlVNCxpYUr8+hdi+ReTybFNvBBf3GizDRmelAbPa9g4nh2kRfCI7NKcQfE66u7/hAWG62/ovf2TnKOoow+yYQf+SwO/wgylA+Em4iKqILSaoQjA2vhno6JhfvBBm5IQWM7EvNebFD460gPZOZlp1OtVIdEs4YIK/ih4wlStEBMODJSklmlg/+POhY7/wb9emAxWB18RZiNxzZpQ/aLOsGhBBIeD7FXQbI0k0XHnTKmgLREIHnr1sm6DT0KCRBehDmwBNdUOtXCSKVxBCw260LIMLGcdGSrsqKodtM5OKZXZNDaJxTD0IjdwXO6YHp92x0LhSQWetJTybcNw33s+IUQwZDlOekrDxnR0K48jUKDLbU1hZXONMKL7Q4bomUhL27ZfhUMJicXC4Bc3ah9W1ebTb7a7eRWDy8NZAQoYcGrGZT1Nv+tDF7CTtS2LMr24wraxF4XDmf+vf19c3aMPlV/Qnq8vqfQNjFiB9lSKKB7+eCxsK5hWCGGaoHPKwhJDvPnCtwFtIPBRcfxM//9utVXSMMvThLSCFMbeyTpEUxDevFM+p9/wFP7/o5AqgFzg4KMyW4aoS9878ARHYXrbr3Pu9J50/s2WienYVrcW6ZyMTyceIgcMiwWg/ARS2pBg+HLanGlwwzp/mRwoY2j2Aq5cvhT0TCe93cEECwr0jRVaO0NR2CoKJreNAJ4+VlZlwgOmkjETk9xyvMqpuY3BwDLQClGoXQ1WSMjmRjkCjJ0uEaa0E9qltoYLQ3mBTE5WQJ376/+Zx5P9XCU4dB0bE3iNSKJcHhYCLpyO+FSt3r6ITRgXHUjC1JEjcaIYJqzQLu74AdXgSysAmb73/iP0wr+3Z1+GlqmTe9V/G3+VuSylrpq6wD60rwTIXivDWqWfUO9dkNE2UTiwz1QieBfcJbB8GP6DBO+KiasSYVRYRlIIHw1eO/GgBO961DedPn476Gv57UqTMRLxvmtgSHNyy4UlHPd6Baq2MSrUck2W5V5bs+wrJgW58ognaOIy2UYVhtL0GdlQWn7BglZYIJ06AaWWVg4NXEZsmfoYtEZD/6szVY1+hkxfe9RvV6VSORppFiOqBoF+63wjRz6iBoFCutph/iBIjRL5/QMj4AITQZAhI+FuAxm7DXj0PWr0CZWgSxAFF0bgGeAjCg6zwRBUKXQFGvOYjzv0ETUYUHy2voSFx60zs8BjNhTpWX15Ec7Hhv/1gytdpUA4O3hHvCgcHQCwY3nxhrIBbPrgLp185ycK+RFYNwmVeXi0Qjt/lmpsuHKyVswfPps3TrGLw6pWXo5Er7n3JhV+iL+I9m01bwbrXliqvcj4NCUbHSU6iGUYiShWuX1mzRDg8FaE2Ej9A0qNHIf3yj/5q4MEjv1UJfBAREkgqIfocbnSYt3EhygKVlEK4Zw6kGOUAF82KqAcPjf/baoOunYNVucTaaJHBSUDPO644qNsEAMQ2oXQuuGaVPshuwHYUhvt6PhUK3bAyo3xqDWuvLKG92goUI4jSUNkZT4BDqt8Iwro8DDFA8NA4cNz6sT048dxxWJYp+R0kCgp4IBCoafBNEz94oQAT0y3o9m4sLy+gXCknvDeEisnnJHlTTl0GRtpIYTdrKl+t+y2CPX9CqklPNoa6C9ZqyUbHkODwWxYBTyYdsysgppH66ukf4IGDH2sUR3aYnh/HQ4KoshBIo+rxti7vA8QPyxPs589KtegCFIiqhwAGJIDYdZhAfR60MQ9oGZDsKEh6GFQbBGlfAQrTQHbCu0TnmIrw5EmoIeiU2lg7voyVF5eYE+7uRILb838HysFHp2yI7adsUSWSoJDB4OGYvHUz9r5/F47/6FUYbcur7+BgUGJAAUSI/K7Q/simnoOezlgYG9vJOkVdvjzrXrf0vpKc77h3y4f4xyZN0OZOVBtLMC1uwAcZCCo64DKC3WBaWKKxcLiOOlm/ieWkL1y8WPrKzVu+fPRPhx74hf9pFaks5SBBMPZV2PPHqwiEBAWVVIF28+qE58PNyD4IxA5SsWCIvwM18Vm1WkD9MojzF5R+HaBCQbPbQLQcd8KwcrN8qoTVl1ZQOV2KKiJCn91fxo87LSoHCQZS5Cv2hb8uYPAAbd3vwvHy06+iXqlzZhU3NgCF8BFUv/KX8gDZnpoooYHiXOfWW0woxs2Ym7uKVrMV+866uJPhDBXXpHMWxsaHQSs6VhyfkXLFL41GpIJjUclVJyQRJsuiWF61E+Bgm2wMELBh7VNfWrlofPbHfzUwfeS3ynxVYMRVD+pZfVAIoi1Ue+mkt6FQZcFnasRAgfi6kRCMeNNMjpCx1F5hf6TijaSh5dCuF1A6n0HpfJqpRqfUQWRHGk6D5iFcgCtoO8VHr5AMA6VdwJDMrFvfvwvbDm7GS0+eQK3c8Op8ZOUIfUTwo+F7LXpZvZEdDpVK7BCSgbE2hnK3w2iYuHRxNj7q0+W1SkwIS8e31UHrd6LeLKHZqiN4K0TahQ9MCeuSYfJnF5asKBye/2FZtPTf/N+VCwmX3hsQR0X+6JYtXzj9g+zDznN/32+WpZBvCIUQspUVRL7THknMf6J6IA6CXmAIvkwMGFKy2grWZjJYO5tB6Zw3tL8/UIIcLuamPhyCQ86DIkMhbdMVCgkONa3h4Pt3YWLPKF78/gnUS/Ug4wtNRahkXvGhIQEUGo5M5EGipm1M7y2yARnOnzsDwzCTQehR8InPnEDTbWzZOgQ08lirnPRKc+K/osTjEi6fdYPJ33dh2ZbgCOtCaBf1QL8Dx/2b03Pf+uM9k986/YPsfc7vu3+tCjeyhVhQAtHgFES0suKeJI3KKGLUAxDUgoegHzCA5D49pgPF6QxWz2QYHOK+CQ+HL9k4CIQpB0YEBnRXjyQ4tLSGuz9zELnhDF547ARqHhyEcCZsAArna3gwED/S5MdYfP/D9iDxdpm8pQXduhvlUgXzc0m9+8ICsRsjcgm/5aYaVPMOtI0WVkoLXAsMqRiVQ71BXoiBSXpX1YqFap1KcHAOuk0SHXSsZ2zedkb/XLrdOXLmqWxx9ZKO9/5mGaM7DMHEgg8KEc0pwR/vQ0WIJMOyUoBTCyAhyhUHBqIZ3WwpWHGg8MCABFCi0shVOHFgyFAgXi36/vPgGN1RxDs+dStM08Lz3z2B2poHh6cSVCpAQtszCorbAhscFH4fHmBgcxubNu0HbeuYOXOCZahYADgroV8/xFGPrVNZ0PomzC+f8p4PEQ7C79MbGO5c3MZMPZLgYKpCEz8Bje5GRjT90b4t9ymEPOxnmlvuaeLwL9dQ8Eb0EKIIcQ+sl3XVLWMSruySgSExte1I9jNq8zqWT2WwciqD+qIu7ht3HUm3QEWrMkk5ICnGRiDx97nprknc9oHdqK7U8dx3TsA0zEA5CAdJ3Dwh4Sj4hBsNhsQs0zMWDn1IhdJ4Ny6cm8WF87Nd31lfGYnbaOf+Mqa23QGzOYKXTv04eLLdTN8QmGhGIjHncJzz515qxMLhmFyWhdK//XppuNslr+vzB//mtblv/cmtk18C8HnnOs48ncXM01ncfE8Tu9/TxMSe8HvWQUeb2LvonWSTCvLDk9QCXcCozusonU+hdCGN0sUUUw0+msXHDhItwODGhEmicnRTDcT4Ib18Ei2n4o5fvgVbdo5j9WoFLzx6isFBiBiZ8t0+wccQnkuoGuyXpyQ06NTmbnbTnTUozQ+hVq3j/NnLyaVGpCCk0c2IuIqpx05XPRZWLnkVrSTcRMr/hESfeT/rri4YMZErDw7X/+iqHtjIF6Yyuv7Ftmncxz6F4N28A8nMD7MYGLew43AbE3s72H6Y+8B+eDsxR5SfhjTbRUXCZf48RXNNRXVOZyqxdj6NtQspMbSLsDUM4UYj6qdlMWJeIJ/h5WkcDLJP0g0K/2987wDu+he3QjfSuHxyCS8dnQkUIxg+SOGbkUhQKOE3Eok3JkAAhB226oBnxm25tYrhwduZaXXi+GtuXWGXVxZ5gQmZ1j/Gtj01aMbbYFom5peuulGxYLdofqBU+CnYwDQBJgSASK13OVgopY90uxNsBJDPvXSx9NRdm4+dqKnTfAnhzNeWVbz2WA4nH3frD0Z2mBjZYWBku4nh7Qbyoxb7k+5fmpFX0thtKnM6zBbB6rk0mzq/q3Nuk3cQEQbfSaI0Bg5IAbiElAQGEI1QxS2LQJDktHPbankVt/7SNuzev4N9qu3Y92Ywe3IpUAia9DUtCYrI1B+DzKbu5w69yJtz4uJEG9P7NoPWtuLczGVUPOefdnlN3e1QbrFjuuk2tt+UcX2PpUuuiQjezyDh/0gBKyp8JFzAvdPlVQOGgVg4LG/eVLr7H9joV27HU/TQdJbiYotAhiT4SYC1WQ2lyxrO8+2jABTGLPbnJAcY5sMQ0bfwfUujSVC5qgeZfuVsSmxvBQg16EkaFah8HBw96BDWc0oTqx69olddwOCBGj8wgLf/+m7kOgUYVQtPf/MEKkt10RFHjGmFGHXlQreBakBUDudP1Sn2vscErR3G2koFZ09F/Q45EpXwM9FMvemOMjTjTrQ6bcwtXPXMq14gxB+bHz+YSMeYnetE4LB4UCwc++I3y4n1H37aECAWyPTWrI1lQ0HD7g5J5L4IUF9R0VhV2fqlGc7BlDO7pASEa44OvlULjXnGlHvwfCRtPXBIZlewbRIkG3DQZZXRcyoOfHoSN9+xHXRFQ3mxjqe+foJ1dmI3YMdFqbz5BLXwo1Q+CME9cH13HL/gtg+vQWm+n5XqLz57Cv5nPnq6jgkKLCt/tmBi+85R0MomzF45A8MQT5AMAufXxMAEiK2bltYMNNsJTUv8eWr/Ra/bwkYAOf6u8UOW9zJvztk4XlfFQbfku+zXMadcScgt40tGytmyXboRh4ejnI0ugSXbtpGd4xxx9HDKkQwHZFMrxvTaelcRb/v1KWSbA6ArCmaen8PL378QmoyUAyLOnIIEC5VAobKZFZpWu965hrz2TtBOHi888yo6bVN+HMLxE18riTzGIB14dwW0foR1slpcWozsw28vgsD5HAmxAh6my/Od7nC4TX2+lXQLfFo3IAZRin4zCZUAU0UL50uq7EvH30RSioEjcJ4RX+ITSST84/BA8MvAt3hJgovGzPKwUNEXETI+wowO9AaDByk/ruOuL2zH+JYx0MsZGC0Tz/39aVw9s8qZUWJJyw7NfS+SBOOSxcMQAEG49d7frrvXsGlyDxuL6rWXLmBlsdL7la3TxNo83cDw0BRoPY/TZ48HzVVCEGji8eNA4Pcg3PLlkolm2470GOTnLYsc+1//trd5hY0AYkLMNJM7DWgDbcw8lUu4o+Qk5WPfJw9Vg5vvZRZR+bRUbH0P3q7tAQekd5YERWQa46jHggHfnFJw8FfHsOfjm0BnB0Av61i8WMFz3z6DerktOuDROwyT7FNwv3kQ/PPzkEzsqWHrzWOglVtw+cISzp2eZxvwmS72AfkppvSHZF5pKRv73tEBbexBuVxBqRQCSLkNe4EAxFQiSwXe7EJbGLU9DhRQfDn+ZqJp/YCYCMabpewDiMBdv1bB6kUda5f03geQ1YJyDmfcfAwkvY7PHwM8GJCURL4ufrYbHIiqBRDjh8SoBTww9vziIPb+4jD01hDs0wNsUIYXvnsep5+Zk8AIkzjsjnTZCaoh/xEOki17a9j3Xhv26jtRKTXw6gsXg/Gt+GcmnjEmxazin+0td5SRJbeDUh0nT78ifoWuJwjitqEFEZWY5VIHrXZMsxIJFE2x+jKvsGEnnXvZnbqCVM7GB7+wikf+x3F0GkrifnGlvGwKBfURRBoCOKHwTwQNkoMZZz7Fq3s0hCvNrwsMiIDsujeHg786hPxQAXR+BLSextp8HT95eAalhXpUUqU/olAxegPxGgAxMiX/+duN39TAviM27LX3w+hY+NFjJ1hDxEjqFeLtugIYGu9g560Z2GtbceHiZTSb4iAP3UGg4uF7wHR5sdMTDsuiX/13f19O7EEopw2ZWPzLr1xyD1EYs/CBz6/hO787mrwzrx7SvDwWtmAOdXPIZcj4h95v5V8/gPTjnCOqFv70pnszOPiZAgpjadDlMdhnh9BpmTj5o1m8/P1LXOiaBE45nzH55yH36fQLE0jACqrBpYHxDvZ/sAK7/GEYbQU/fOyE4JQD8onDR40kHhIgOfT+CuzKvWi12pidnYuoR6QSMGZGuM+Y8zrHuLrcQrNjcyO6kGgTE/Y+lL6iV37auA8StkzA0gsZjL+thYm9bdzzr0p4+j+GH+uh0hcTgjvuBkcP1YgkSZoitavcZkn7C6oiQ4H+weD313MEez+Zxr5PZpAqqKCVYdhnN7NR4+fPlfGj/+cM6qV2F1mV7kG4Tq/TARGvIS4T+eucZ+rAceenVqE07mV9y5994gTKKzEfyezy4COgJGy79+4SG32ROeanT6PTsUTjSJL3XiDw988fw7Io5lY7glLQGDgsm1z4/X9Y6Vk5yKd1A3LvMwtPPHbnhHBDFx/NMUCctPueBrvop/+D9EUrGtJO+oGjFxlUchApYhxLCNfJ/5CXxf5eLyDeND9OcPs/07H9HToDA8086OwEaCOP2lobz377HGZPrLLDxtUV8WORIaIe4Ya8eUhI1IziVcVJA5s6uPNXPDjMIl744VkszVXCEyc+tGiSu//IaWhTB3vvJLBXD2BpcQ2LC6vidXPHiZxc3iYyQwWYLi+3YZg0uVkJ9YdHol/sflfRtCEfxLbpMep9P8RJy6+lsHoyhZG9bmPF3e9xR/RwICEyFOhhVnGpp2UlKwf6kZs+IJHDuYgHAZIfsv3tBPs+oWJiv/edajMFenUHaH2IbXPs0Ut49emrMFoWuMLfnfoziggJINYJREwtvrVejEnkK8/W22o4+PEq8zkcOH769FlcmlmKPJPYFBNy7RYw0TM27vjIMuzK+2EaFk6+doFVOkb8jVhYoueNKku4Ydu0Mb/aFmCIrf+wUDIy/Tvnftqok/4EBQ6Byzyv/qdB3PO/LAfbOJCM7DDw3d8bDR33XmZUP40GJeUgsUWNtH10NgqJBANiwACiZlR+HLj1YxS7jihI5b03aKRAS9tBq2NsmzPPLeLFRy+httYKVI6ERpJ7H0RytL0roFJDMaECjUgWWYJNuu2gBMdTZ3GRh0NKkceY9AwT/I59zLS6BbRexMyZi2jUvGFWZaGQfgt1H33Ccn6hwfp10KSwrgcKBb785Uf6d8573GL39J3bN09bCjlPvUP4Tun2e5o4/JviNThwHP2DEcyfTEkdm7zZmGUg0sUl/O52I7GQdYMCMRAkLCuMUey408au91GMTCPsRGHlQEtToLVNbNu5mTJe+O4lzJ8th/ca6U9PIs1rIPThIEJ/DmE+br3C/anAniNl3PLeRgDH80+excUzS9FnGpfWkzu8bbfe3MDdvwB2vtXlCp750Ynk9yYrU7f1MetKDQMzC40ABipHrvihfdrm8JeffJ0AcdK3Dm15iAD386Ws83fbr1Ww+6NRp2/m6Rye++tBdJpKFA5EASExV7me6IlMSJy9LJtksSFd719hzMb2Oy3sfq/pQeHbQwQwc6CVnaA11zdzwPjpdy5i7mw5cKSDDBDT5gyECNBEgYhC4G+reOv8S1E4QA7/kxVsv70TwPHc0RlcPC0rR5fGVknOcsKy/JCJD31uGWrjQzBaGRz97otha130UdB1Wy/BZFKK1+ZraBnhaCWJKmLjq196bOVzCXfZNW3IxALLQKkvDG5PHynNVqd5SF76q0GsXdTx9t8SYXVMrh1va+G1R/M48WgeRlMJM+Q6+mNEL6SPVXGw9ADDSdvv6GBir4UddxoojHO5Gt43PDpF0PIu0LbbKe3qGQ+MM+UgA1Pei+bbgUEyMaXMSJNMJ9//kFwPPjk+wLv/5QKGxvKwlz8CUB3PPj6DCyc5OKQIUlKmpQnLEVOqv+ufLkIzDoNaebz03Gl0mmakEJSPGVcQUnSHxVl/tdxGq2NH6zt8h5wDharqup3zLrfdf3r5gffdVz6z+vD88WWxxAUw/d4mDv9GBXou+ukex+xyQHFUpbaiRh5SN6XodsFxPoawSAZFAmNinwOEgYl9Jib2GaJK+MU/TYG2JkCrNwNmlu176icLeP7vL6G62hJNRv+aA7UQlUIwq0BEE0s2o5Q488pVF4X7XdzawXv+1QJ0bchVDqrjme/N4PyJpZ7Ptu9nHrP92z62hpsPjYJW3onZ80s49sxM5GUm+RV9recO1TAtvLZU88yqHpErSr/6B49vTD0SbnV96bn//t0PW8uN+y48Oy9EgpxpccrAXf//MoanjMT9L72QwewLGTZ1wImtWe11tT2kJw4M1pFrh4mRKXfqwBHaQCQ6bxZB6zcxOGDrqK60cPLHC3j5+1dYSQnZn0AUEsJVAkZNLRLjf/QGROHMr933VHDwk2vsEwJORu20TTz+jVdRWqr39RxJXHHe7bl797DzbTXc9YturXx5tcMqHlnzfHnfrj4H6b6emz+5WkO9Y0XNKipWDlo2SqqlHv7ykwt9NUxMuMVrSw/u2Ty959DmFye354tnnryMTsN9MDwoBz9Vw96P1ZHKd/laIoDVSzpz5hdOptl8bVm9pmvzVSGVtRkIfketib1tbiupmOfm25UBtFe3opDfyRxwJ50/toLXfjzPpv7uRJjGQxIuI9FlGwAk8DUIYU197vz0Cib3N0DrB9ifA8djX3sVaxIcifZ/l+Xd9hme7OCD/3INWsutWzn67ZdRXqsLO2/I55DXe/NzjTbm6h0hpEuTQryUfvGPjq78TsKd9pWuGRAnfXn3ls+Pbx948K5fmMLMk5excKYkAAJWq2zj7Z+tYPeR5rqO7YDiKIsDSy9g+J6KIgTdEg8FUJkbAtqTSClTSKUH2bLl2RpTi3PHVphyxB6FJEASASUJEGldAiAhGO50eJuBd92/hFxRAa0eZuqxtlDHo3993K1vwfUxoeKWOwXPJ78wj5x6BzvvT5+aEetW5H0SfI7Y9THrmpaFk6VG+Gl7PoxLI91qSzo1dm4kctXtEjec/mDXlhdByKHbP7AVO/YO4dTRK5jnQIEHSypHcesn6rj5SAOF8YQPw72OqbqoghqbQdtb2ddVB0YG2HIHiiuny3jp8SuJUMhJhILE+xqcWqwHEBkM52//R8vY/+Ey84v8SNXsqVX88NtnWDsvxJoy/AV3uxl/tewohLOf/G/nMVzcybroXjy9hOefnOlhRmHjPgkBTlXrqJt2QkhXdM4tii/86ZPLX+pyh32l6wbIgzdPHlIpXnTm0zkNDiibt+cx+/IKLr68jE7DisAyOm0wUKbe0WIjorwe6crxNMtIqdQYG05zoDjKrpetO13G+WPLXZWiVyJ86HZdgMSYWP7X4/gwrwIURk2885+vYnx3CzCHA2f8xE+u4rnvnpcuKOYau6zrth+4TPvuf7GK3Yfz7Nyl5Tqe/PYJGG1zfWbUOpz0hU4HV1ttQSlk1QjaYFm48CdPLe/scnd9p+sGiJNeeM/E0afnlSP+byfj7b17M/trrLYZKHOny0Lm86Fx1GRyf5tBM7rTxNi00dNn6ZYcENp1wjIQrDyoWUQ6NY7JW4aCbXyVuHK6hKuny2g3Ylq0rjPJmV5UiD4BCcCIwrH3SBUHPlaGnrVZBySn9HbU4tnvnMfMi9FurMkX2mXTHuC885+WcCvrR/JRGC2CR7/+MureR0n7AaKXzwFJfZq2jVPNejRqJYd0PVWhlv3/sXeuwW1c593/H4AAeBElxoRESZREUjdKtl6Lvkmxx7JEX97EiZXI6dRqpnFi5Us703FrutM2nU5rq51O86kymw9tLo3JOo4TO4mlSLIt2xLp2LUt24koiRJFSiRIS6TECyiIN1x3T+ec3QV2F7u4kACxoPCfwYBYAtgFeX54Luc5z2n84f+mV5SY4ONmThceqLreO2Wr6J2If9vyymKsbahEXYMbSypd8F6ZhvfKFLyXpxD0CxjqibmKakvDgHGVSUdYMOqu02bEBs+5UF7pQvktxXAWlyA4WQ73qkUcTjUMbPCPXZnm5xm9PJUxIPRKF5C4YwZpXPazq0zEF7/lxarb/VKqWY43pq4Hcfzl8/BelQPjBPN+qVkMYvw0+eCGe6ex48mpqEvX9ptzGBmcMHxuUvBSBKYnOI0ZQTSMN/RZLErpwR++P/Z4gk+aljIKSNfOKr513wfDdgSSeEzVGyvgXl0G9+pFHJ5qeTAz6zLpTR5gO0vtHAS92OsnvEFuHUL+CAa7b2CCv+fsXKZ0ldBtMoGG2LQumTYgJ1jd4McXn/TyoJi7VBPb+eAcOOfF734VizfirgXpWRKj36l/veG+GTzw1Dio70Hunp58+xI8XSY1XUagGp0rCUxDkSBGhJDGUlBq4FbJBYnBolBd6xwDc7VmPZOuV+fOWLeTTRUiOrzmKwvB/X0fv+nFgHGVSJfFIFi6Oh4CJmYFWFyjfr98UXTgktiD6EPV/EiZW8B93xlH1QYJbj6/MXknjzc+/m0fOj8YMnjjmOLqOFP5OjR5j8o1YXzxCR+fX2Fw9J0bQV/niOFrIF9//PSUiXkzOTYlChiJhLWWQ3GjjLJYoPszCQcyCQiN2CpEeS30YgfFGjfF52PpGyj2za9WdL4h70S0PxHtjehdC/UBAmx+aBK3756QrAZzqdjADFbz2fp3Ws7CO2SwyCnuhDHFlaSkAQuD47G/GYUDGzikVy6N4+M3LyV/r7jjJvsjGBxjX30eIRCLLXTxRpwVEdD+k4/mnrXSK2OAKCsNlcre+58Bfv19IDiVqTPkj4wGPlF79+rjRGs9lm8K4p6913HLajnWCi+TXCqhDP1nvWh/pcfUpdJeRIqVbUlAqawJY/ffjcFhqwGduAPXR6bx4dFLpo0XlIfU7L1Nsmr6UngPDSAsUo0LRVWwaKyICF9EtM26nCSRMgoIUS07dZaJePhZgqP/nNjVWlDSDHxjK2F2nP29tn3Th/X3xSwDnboTdGYjj6XaXj7PAUkratRlhQyRSfB+7powvvb3ChzbMXUjiHde7kQoKKR2nhQsixFMwwhjQhSiLlXUcqjjDfUW2CD7Wk/OvpwkkTIGCFN0R1YQBEZFrN1BsfZegr6PMpoLsKxiA58YwELiXC3Fetzx9Qnc+sgkz9JxqQLxoYs30PZyj5RkMB3lJhdj1uJI/zwDMTh2/8MYnM4lvC0Qs1rtr3Uh6Ddu7qA9j1nkrT2nEUxTEHAVoYRgqGMRkaKl5eORtFcKpqrMWRC5X5biYgVGwT/Vw8+KaH3KiWACl3lByMR6EKPYQ35OzV1+bP+mD4vc8qBjscbMRl5LxQbiZ0d7caZdFYgngUMz0aZfDGZ0vSZPcNeG8bV/HIPLKVUEMzjefqkT48PG/8T4gNyoWbLqvJpfx2gRQOEhQRkKLQwmsHTQQLAp8V9lbsqoBRFUMYhfBsRVBmz70wje/1FGT2U5xQY+iYdCN++xYnMQd+6Z0NaLqWKNoZ4bOP5Sd1xq2nS+QFbCxnr6F5s8l8HxdTUcfoJjrcZwKBbR8Lwm10jiTh+j5ZKNxR2qWXI1DLpOJZTCR0W6r/V0ZrNWemVy1PaLqqZpkwOI7nXc8PUw+j6yYfDswoxHohN+KteKqF0rNRjfmMAKNRiqST9mNU60noPntHHmzmwBWOxCElykwYv1zDA49jznhcsVg+Otlk6MXzOuCDbtPGNwPBlMQ7YwpimNBt5KlopqZs1V2zeLtOlnn44m3KE2E8pocPDetuVUAYTd33vAj2KpbwEv+2j9bolU/rGAZDoTrjq24tYg7mJgbNZOgPJSkektfF7jwkfD+ODVXmMfX3/OlC4svc/hrgvj8f1aON786dkoHHHz6ymmdpNZPXZ83Cbgsi0Uq9I1c6mUn0W0vPTZSFayVgaXlzkdv7vqFCGkQQFkw7dCWPPlWGnIWJ8dr/xlaSZPmVMlg2MlA+OP4sHg7tTknTwIH7s8hQ9e7cvcROcs/qPrtgXw0NM+LRw/OQvvten4t0v0/prsFEn+GgL4iYjeohDCoFEXiupcKt16j46ffTZyR/qfcnbKdBarHUo7IAoMvFWENV9SBgeBuy6Ch5/x490XSjJ52pzIrK6K3ep3zvBbHBhCmbSgiblTMxF8eqSXl9NnVGku7N/84AweftoXrQpmcLzx47MYl2u74lK2CeIN7X7lSVJoRIpZL7lCvAGDGgSz+EOg8BWFg43pfcK5KdOR8yGR4hnl7zE9YsPg74pQ/UA4+lfa/FCQ//z+j/PX3TKyHK4yEbd/ZRr1O6fjS/dV2SkmBsWnRwayUiyZjhgYDBAaXCUt0Z0hOPqjGBxcZoNcXTWiz5ilCBODIzoZqIo3orPk6sCcEh8lYmO2g3KTy82c3rhzuUfZAZfy7YspGpsn4CjVFjuMeew4+q+LMDGSX4G7Zr2HDai+LYhNuySLEScFjJn6aJzxyeGBeSucNBOD+avfu47qLcHY+nV/BEd/KJewJBgVcWs2NL9M/XWfO8Pw2oV4q6GeJVfPolPs+/kfhlvS/7RzU8YBOXxX1S4ikjZAmjDk68LvDuGeZ+NrTpgFefeFReg76cz0ZWRFChyLq0RsapzBpl0G1kKWurBwsOcGPj08YImCShaMP/K0j98rcDAo3vtlD7xDU5ohkTTATvI7M5hGHQKuOMIxq6EFQW85IFLa9Is/jGS8zioVZcXHObZjzevByfAepZkc+9DrHg3g/z1pPNE02OnAu83MmsytSUPWRIAlywSs3R7gYLhrTbq0MIvhrwP1b+TxhpXAYGLXz9wqZkF48WOgDt7BaRz5zzNSZxZFyUaFATmpwjReJOBzZ0SbsTKIP2K1V7TlF6fmJ2NlcsmZ10d/tb3WFQifGvj4akW0eQMFbv/2FNY/6jc5NUXX8WJ0HC7FmMcak4psQDE3ZN22AMqXJVjgonOlrAYG047v3kDD7mnNvEvKxY/JMrwpWRgCv03EpZIwwpBrqKjOaqi7lEjHDv7y1HDGFj/NRlmLko89ecfz5WLkuaGzUkNrxZLU7gzgnj9PvEkkA6TrRAmudDrnDRb2requi2DVliCqbwtxMJJKyUoFV3EwPB1eHoBbCYzFywR89Xvj0kpMVXOH7k+G0f7znvgXJMvOpmxdtA9DNooLpWFe1GpmNXSPOwI00HhonoNyvbIGyIGamoo7/v/SU6WiUNv/yTVdQ7kI7v9rH8pSaNTA4pQxjwODnU6MeooQnLbxn+ei6i0hDsTSujB3l9jgWZzIQmiuxwYEq/k3sLNoJT9mleBbL7VLpW7u0PZyDwck6T8/DRgSwSQQ4GJpGDNEl7FSQNHHHwI6AiT3cCCbgEBqBbSnuv4Lr6+/dQm63uqPNrgG75NFUf/oNOq/MhOrYk1Jsdwh71Aii8Gj3x/RrVrPLlkI8w6PicSgGOutkHpl2Wv4EmEGA7MWDI5cp2v1Yp91295JyaVSJQxCMwRv/fg8rxCOKpURkGide5L34XCUSXCoXSqN1dDUWdH+EAneYQU4kG1ATu1cUuGdLrk+Ur4Ydz1cja5j/Zj2BjTWpMwt4PY/nsLquwNwltH0Z7qyJMVqOe213FLUNUh7L8Z1VrSY1FkqqNaUjF2ZQtvPenjjCiMlTN9Gn5T6c5SnDpREMOYQYyDoZsg18YcAH2z2xtdOD2W9xipVZRWQM/cv2wNCXu/w2uAvcuCex2pgC0VwoV1qUaoGhVmRdTv9vPPiLWZZoiyKAcGhOOfkQFSurELdVqlnltJZ0YrWQq3tfzLJLQeXKt7wnPbixEvd2kyVkaILVpI8LUVQJDiozmIYlZLwn30Q7I2vnbcOHMg2IB33Vx2gFM9MRki0iYN79SJs312DicEp9J68FvXb1dmuRUsFrNkWxIrbglhxa2hO/bGMxECYGLXLVsKFieFiVK9fylsSrdy4RAPFXJrIzZc0gTjkWi/fDh5vfPBaL860JS5nSSlFa/gi8xdcKREw7BSjcKhdqrislQgfEa0HB7INyO/vW9ZGQXax4d07YcNoIHY6BsrWh6pRWmqXui+eHkPIL2h7+spFj4uWCXxCjgHDtOK2UErnnxix89aikPtnsYB/1OPgXVMYCNUbK/g9uxZmGYZ6bqCvY4ynaa0OhSKN1WB/Mrl5Nbv+N//rPHetUlYKoyEVmLxOCk+JEK3qVgfh8XMf1GezKBzINiCf3LfMQ6mNb7ATEIAz4/FlJezbmrkyaxvcWOJ2YeC0l29A45X7WqktiyJ9Y2wYbL5DVe9fuWoR78HF71dJvbggtxod6vHx3llWSs2mIn2sAaEM4o0dUZfqeGu3xh00/UfPdgSYvI7DUSqoLIdRxioGh0DtjYcsCgeyDchH9y6nVLWI6nqlAE+PI+Fr2Ld6df0SrNxYgcWVLkx5g1IzuXHpG13TWE5+b1epnQ9+Rey10r3UjE7pqsjcJn6Tf85H6TNUTEqxIXepXk1QIZzifzvh0xL8ciwZHOoslkB9AqwNB7INyAfbl1N1uUn9X9zAoX9fIs0lpChmAdyrFvH2oovdxdHjCgSK1K1LORCXpQGUb5YhkdZuD/AZ8eicjapfFgP+eGtP5sBPY2QQGY6+KBzG7pTqcb9IbY9bHQ5kodxdI0FlPdi9jVA07J7ByV8Yd0s0EhvsxoN8IKPXamUxIB5+2qeZ3VdbjU+PDPCJyowqjWz7qIuij8UcItEE5YaBuUg7qLO48dDpgbz45soqIMoadeV+cqAIWx+b4mUkli1MtJCYO8VcKXUQrumy6A3geEtXTq3kjJ1iwCVKJerQw6EDJs/gwHxbkOkxO/+nMzfh6Pdvyeap814KGC5ViltvNViskct5GQbH+TJRKj7UWA6D2EOkB4mreF8+wYFsAxIRaQdUa9THuqQaKuZLs1vfyeJsnj4vFRdnQC6KnJSaRkuxxtmcJxlGHRT9xSLCBmDo4aCUtPz2wrWclazPRVl2sQj/tohakNEizIzZUeqWfOrWzmVpBewLWdVbQti+dzKuipjPa8zU8zmcMyeyEGvMQiMOikvFoiEY8YG5uO9w97V5XwmYKWXXxQJ9D5TsUlYWMkiuflaMdV+e5q7DN/7Fi1eeXZrNS7C8zMBQN5LzdHjx/qu9lpi8ZHBcdInyeg5djAF1W1D4KMTHj3YPZ2Snp1wpq2new1urdonE1qaOQ0rcAr78QmyrsK4TpXj3BxXZvAxLyhQMlTslBeE9lklVjxRR9LhELRiGgTntEEXbvjcuWj+Nm0xZbyvym9uXXwchFdE/JoC7/8yH2gdi20HfTJBsfnAGmxv98WCoOyzylkADmW8JNAcNMzic1BQMVbVuS1HQ2XRoIL+CcTNlfbmeALQQuRWQ8oft/FW5BhA2aJjLxSBZiDEJ+2ws+N62dzJ+YZZuua4VslN6dTsphu1U3mrALGNFfZTSpjcuzn/nkWwq6xbkla1VteUVpZ6p8UC0NITd7vz2BF8wpdaYx8HTvwtljoTBsPWxKWx+0K9J1ypSAnArtQTSq9tBcc1ODawG0c5vkIXhUuk1L53bev+t8fWTL1/YA5UVcZSKeOSfxvEF3doPZkGYJcnnFLCpGyWLr/Cb3sLjDauCESFAp4PiOqGxLzajjBWw/82LV5/P9fVmS/MCCG3bW/vh//R4PPLadAWSL9SE8aXnxg3XezBA3v/pkryxJu66MDY3zphai6grFaizNBiQdws75RAxqerGbgBGu2gT9x3rzs7OTlbRvPX+PPv8Ay/2f3j1qfErU5q1HsyCPGoCCbMmp4+UoeNwmSVjEwUKFl+YNn2waHdFM00R4A9Fyux4rHwEMTj6KUXTm71Xs7ark5U0b4AcqK+qvadxjWfgk2vRdR5U3pzultowvvK813TlIIOj60QJTh/JfXO56i0hrN3mTwwFtC2BgtOEr9GwMhhMozaK8zaKsGreKmYxqI+IpPnN3oXrThlpXrtH//ddtS/e9426pz771SUE/dLgUqzJomUCHvnbcVQmWY8+2OlCV1uJtFR2HmBhVmLVlhDvwau0C0ok3iPLvzE6j2HVzid6fW4Dum1Us1OxAgcoWpyRhZO6TUfzCsiBmpqKksWiZ+fe9RWf/Lo3OmjUqwbv2juJu5+YTOn9xjwOqblcv4MvpWWPZyMGgauM8qZx7lqpR1ZaLYKYtWCBtxxfWL3ziVrsP8DAGCQqVyoWJ7bbCGlaiNmpVDXv+w80r1vxfHGZ47kdT6zD+bbBaNGdehlt+VIBDz7tw8rbUuhuqJO0Dl2a3uFN5/pj0DhLRSyti32TS2DMriEEc/uc9hoguCpaes4sRdeHw5Z2o9TyA+iwUUyorQXkBU1A09s3SZyRSPMOCLMi9qLwKRDU3v/EOkQCEfz+yIAmcFe0cktI6qLeaLC1QA7ELBSDgblR5UuW82Mstrjw4bBlykFS1QiAs4SCt7+IuVXsQzQHIs4X3rsJ3Skj5WQHm//YsPIpULwIeQ361oeqcfbEIF82qwZEgYZ9y2960M8zRrPtjjgbsThn1FMEl2Ml75W1cr1UWMmg6OsYywsXykgXAVxCbPIPUv1UCxHF/ccGFnbaNl3lbIun5vUr2gjILuXxtt01fO35mRODGOyOfXnpV34yWKrloJm5Syk1mU4ixS1jMDCXLDhRzi0Eg7euoZK7TINyS6B8hQKyS3WaUvBPEE3h0nabaNt/bGAwr6tus6WcAfKDddW7KKFt6mOu0iJsureKN3DzdIyl3LRN6czOtCoFYK7IPX2Vxtju1VI7oOr6ClRvXAJnSRHvkcXcJgZGrhcnZULXKIMDfH4D0kRfv02kTW8PFOKMRMrpJoHN61a8SAh5yuh3bNAyWNi90q4nEw3dmFUor3RJUKxexIFQWgExy5XPLYGMxIDoEYG+aABOfZSi+fjAzTWfMVvlFBAesDtCHoAkrHUvryzmA5kNaGZlFEgmxlQ9snSqrpd6YjG3zVlaxHsBO+XXstvo5SmEZoS8C67T0Q0KfCoCM7FNNl+IUMf+QgCeunK+zWzz+hXPEJADc3kPBtDiylhxY9AfWVBWYDbqFqUbpC2ZW4poIQCfjXIOCKR9RE6BkIZcX8dCELMaHaJ0D9B2QknTOwM370TfXGWJzQAJbE0U2oC9oPQUlq1GH7catJ1S2/7jA0OFzNQcZQkLgiQBe0GJdY0CnSIwTdEPSvYdL6RsMyZLWBAmMeJssjtCe5IF7AXFNAOgQwBGKfptFMxiLKjlrlaQZSwIdDPsBZmLuVPMlbogSmC8UwAja7IUIDCYYS9Iq8sUOCfQ9gBF84nCJF/WZRkXS5FoF/fZBdupgqulFQPjkkjbJ8RC8D2fspwFQcHV0sjLA3DaMiGS5kK6dv5lSUBQyGphkFLfiIjmIVFsKUzw5U6WBQQ3KSTjIu24JJDmy3AcLJSE5F6WBgTyCkRCyHO5vo5sKgTqm6Y42Bchza0FN8pSsjwgUErjQV8EQW2uryWTCoG2B0TS+o5QsBZWVV4AArny11YUeibvrQlFPyW0WbSLB5sWeNO1haC8AUTRgfqqWlvE9lxexSYUDISDgg2tTTdxh5B8VN4BoihqUUC+Y0XXi4K2AzgkEtJegCJ/lbeAqHVgw8oGu4jvANiTK1ioVFreAdD3hIizvakQUywILQhA1GIumF2076Ii3clgyUbZCrcOzG0iOG2jto6newvVswtVCw4QIzFoiiJFtSIRG0AhlbAQshWg5uUsFO8pP9pg4wBEIkUdBctQUEEFFSTLensKFFSQhVQApKCCEqgASEEFJdD/BQAA//9QsvvLkoMicAAAAABJRU5ErkJggg==" vertex="1" parent="ZbF4BASj6-ml_1zqWkv2-106">
          <mxGeometry x="260" y="180" width="80" height="80" as="geometry" />
        </mxCell>
        <mxCell id="ZbF4BASj6-ml_1zqWkv2-93" value="Cache Session Token" style="edgeStyle=orthogonalEdgeStyle;rounded=0;orthogonalLoop=1;jettySize=auto;html=1;exitX=0.92;exitY=0.11;exitDx=0;exitDy=0;exitPerimeter=0;entryX=0.325;entryY=1;entryDx=0;entryDy=0;entryPerimeter=0;startArrow=none;startFill=0;endArrow=classic;endFill=1;" edge="1" parent="ZbF4BASj6-ml_1zqWkv2-106" source="ZbF4BASj6-ml_1zqWkv2-89" target="ZbF4BASj6-ml_1zqWkv2-65">
          <mxGeometry relative="1" as="geometry" />
        </mxCell>
        <mxCell id="ZbF4BASj6-ml_1zqWkv2-89" value="AutoDesk Auth" style="outlineConnect=0;dashed=0;verticalLabelPosition=bottom;verticalAlign=top;align=center;html=1;shape=mxgraph.aws3.iam;fillColor=#759C3E;gradientColor=none;" vertex="1" parent="ZbF4BASj6-ml_1zqWkv2-106">
          <mxGeometry x="30.000833333333276" y="190" width="50.75" height="81" as="geometry" />
        </mxCell>
        <mxCell id="ZbF4BASj6-ml_1zqWkv2-105" value="Availability Zone" style="fillColor=none;strokeColor=#147EBA;dashed=1;verticalAlign=top;fontStyle=0;fontColor=#147EBA;" vertex="1" parent="ZbF4BASj6-ml_1zqWkv2-106">
          <mxGeometry width="380" height="340" as="geometry" />
        </mxCell>
      </root>
    </mxGraphModel>
  </diagram>
</mxfile>
